<?xml version="1.0" encoding="utf-8"?>
<!-- Generator: Adobe Illustrator 16.0.0, SVG Export Plug-In . SVG Version: 6.00 Build 0)  -->
<!DOCTYPE svg PUBLIC "-//W3C//DTD SVG 1.1//EN" "http://www.w3.org/Graphics/SVG/1.1/DTD/svg11.dtd">
<svg version="1.1" id="Layer_1" xmlns="http://www.w3.org/2000/svg" xmlns:xlink="http://www.w3.org/1999/xlink" x="0px" y="0px"
	 width="90px" height="90px" viewBox="-35 -35 90 90" enable-background="new -35 -35 90 90" xml:space="preserve">
<path fill="#BFC2C4" d="M37.467-6.302h-54.934c-0.276,0-0.5,0.224-0.5,0.5v31.604c0,0.276,0.224,0.5,0.5,0.5h54.934
	c0.276,0,0.5-0.224,0.5-0.5V-5.802C37.967-6.078,37.743-6.302,37.467-6.302z M33.246,25.992c-0.064,0-0.128-0.024-0.177-0.073
	c-0.098-0.098-0.098-0.256,0-0.354l0.264-0.264h-2.109l-0.617,0.617c-0.049,0.049-0.112,0.073-0.177,0.073s-0.128-0.024-0.177-0.073
	c-0.098-0.098-0.098-0.256,0-0.354l0.264-0.264h-2.107l-0.617,0.617c-0.049,0.049-0.112,0.073-0.177,0.073s-0.128-0.024-0.177-0.073
	c-0.098-0.098-0.098-0.256,0-0.354l0.264-0.264h-2.108l-0.617,0.617c-0.049,0.049-0.113,0.073-0.178,0.073
	c-0.063,0-0.127-0.024-0.176-0.073c-0.098-0.098-0.098-0.256,0-0.354l0.264-0.264h-2.109l-0.617,0.617
	c-0.049,0.049-0.113,0.073-0.177,0.073s-0.128-0.024-0.177-0.073c-0.098-0.098-0.098-0.256,0-0.354l0.264-0.264h-2.108l-0.617,0.617
	c-0.049,0.049-0.113,0.073-0.177,0.073c-0.064,0-0.128-0.024-0.177-0.073c-0.098-0.098-0.098-0.256,0-0.354l0.264-0.264h-2.108
	l-0.617,0.617c-0.049,0.049-0.113,0.073-0.177,0.073s-0.128-0.024-0.177-0.073c-0.098-0.098-0.098-0.256,0-0.354l0.264-0.264h-2.107
	l-0.617,0.617c-0.049,0.049-0.113,0.073-0.178,0.073c-0.063,0-0.127-0.024-0.176-0.073c-0.098-0.098-0.098-0.256,0-0.354
	l0.264-0.264h-2.109l-0.617,0.617c-0.049,0.049-0.113,0.073-0.177,0.073s-0.128-0.024-0.177-0.073c-0.098-0.098-0.098-0.256,0-0.354
	l0.264-0.264H8.699l-0.617,0.617c-0.049,0.049-0.113,0.073-0.177,0.073c-0.064,0-0.128-0.024-0.177-0.073
	c-0.098-0.098-0.098-0.256,0-0.354l0.264-0.264H5.884l-0.617,0.617c-0.049,0.049-0.113,0.073-0.177,0.073
	c-0.064,0-0.128-0.024-0.177-0.073c-0.098-0.098-0.098-0.256,0-0.354l0.264-0.264H3.068l-0.617,0.617
	c-0.049,0.049-0.112,0.073-0.177,0.073c-0.063,0-0.128-0.024-0.177-0.073C2,25.821,2,25.663,2.098,25.565l0.264-0.264H0.253
	l-0.617,0.617c-0.049,0.049-0.113,0.073-0.177,0.073c-0.064,0-0.128-0.024-0.177-0.073c-0.098-0.098-0.098-0.256,0-0.354
	l0.264-0.264h-2.108l-0.617,0.617c-0.049,0.049-0.113,0.073-0.177,0.073c-0.064,0-0.128-0.024-0.177-0.073
	c-0.098-0.098-0.098-0.256,0-0.354l0.264-0.264h-2.109l-0.617,0.617c-0.049,0.049-0.113,0.073-0.177,0.073
	c-0.064,0-0.128-0.024-0.177-0.073c-0.098-0.098-0.098-0.256,0-0.354l0.264-0.264h-2.108l-0.617,0.617
	c-0.049,0.049-0.112,0.073-0.177,0.073c-0.063,0-0.128-0.024-0.177-0.073c-0.098-0.098-0.098-0.256,0-0.354l0.264-0.264h-2.107
	l-0.617,0.617c-0.049,0.049-0.113,0.073-0.177,0.073c-0.064,0-0.128-0.024-0.177-0.073c-0.098-0.098-0.098-0.256,0-0.354
	l0.264-0.264h-2.109l-0.617,0.617c-0.049,0.049-0.113,0.073-0.177,0.073c-0.064,0-0.128-0.024-0.177-0.073
	c-0.098-0.098-0.098-0.256,0-0.354l0.264-0.264h-2.108l-0.617,0.617c-0.049,0.049-0.113,0.073-0.177,0.073
	c-0.064,0-0.128-0.024-0.177-0.073c-0.098-0.098-0.098-0.256,0-0.354l0.645-0.646V-5.302h53.934v30.604H34.04l-0.617,0.617
	C33.374,25.968,33.311,25.992,33.246,25.992z M32.204,0.098c0,0.139-0.112,0.25-0.25,0.25H9.222c-0.138,0-0.25-0.111-0.25-0.25
	c0-0.138,0.112-0.25,0.25-0.25h22.732C32.092-0.152,32.204-0.04,32.204,0.098z M32.204,5.338c0,0.138-0.112,0.25-0.25,0.25H9.222
	c-0.138,0-0.25-0.112-0.25-0.25c0-0.139,0.112-0.25,0.25-0.25h22.732C32.092,5.088,32.204,5.199,32.204,5.338z M32.204,10.793
	c0,0.139-0.112,0.25-0.25,0.25h-17.2c-0.139,0-0.25-0.111-0.25-0.25c0-0.138,0.111-0.25,0.25-0.25h17.2
	C32.092,10.543,32.204,10.655,32.204,10.793z M32.204,13.346c0,0.139-0.112,0.25-0.25,0.25H16.721c-0.139,0-0.25-0.111-0.25-0.25
	s0.111-0.25,0.25-0.25h15.233C32.092,13.096,32.204,13.207,32.204,13.346z M32.204,15.896c0,0.139-0.112,0.25-0.25,0.25h-17.2
	c-0.139,0-0.25-0.111-0.25-0.25c0-0.138,0.111-0.25,0.25-0.25h17.2C32.092,15.646,32.204,15.759,32.204,15.896z M2.084,16.114h-1
	V12.52c0-0.807-0.325-1.537-0.847-2.075c0.266-0.201,0.516-0.419,0.747-0.658c0.677,0.714,1.1,1.673,1.1,2.733V16.114z M-9.13,12.52
	v3.595h-1V12.52c0-1.274,0.612-2.398,1.546-3.128c0.211,0.258,0.446,0.495,0.694,0.717C-8.638,10.65-9.13,11.527-9.13,12.52z
	 M-3.623,9.842c2.484,0,4.505-2.021,4.505-4.504s-2.021-4.504-4.505-4.504c-2.483,0-4.504,2.021-4.504,4.504
	S-6.106,9.842-3.623,9.842z M-3.623,1.834c1.933,0,3.505,1.572,3.505,3.504c0,1.933-1.572,3.504-3.505,3.504
	c-1.932,0-3.504-1.571-3.504-3.504C-7.127,3.406-5.555,1.834-3.623,1.834z M4.7-1.332h-17.445c-0.139,0-0.25,0.112-0.25,0.25v17.446
	c0,0.138,0.111,0.25,0.25,0.25H4.7c0.138,0,0.25-0.112,0.25-0.25V-1.082C4.95-1.22,4.838-1.332,4.7-1.332z M1.084,16.364v-0.25
	H-9.13v0.25h-1v-0.25h-1.206h-1.159V-0.832h7.163h3.419H4.45v16.946H3.29H2.084v0.25H1.084z M2.084,16.114v0.25h-1v-0.25H2.084z
	 M2.084,16.114v0.25h-1v-0.25H2.084z M-10.13,16.114h1v0.25h-1V16.114z M-10.13,16.114h1v0.25h-1V16.114z M-14.434,23.095
	l-2.207,2.207h-0.326V24.92l2.18-2.179c0.098-0.098,0.256-0.098,0.354,0S-14.336,22.997-14.434,23.095z M-16.967,25.302h0.326
	l-0.617,0.617c-0.049,0.049-0.113,0.073-0.177,0.073c-0.064,0-0.128-0.024-0.177-0.073c-0.098-0.098-0.098-0.256,0-0.354
	l0.645-0.646V25.302z M-16.967,25.302h0.326l-0.617,0.617c-0.049,0.049-0.113,0.073-0.177,0.073c-0.064,0-0.128-0.024-0.177-0.073
	c-0.098-0.098-0.098-0.256,0-0.354l0.645-0.646V25.302z M-11.618,23.095l-2.207,2.207h-0.707l2.561-2.561
	c0.098-0.098,0.256-0.098,0.354,0S-11.521,22.997-11.618,23.095z M-14.532,25.302h0.707l-0.617,0.617
	c-0.049,0.049-0.113,0.073-0.177,0.073c-0.064,0-0.128-0.024-0.177-0.073c-0.098-0.098-0.098-0.256,0-0.354L-14.532,25.302z
	 M-14.532,25.302h0.707l-0.617,0.617c-0.049,0.049-0.113,0.073-0.177,0.073c-0.064,0-0.128-0.024-0.177-0.073
	c-0.098-0.098-0.098-0.256,0-0.354L-14.532,25.302z M-8.803,23.095l-2.206,2.207h-0.707l2.56-2.561c0.098-0.098,0.256-0.098,0.354,0
	S-8.705,22.997-8.803,23.095z M-11.716,25.302h0.707l-0.617,0.617c-0.049,0.049-0.113,0.073-0.177,0.073
	c-0.064,0-0.128-0.024-0.177-0.073c-0.098-0.098-0.098-0.256,0-0.354L-11.716,25.302z M-11.716,25.302h0.707l-0.617,0.617
	c-0.049,0.049-0.113,0.073-0.177,0.073c-0.064,0-0.128-0.024-0.177-0.073c-0.098-0.098-0.098-0.256,0-0.354L-11.716,25.302z
	 M-5.987,23.095l-2.207,2.207h-0.707l2.561-2.561c0.098-0.098,0.256-0.098,0.354,0S-5.89,22.997-5.987,23.095z M-8.901,25.302h0.707
	l-0.617,0.617c-0.049,0.049-0.112,0.073-0.177,0.073c-0.063,0-0.128-0.024-0.177-0.073c-0.098-0.098-0.098-0.256,0-0.354
	L-8.901,25.302z M-8.901,25.302h0.707l-0.617,0.617c-0.049,0.049-0.112,0.073-0.177,0.073c-0.063,0-0.128-0.024-0.177-0.073
	c-0.098-0.098-0.098-0.256,0-0.354L-8.901,25.302z M-3.171,23.095l-2.208,2.207h-0.707l2.562-2.561c0.098-0.098,0.256-0.098,0.354,0
	S-3.073,22.997-3.171,23.095z M-6.086,25.302h0.707l-0.617,0.617c-0.049,0.049-0.113,0.073-0.177,0.073
	c-0.064,0-0.128-0.024-0.177-0.073c-0.098-0.098-0.098-0.256,0-0.354L-6.086,25.302z M-6.086,25.302h0.707l-0.617,0.617
	c-0.049,0.049-0.113,0.073-0.177,0.073c-0.064,0-0.128-0.024-0.177-0.073c-0.098-0.098-0.098-0.256,0-0.354L-6.086,25.302z
	 M-0.355,23.095l-2.207,2.207H-3.27l2.561-2.561c0.098-0.098,0.256-0.098,0.354,0S-0.258,22.997-0.355,23.095z M-3.27,25.302h0.707
	l-0.617,0.617c-0.049,0.049-0.113,0.073-0.177,0.073c-0.064,0-0.128-0.024-0.177-0.073c-0.098-0.098-0.098-0.256,0-0.354
	L-3.27,25.302z M-3.27,25.302h0.707l-0.617,0.617c-0.049,0.049-0.113,0.073-0.177,0.073c-0.064,0-0.128-0.024-0.177-0.073
	c-0.098-0.098-0.098-0.256,0-0.354L-3.27,25.302z M2.46,23.095l-2.207,2.207h-0.707l2.561-2.561c0.098-0.098,0.256-0.098,0.354,0
	S2.558,22.997,2.46,23.095z M-0.454,25.302h0.707l-0.617,0.617c-0.049,0.049-0.113,0.073-0.177,0.073
	c-0.064,0-0.128-0.024-0.177-0.073c-0.098-0.098-0.098-0.256,0-0.354L-0.454,25.302z M-0.454,25.302h0.707l-0.617,0.617
	c-0.049,0.049-0.113,0.073-0.177,0.073c-0.064,0-0.128-0.024-0.177-0.073c-0.098-0.098-0.098-0.256,0-0.354L-0.454,25.302z
	 M5.275,23.095l-2.207,2.207H2.361l2.561-2.561c0.098-0.098,0.256-0.098,0.354,0S5.373,22.997,5.275,23.095z M2.361,25.302h0.707
	l-0.617,0.617c-0.049,0.049-0.112,0.073-0.177,0.073c-0.063,0-0.128-0.024-0.177-0.073C2,25.821,2,25.663,2.098,25.565L2.361,25.302
	z M2.361,25.302h0.707l-0.617,0.617c-0.049,0.049-0.112,0.073-0.177,0.073c-0.063,0-0.128-0.024-0.177-0.073
	C2,25.821,2,25.663,2.098,25.565L2.361,25.302z M8.092,23.095l-2.208,2.207H5.177l2.562-2.561c0.098-0.098,0.256-0.098,0.354,0
	S8.189,22.997,8.092,23.095z M5.177,25.302h0.707l-0.617,0.617c-0.049,0.049-0.113,0.073-0.177,0.073
	c-0.064,0-0.128-0.024-0.177-0.073c-0.098-0.098-0.098-0.256,0-0.354L5.177,25.302z M5.177,25.302h0.707l-0.617,0.617
	c-0.049,0.049-0.113,0.073-0.177,0.073c-0.064,0-0.128-0.024-0.177-0.073c-0.098-0.098-0.098-0.256,0-0.354L5.177,25.302z
	 M10.906,23.095l-2.207,2.207H7.992l2.561-2.561c0.098-0.098,0.256-0.098,0.354,0S11.004,22.997,10.906,23.095z M7.992,25.302h0.707
	l-0.617,0.617c-0.049,0.049-0.113,0.073-0.177,0.073c-0.064,0-0.128-0.024-0.177-0.073c-0.098-0.098-0.098-0.256,0-0.354
	L7.992,25.302z M7.992,25.302h0.707l-0.617,0.617c-0.049,0.049-0.113,0.073-0.177,0.073c-0.064,0-0.128-0.024-0.177-0.073
	c-0.098-0.098-0.098-0.256,0-0.354L7.992,25.302z M13.723,23.095l-2.207,2.207h-0.707l2.561-2.561c0.098-0.098,0.256-0.098,0.354,0
	S13.82,22.997,13.723,23.095z M10.809,25.302h0.707l-0.617,0.617c-0.049,0.049-0.113,0.073-0.177,0.073s-0.128-0.024-0.177-0.073
	c-0.098-0.098-0.098-0.256,0-0.354L10.809,25.302z M10.809,25.302h0.707l-0.617,0.617c-0.049,0.049-0.113,0.073-0.177,0.073
	s-0.128-0.024-0.177-0.073c-0.098-0.098-0.098-0.256,0-0.354L10.809,25.302z M16.538,23.095l-2.206,2.207h-0.707l2.56-2.561
	c0.098-0.098,0.256-0.098,0.354,0S16.636,22.997,16.538,23.095z M13.625,25.302h0.707l-0.617,0.617
	c-0.049,0.049-0.113,0.073-0.178,0.073c-0.063,0-0.127-0.024-0.176-0.073c-0.098-0.098-0.098-0.256,0-0.354L13.625,25.302z
	 M13.625,25.302h0.707l-0.617,0.617c-0.049,0.049-0.113,0.073-0.178,0.073c-0.063,0-0.127-0.024-0.176-0.073
	c-0.098-0.098-0.098-0.256,0-0.354L13.625,25.302z M19.354,23.095l-2.207,2.207h-0.707L19,22.741c0.098-0.098,0.256-0.098,0.354,0
	S19.451,22.997,19.354,23.095z M16.439,25.302h0.707l-0.617,0.617c-0.049,0.049-0.113,0.073-0.177,0.073s-0.128-0.024-0.177-0.073
	c-0.098-0.098-0.098-0.256,0-0.354L16.439,25.302z M16.439,25.302h0.707l-0.617,0.617c-0.049,0.049-0.113,0.073-0.177,0.073
	s-0.128-0.024-0.177-0.073c-0.098-0.098-0.098-0.256,0-0.354L16.439,25.302z M22.169,23.095l-2.207,2.207h-0.707l2.561-2.561
	c0.098-0.098,0.256-0.098,0.354,0S22.267,22.997,22.169,23.095z M19.255,25.302h0.707l-0.617,0.617
	c-0.049,0.049-0.113,0.073-0.177,0.073c-0.064,0-0.128-0.024-0.177-0.073c-0.098-0.098-0.098-0.256,0-0.354L19.255,25.302z
	 M19.255,25.302h0.707l-0.617,0.617c-0.049,0.049-0.113,0.073-0.177,0.073c-0.064,0-0.128-0.024-0.177-0.073
	c-0.098-0.098-0.098-0.256,0-0.354L19.255,25.302z M24.984,23.095l-2.207,2.207H22.07l2.561-2.561c0.098-0.098,0.256-0.098,0.354,0
	S25.082,22.997,24.984,23.095z M22.07,25.302h0.707l-0.617,0.617c-0.049,0.049-0.113,0.073-0.177,0.073s-0.128-0.024-0.177-0.073
	c-0.098-0.098-0.098-0.256,0-0.354L22.07,25.302z M22.07,25.302h0.707l-0.617,0.617c-0.049,0.049-0.113,0.073-0.177,0.073
	s-0.128-0.024-0.177-0.073c-0.098-0.098-0.098-0.256,0-0.354L22.07,25.302z M27.8,23.095l-2.206,2.207h-0.707l2.56-2.561
	c0.098-0.098,0.256-0.098,0.354,0S27.897,22.997,27.8,23.095z M24.887,25.302h0.707l-0.617,0.617
	c-0.049,0.049-0.113,0.073-0.178,0.073c-0.063,0-0.127-0.024-0.176-0.073c-0.098-0.098-0.098-0.256,0-0.354L24.887,25.302z
	 M24.887,25.302h0.707l-0.617,0.617c-0.049,0.049-0.113,0.073-0.178,0.073c-0.063,0-0.127-0.024-0.176-0.073
	c-0.098-0.098-0.098-0.256,0-0.354L24.887,25.302z M30.615,23.095l-2.206,2.207h-0.707l2.56-2.561c0.098-0.098,0.256-0.098,0.354,0
	S30.713,22.997,30.615,23.095z M27.702,25.302h0.707l-0.617,0.617c-0.049,0.049-0.112,0.073-0.177,0.073s-0.128-0.024-0.177-0.073
	c-0.098-0.098-0.098-0.256,0-0.354L27.702,25.302z M27.702,25.302h0.707l-0.617,0.617c-0.049,0.049-0.112,0.073-0.177,0.073
	s-0.128-0.024-0.177-0.073c-0.098-0.098-0.098-0.256,0-0.354L27.702,25.302z M33.432,23.095l-2.208,2.207h-0.707l2.562-2.561
	c0.098-0.098,0.256-0.098,0.354,0S33.529,22.997,33.432,23.095z M30.517,25.302h0.707l-0.617,0.617
	c-0.049,0.049-0.112,0.073-0.177,0.073s-0.128-0.024-0.177-0.073c-0.098-0.098-0.098-0.256,0-0.354L30.517,25.302z M30.517,25.302
	h0.707l-0.617,0.617c-0.049,0.049-0.112,0.073-0.177,0.073s-0.128-0.024-0.177-0.073c-0.098-0.098-0.098-0.256,0-0.354
	L30.517,25.302z M34.04,25.302h-0.707l2.561-2.561c0.098-0.098,0.256-0.098,0.354,0s0.098,0.256,0,0.354L34.04,25.302z
	 M33.423,25.919c-0.049,0.049-0.112,0.073-0.177,0.073s-0.128-0.024-0.177-0.073c-0.098-0.098-0.098-0.256,0-0.354l0.264-0.264
	h0.707L33.423,25.919z M33.423,25.919c-0.049,0.049-0.112,0.073-0.177,0.073s-0.128-0.024-0.177-0.073
	c-0.098-0.098-0.098-0.256,0-0.354l0.264-0.264h0.707L33.423,25.919z"/>
</svg>
