<?xml version="1.0" encoding="utf-8"?>
<!-- Generator: Adobe Illustrator 16.0.0, SVG Export Plug-In . SVG Version: 6.00 Build 0)  -->
<!DOCTYPE svg PUBLIC "-//W3C//DTD SVG 1.1//EN" "http://www.w3.org/Graphics/SVG/1.1/DTD/svg11.dtd">
<svg version="1.1" id="Layer_1" xmlns="http://www.w3.org/2000/svg" xmlns:xlink="http://www.w3.org/1999/xlink" x="0px" y="0px"
	 width="90px" height="90px" viewBox="-35 -35 90 90" enable-background="new -35 -35 90 90" xml:space="preserve">
<linearGradient id="SVGID_1_" gradientUnits="userSpaceOnUse" x1="-15.4521" y1="10" x2="35.4521" y2="10">
	<stop  offset="0" style="stop-color:#0ED0FF"/>
	<stop  offset="1" style="stop-color:#42D67E"/>
</linearGradient>
<path fill="url(#SVGID_1_)" d="M9.725,44.059c-9.154,0-22.773-1.167-22.773-4.384v-4.079c0-2.41,1.697-4.662,4.908-6.513
	c1.182-0.681,2.464-1.129,3.704-1.563c1.4-0.489,2.723-0.952,3.92-1.722c1.794-1.152,2.96-3.302,2.985-5.491
	c-8.087-2.716-14.031-9.819-15.273-18.248c-1.534-0.367-2.647-1.742-2.647-3.344s1.113-2.978,2.647-3.346
	c1.636-11.101,11.256-19.428,22.529-19.428c11.235,0,20.835,8.277,22.515,19.327c1.792,0.124,3.213,1.622,3.213,3.446
	c0,1.823-1.421,3.322-3.213,3.445c-1.275,8.384-7.206,15.441-15.259,18.146c0.031,2.941,1.925,5.509,4.732,6.403
	c0.038,0.012,4.467,1.562,5.877,2.373c3.211,1.851,4.908,4.103,4.908,6.513v4.079C32.498,42.892,18.879,44.059,9.725,44.059z
	 M3.459,20.614c-0.122,2.444-1.414,4.727-3.435,6.025c-1.297,0.832-2.737,1.337-4.131,1.824c-1.197,0.419-2.435,0.852-3.534,1.486
	c-2.011,1.158-4.408,3.078-4.408,5.646v4.079c0,1.38,8.482,3.384,21.773,3.384s21.773-2.004,21.773-3.384v-4.079
	c0-2.567-2.397-4.487-4.408-5.646c-1.241-0.716-5.41-2.199-5.681-2.287c-3.126-0.996-5.265-3.8-5.42-7.049
	c-1.98,0.565-4.032,0.858-6.112,0.872c-0.036,0.001-0.072,0.001-0.108,0.001H9.768l0,0c-0.001,0-0.043,0-0.043,0H9.712
	c-1.05-0.002-2.088-0.074-3.111-0.215C5.531,21.127,4.484,20.907,3.459,20.614z M9.598,20.487c0.028,0,0.058,0,0.086,0
	c1.015-0.002,2.009-0.068,2.981-0.199c1.253-0.169,2.483-0.447,3.685-0.831c0.02-0.006,0.039-0.011,0.059-0.015
	c7.939-2.558,13.774-9.524,14.893-17.78c-0.001-0.026,0-0.053,0.003-0.079c0.129-0.977,0.193-1.938,0.194-2.856c0,0,0,0,0-0.001
	c-0.001-0.956-0.064-1.892-0.195-2.881C31.3-4.184,31.298-4.212,31.299-4.24C29.843-14.975,20.583-23.059,9.725-23.059
	c-10.866,0-20.127,8.091-21.577,18.835c0.002,0.027,0,0.056-0.003,0.084c-0.128,0.969-0.192,1.925-0.193,2.843l0,0
	c0.001,0.939,0.065,1.896,0.192,2.865c0.003,0.026,0.005,0.054,0.004,0.081c1.113,8.262,6.948,15.234,14.895,17.793
	c0.02,0.004,0.038,0.009,0.058,0.015C5.199,20.128,7.385,20.475,9.598,20.487z M32.498-1.297c0,0.824-0.043,1.638-0.128,2.438
	c1.178-0.18,2.082-1.199,2.082-2.426c0-1.228-0.904-2.247-2.082-2.427C32.455-2.913,32.498-2.104,32.498-1.297
	C32.498-1.298,32.498-1.298,32.498-1.297L32.498-1.297z M-12.938-3.539c-0.896,0.371-1.514,1.25-1.514,2.254
	s0.618,1.882,1.514,2.253c-0.073-0.743-0.11-1.493-0.11-2.24l0,0c0-0.001,0-0.001,0-0.001C-13.049-2.039-13.012-2.795-12.938-3.539z
	 M9.725,7.572c-4.884,0-8.857-3.974-8.857-8.857c0-4.885,3.974-8.858,8.857-8.858s8.857,3.974,8.857,8.858
	C18.582,3.599,14.608,7.572,9.725,7.572z M9.725-9.144c-4.333,0-7.857,3.525-7.857,7.858s3.524,7.857,7.857,7.857
	s7.857-3.524,7.857-7.857S14.058-9.144,9.725-9.144z M9.725-20.167v-0.5c-6.976,0-13.445,3.776-16.884,9.856l0.436,0.246
	C-3.374-16.487,2.929-20.167,9.725-20.167z M9.725-6.623v-0.5c-2.664,0-4.988,1.799-5.652,4.375l0.484,0.125
	C5.164-4.979,7.289-6.623,9.725-6.623z M26.26,36.994l-0.094-0.49c-4.202,0.806-10.195,1.268-16.441,1.268
	S-2.515,37.31-6.717,36.504l-0.094,0.49c4.231,0.812,10.259,1.277,16.535,1.277S22.028,37.806,26.26,36.994z M15.563,28.345
	l-0.094-0.49c-1.463,0.281-3.557,0.442-5.744,0.442s-4.281-0.161-5.744-0.442l-0.094,0.49c1.492,0.287,3.62,0.452,5.838,0.452
	S14.07,28.632,15.563,28.345z"/>
</svg>
