<?xml version="1.0" encoding="utf-8"?>
<!-- Generator: Adobe Illustrator 16.0.0, SVG Export Plug-In . SVG Version: 6.00 Build 0)  -->
<!DOCTYPE svg PUBLIC "-//W3C//DTD SVG 1.1//EN" "http://www.w3.org/Graphics/SVG/1.1/DTD/svg11.dtd">
<svg version="1.1" id="cccpoint_1_" xmlns="http://www.w3.org/2000/svg" xmlns:xlink="http://www.w3.org/1999/xlink" x="0px"
	 y="0px" width="82px" height="12px" viewBox="0 0 82 12" enable-background="new 0 0 82 12" xml:space="preserve">
<g id="cccpoint">
	<path fill="#0ED0FF" d="M4.917,3.502c0.423-0.238,0.907-0.357,1.449-0.357c0.923,0,1.708,0.39,2.356,1.171l1.799-1.628
		c-0.485-0.609-1.095-1.075-1.828-1.399s-1.556-0.485-2.47-0.485c-1.047,0-1.987,0.221-2.82,0.664
		C2.571,1.91,1.917,2.526,1.441,3.316S0.727,5.001,0.727,6s0.238,1.894,0.714,2.685c0.476,0.79,1.13,1.406,1.963,1.849
		c0.833,0.441,1.772,0.662,2.82,0.662c0.914,0,1.737-0.16,2.47-0.484s1.342-0.791,1.828-1.399L8.723,7.685
		C8.075,8.466,7.29,8.856,6.367,8.856c-0.542,0-1.026-0.119-1.449-0.356C4.494,8.261,4.166,7.925,3.933,7.493
		C3.699,7.06,3.583,6.562,3.583,6s0.117-1.059,0.35-1.492C4.166,4.076,4.494,3.74,4.917,3.502z M15.844,3.502
		c0.423-0.238,0.907-0.357,1.449-0.357c0.923,0,1.708,0.39,2.356,1.171l1.799-1.628c-0.485-0.609-1.095-1.075-1.828-1.399
		s-1.556-0.485-2.47-0.485c-1.047,0-1.987,0.221-2.82,0.664c-0.833,0.443-1.487,1.059-1.963,1.849S11.653,5.001,11.653,6
		s0.238,1.894,0.714,2.685c0.476,0.79,1.13,1.406,1.963,1.849c0.833,0.441,1.772,0.662,2.82,0.662c0.914,0,1.737-0.16,2.47-0.484
		s1.342-0.791,1.828-1.399l-1.799-1.627c-0.647,0.781-1.433,1.171-2.356,1.171c-0.542,0-1.026-0.119-1.449-0.356
		c-0.423-0.238-0.752-0.574-0.985-1.007C14.625,7.06,14.509,6.562,14.509,6s0.117-1.059,0.35-1.492
		C15.092,4.076,15.42,3.74,15.844,3.502z M28.22,8.856c-0.542,0-1.026-0.119-1.449-0.356c-0.423-0.238-0.752-0.574-0.985-1.007
		C25.552,7.06,25.436,6.562,25.436,6s0.117-1.059,0.35-1.492c0.233-0.433,0.562-0.769,0.985-1.006s0.907-0.357,1.449-0.357
		c0.923,0,1.708,0.39,2.356,1.171l1.799-1.628c-0.485-0.609-1.095-1.075-1.828-1.399s-1.556-0.485-2.47-0.485
		c-1.047,0-1.987,0.221-2.82,0.664c-0.833,0.443-1.487,1.059-1.963,1.849S22.58,5.001,22.58,6s0.238,1.894,0.714,2.685
		c0.476,0.79,1.13,1.406,1.963,1.849c0.833,0.441,1.772,0.662,2.82,0.662c0.914,0,1.737-0.16,2.47-0.484s1.342-0.791,1.828-1.399
		l-1.799-1.627C29.928,8.466,29.143,8.856,28.22,8.856z"/>
	<path fill="#FFFFFF" d="M38.313,1.003h-3.741v9.994h1.057V7.842h2.684c1.275,0,2.275-0.302,2.999-0.907
		c0.723-0.604,1.084-1.439,1.084-2.505s-0.361-1.904-1.084-2.513C40.588,1.308,39.589,1.003,38.313,1.003z M40.555,6.265
		c-0.523,0.433-1.28,0.649-2.27,0.649h-2.656V1.917h2.656c0.99,0,1.747,0.217,2.27,0.65S41.34,3.621,41.34,4.43
		C41.34,5.22,41.079,5.832,40.555,6.265z M52.459,1.574c-0.795-0.438-1.688-0.657-2.678-0.657s-1.887,0.222-2.691,0.664
		c-0.805,0.443-1.432,1.049-1.885,1.82C44.754,4.173,44.527,5.039,44.527,6s0.227,1.828,0.678,2.599
		c0.453,0.772,1.08,1.376,1.885,1.82s1.701,0.664,2.691,0.664s1.883-0.219,2.678-0.656s1.42-1.044,1.877-1.821
		C54.793,7.831,55.021,6.962,55.021,6s-0.229-1.83-0.686-2.605S53.254,2.012,52.459,1.574z M53.422,8.121
		c-0.361,0.633-0.861,1.127-1.498,1.485c-0.639,0.356-1.352,0.536-2.143,0.536c-0.789,0-1.506-0.18-2.148-0.536
		c-0.643-0.357-1.146-0.852-1.514-1.485S45.57,6.781,45.57,6c0-0.78,0.182-1.487,0.549-2.12s0.871-1.128,1.514-1.485
		s1.359-0.536,2.148-0.536c0.791,0,1.504,0.179,2.143,0.536c0.637,0.357,1.137,0.852,1.498,1.485S53.965,5.22,53.965,6
		C53.965,6.781,53.783,7.488,53.422,8.121z M57.914,10.997h1.057V1.003h-1.057V10.997z M69.906,9.113l-6.439-8.11h-0.871v9.994
		h1.057V2.888l6.426,8.109h0.871V1.003h-1.043V9.113z M73.193,1.003v0.914h3.512v9.08h1.057v-9.08h3.512V1.003H73.193z"/>
</g>
</svg>
