<svg version="1.1" id="chci-radu-icon" xmlns="http://www.w3.org/2000/svg" xmlns:xlink="http://www.w3.org/1999/xlink" x="0px" y="0px"
	 width="120px" height="120px" viewBox="0 0 120 120" enable-background="new 0 0 120 120" xml:space="preserve">
<path fill="#FFFFFF" d="M67.191,38.563c-7.027,0-13.585,3.146-17.989,8.633c-0.347,0.431-0.277,1.06,0.153,1.405
	c0.432,0.348,1.061,0.277,1.405-0.153c4.024-5.011,10.013-7.885,16.431-7.885c11.611,0,21.059,9.447,21.059,21.059
	c0,3.494-0.874,6.955-2.527,10.01c-0.079,0.146-0.12,0.31-0.12,0.476v7.927h-7.927c-0.166,0-0.33,0.041-0.476,0.12
	c-3.055,1.653-6.515,2.527-10.009,2.527c-0.553,0-1,0.447-1,1s0.447,1,1,1c3.739,0,7.445-0.915,10.734-2.647h8.677
	c0.553,0,1-0.447,1-1v-8.677c1.732-3.289,2.647-6.995,2.647-10.735C90.25,48.906,79.906,38.563,67.191,38.563z M57.582,63.779
	c-0.003-0.004-0.069-0.077-0.072-0.081c-0.364-0.448-0.717-0.842-1.093-1.217c-0.361-0.359-0.761-0.718-1.186-1.061
	c-0.088-0.073-0.181-0.141-0.273-0.208L54.805,61.1c-0.29-0.219-0.58-0.434-0.886-0.634c-0.14-0.091-0.283-0.176-0.428-0.262
	l-0.106-0.063c-0.287-0.173-0.578-0.339-0.876-0.492c-0.196-0.101-0.395-0.193-0.596-0.287c-0.301-0.139-0.604-0.267-0.915-0.387
	c-0.207-0.08-0.415-0.157-0.625-0.228c-0.322-0.109-0.65-0.203-0.983-0.291l-0.164-0.044c-0.152-0.041-0.305-0.082-0.46-0.116
	c-0.367-0.081-0.74-0.141-1.114-0.195l-0.192-0.03c-0.119-0.021-0.237-0.04-0.36-0.054c-0.609-0.066-1.171-0.099-1.718-0.099
	c-8.619,0-15.631,7.012-15.631,15.631c0,2.55,0.627,5.077,1.815,7.316v5.999c0,0.276,0.224,0.5,0.5,0.5h5.999
	c2.239,1.188,4.767,1.815,7.316,1.815c8.619,0,15.631-7.012,15.631-15.631c0-3.558-1.171-6.911-3.386-9.703
	C57.613,63.823,57.599,63.801,57.582,63.779z M45.381,88.181c-2.427,0-4.831-0.606-6.953-1.755c-0.073-0.04-0.155-0.061-0.238-0.061
	h-5.624v-5.624c0-0.083-0.021-0.165-0.061-0.238c-1.148-2.122-1.755-4.526-1.755-6.953c0-8.067,6.563-14.631,14.631-14.631
	c0.511,0,1.037,0.03,1.607,0.093c0.103,0.012,0.204,0.028,0.305,0.046l0.213,0.034c0.352,0.051,0.701,0.106,1.045,0.182
	c0.14,0.03,0.276,0.068,0.414,0.104l0.17,0.046c0.311,0.082,0.617,0.17,0.92,0.272c0.198,0.065,0.391,0.139,0.583,0.213
	c0.292,0.112,0.576,0.232,0.855,0.36c0.188,0.087,0.374,0.174,0.558,0.269c0.279,0.144,0.551,0.3,0.821,0.462l0.11,0.065
	c0.131,0.077,0.263,0.154,0.39,0.238c0.286,0.187,0.559,0.388,0.827,0.592l0.171,0.126c0.077,0.056,0.153,0.111,0.229,0.174
	c0.4,0.324,0.774,0.659,1.125,1.009c0.324,0.323,0.643,0.676,1.021,1.131c0.014,0.024,0.029,0.048,0.047,0.069
	c2.106,2.626,3.22,5.789,3.22,9.146C60.012,81.617,53.448,88.181,45.381,88.181z"/>
<path class="hidden" fill="none" d="M12.5,65.819h-5c-0.276,0-0.5,0.224-0.5,0.5s0.224,0.5,0.5,0.5h5c0.276,0,0.5-0.224,0.5-0.5
	S12.776,65.819,12.5,65.819z M112.5,65.819h-5c-0.276,0-0.5,0.224-0.5,0.5s0.224,0.5,0.5,0.5h5c0.276,0,0.5-0.224,0.5-0.5
	S112.776,65.819,112.5,65.819z M60,13.319c-0.276,0-0.5,0.224-0.5,0.5v5c0,0.276,0.224,0.5,0.5,0.5s0.5-0.224,0.5-0.5v-5
	C60.5,13.543,60.276,13.319,60,13.319z M16.302,47.678l-2.305-0.955c-0.254-0.104-0.547,0.016-0.653,0.271
	c-0.105,0.255,0.016,0.547,0.271,0.652l2.305,0.955c0.063,0.025,0.127,0.038,0.191,0.038c0.196,0,0.382-0.116,0.462-0.309
	C16.678,48.076,16.557,47.783,16.302,47.678z M79.326,19.663c-0.252-0.105-0.547,0.015-0.653,0.271l-0.955,2.305
	c-0.105,0.255,0.016,0.547,0.271,0.653c0.063,0.026,0.127,0.038,0.191,0.038c0.196,0,0.382-0.116,0.462-0.309l0.955-2.305
	C79.702,20.062,79.581,19.77,79.326,19.663z M41.328,19.934c-0.105-0.255-0.399-0.376-0.653-0.271
	c-0.255,0.105-0.376,0.397-0.271,0.653l0.955,2.305c0.08,0.192,0.266,0.309,0.462,0.309c0.064,0,0.129-0.012,0.191-0.038
	c0.255-0.105,0.376-0.397,0.271-0.653L41.328,19.934z M106.002,46.723l-2.305,0.955c-0.255,0.105-0.376,0.398-0.271,0.653
	c0.08,0.192,0.266,0.309,0.462,0.309c0.063,0,0.129-0.013,0.191-0.038l2.305-0.955c0.255-0.105,0.376-0.397,0.271-0.652
	S106.258,46.619,106.002,46.723z M23.23,28.843c-0.195-0.195-0.512-0.195-0.707,0s-0.195,0.512,0,0.707l3.536,3.535
	c0.098,0.098,0.226,0.146,0.354,0.146s0.256-0.049,0.354-0.146c0.195-0.195,0.195-0.512,0-0.707L23.23,28.843z M96.77,28.843
	l-3.535,3.535c-0.195,0.195-0.195,0.512,0,0.707c0.098,0.098,0.226,0.146,0.354,0.146s0.256-0.049,0.354-0.146l3.535-3.535
	c0.195-0.195,0.195-0.512,0-0.707S96.965,28.647,96.77,28.843z"/>
</svg>
