<?xml version="1.0" encoding="utf-8"?>
<!-- Generator: Adobe Illustrator 16.0.0, SVG Export Plug-In . SVG Version: 6.00 Build 0)  -->
<!DOCTYPE svg PUBLIC "-//W3C//DTD SVG 1.1//EN" "http://www.w3.org/Graphics/SVG/1.1/DTD/svg11.dtd">
<svg version="1.1" id="Layer_1" xmlns="http://www.w3.org/2000/svg" xmlns:xlink="http://www.w3.org/1999/xlink" x="0px" y="0px"
	 width="20px" height="12px" viewBox="0 0 20 12" enable-background="new 0 0 20 12" xml:space="preserve">
<g id="Layer_2_3_">
	<g id="Layer_1-2_3_">
		<g id="_Group__3_">
			<rect x="7.375" y="1.283" fill="#FF5F00" width="5.25" height="9.434"/>
			<path id="_Path__3_" fill="#EB001B" d="M7.709,6.002C7.707,4.16,8.552,2.42,10,1.283c-2.605-2.047-6.376-1.596-8.423,1.01
				c-2.047,2.605-1.595,6.377,1.01,8.424c2.175,1.71,5.238,1.71,7.414,0C8.552,9.58,7.708,7.842,7.709,6.002z"/>
			<path fill="#F79E1B" d="M19.706,6.002c0,3.313-2.686,5.998-5.999,5.998c-1.344,0-2.65-0.451-3.707-1.283
				c2.604-2.047,3.057-5.818,1.01-8.424c-0.295-0.375-0.634-0.715-1.01-1.01c2.604-2.048,6.376-1.596,8.424,1.008
				C19.255,3.349,19.706,4.654,19.706,6V6.002z"/>
			<path fill="#F79E1B" d="M19.133,9.717V9.523h0.079V9.484h-0.198v0.039h0.085v0.193H19.133z M19.518,9.717V9.484h-0.059
				l-0.07,0.166l-0.07-0.166h-0.053v0.232h0.043V9.542l0.064,0.151h0.045l0.065-0.151v0.177L19.518,9.717z"/>
		</g>
	</g>
</g>
</svg>
