<svg version="1.1" id="Layer_1" xmlns="http://www.w3.org/2000/svg" xmlns:xlink="http://www.w3.org/1999/xlink" x="0px" y="0px"
	 width="104px" height="80px" viewBox="-16 -24 104 80" enable-background="new -16 -24 104 80" xml:space="preserve">
<path class="hidden" d="M79.003,31.392c-0.531,0-0.963-0.432-0.963-0.963s0.432-0.964,0.963-0.964h4.533
	c0.531,0,0.964,0.433,0.964,0.964s-0.433,0.963-0.964,0.963H79.003z M-11.537,31.392c-0.531,0-0.963-0.432-0.963-0.963
	s0.432-0.964,0.963-0.964h4.529c0.533,0,0.967,0.433,0.967,0.964s-0.434,0.963-0.967,0.963H-11.537z M75.734,14.93
	c-0.392,0-0.741-0.235-0.89-0.599c-0.199-0.49,0.034-1.053,0.521-1.255l2.094-0.863c0.118-0.048,0.241-0.073,0.367-0.073
	c0.392,0,0.74,0.233,0.889,0.595c0.2,0.489-0.032,1.053-0.52,1.256l-2.093,0.867C75.981,14.907,75.859,14.93,75.734,14.93z
	 M-3.736,14.929c-0.124,0-0.246-0.023-0.362-0.069l-2.097-0.868c-0.487-0.204-0.722-0.766-0.526-1.254
	c0.153-0.366,0.502-0.598,0.894-0.598c0.128,0,0.253,0.025,0.372,0.074l2.087,0.859c0.487,0.204,0.722,0.767,0.527,1.255
	C-2.999,14.697-3.348,14.929-3.736,14.929z M66.418,0.981c-0.259,0-0.501-0.099-0.684-0.28c-0.184-0.185-0.284-0.426-0.284-0.684
	s0.101-0.5,0.282-0.682l3.195-3.204C69.11-4.05,69.353-4.15,69.61-4.15c0.256,0,0.497,0.099,0.68,0.278
	c0.378,0.38,0.378,0.991,0.004,1.366l-3.196,3.205C66.92,0.878,66.672,0.981,66.418,0.981z M5.586,0.981
	c-0.259,0-0.501-0.101-0.684-0.284L1.706-2.506C1.331-2.882,1.332-3.494,1.708-3.869C1.891-4.051,2.132-4.15,2.389-4.15
	c0.259,0,0.501,0.101,0.683,0.283l3.196,3.204c0.181,0.18,0.282,0.422,0.282,0.68c0,0.259-0.101,0.501-0.284,0.684
	C6.086,0.879,5.838,0.981,5.586,0.981z M52.459-8.35c-0.116,0-0.234-0.022-0.352-0.066c-0.508-0.212-0.74-0.777-0.537-1.268
	l0.865-2.084c0.151-0.363,0.501-0.597,0.89-0.597c0.128,0,0.252,0.025,0.369,0.075c0.235,0.097,0.423,0.282,0.521,0.52
	c0.099,0.237,0.1,0.499,0.001,0.736l-0.863,2.087C53.208-8.59,52.849-8.35,52.459-8.35z M19.538-8.35
	c-0.389,0-0.738-0.233-0.89-0.594l-0.863-2.089c-0.203-0.493,0.032-1.058,0.522-1.259c0.117-0.048,0.24-0.072,0.366-0.072
	c0.397,0,0.748,0.236,0.893,0.602l0.863,2.078c0.098,0.238,0.098,0.5-0.001,0.739s-0.285,0.424-0.522,0.522
	C19.794-8.375,19.666-8.35,19.538-8.35z M36-11.617c-0.531,0-0.963-0.434-0.963-0.967v-4.525c0-0.531,0.432-0.963,0.963-0.963
	s0.963,0.432,0.963,0.963v4.525C36.963-12.05,36.531-11.617,36-11.617z"/>
<linearGradient id="SVGID_1_" gradientUnits="userSpaceOnUse" x1="879.0889" y1="568.6514" x2="844.7514" y2="534.3139" gradientTransform="matrix(1 0 0 1 -825.9199 -522.3203)">
	<stop  offset="0" style="stop-color:#0ED0FF"/>
	<stop  offset="1" style="stop-color:#42D67E"/>
</linearGradient>
<path fill="url(#SVGID_1_)" d="M66.208,21.905c-0.392-0.391-1.022-0.391-1.414,0L59.898,26.8
	C58.708,14.576,48.374,4.989,35.84,4.989c-8.598,0-16.621,4.63-20.939,12.084c-0.277,0.479-0.114,1.09,0.364,1.367
	c0.477,0.274,1.089,0.113,1.366-0.364C20.593,11.237,27.953,6.989,35.84,6.989c11.385,0,20.788,8.624,22.031,19.68L53.1,21.904
	c-0.392-0.39-1.024-0.392-1.414,0.001c-0.392,0.391-0.392,1.023,0,1.414l6.558,6.549c0.194,0.195,0.45,0.293,0.707,0.293
	c0.011,0,0.021-0.006,0.032-0.006s0.021,0.006,0.031,0.006c0.361,0,0.666-0.203,0.84-0.491l6.354-6.351
	C66.6,22.929,66.6,22.295,66.208,21.905z M56.734,39.89c-0.479-0.277-1.09-0.115-1.365,0.363
	c-3.967,6.836-11.327,11.084-19.215,11.084c-11.384,0-20.787-8.627-22.028-19.688L18.9,36.42c0.391,0.39,1.023,0.392,1.414-0.002
	c0.391-0.391,0.391-1.022,0-1.414l-6.559-6.551c-0.204-0.204-0.474-0.295-0.74-0.286c-0.012,0-0.021-0.007-0.033-0.007
	c-0.365,0-0.671,0.206-0.846,0.498l-6.344,6.347c-0.391,0.393-0.391,1.024,0,1.414c0.196,0.196,0.453,0.294,0.708,0.294
	s0.512-0.098,0.707-0.293l4.893-4.894c1.192,12.225,11.524,21.811,24.055,21.811c8.599,0,16.623-4.629,20.945-12.082
	C57.377,40.778,57.214,40.166,56.734,39.89z M37.959,34.582c-0.583,0.424-1.404,0.646-2.45,0.646c-0.884,0-1.647-0.113-2.277-0.346
	c-0.629-0.229-1.258-0.628-1.88-1.178l-0.457,0.867c0.582,0.55,1.259,0.962,2.016,1.232c0.63,0.219,1.354,0.327,2.138,0.364v1.867
	h0.72v-1.854c0.771-0.028,1.476-0.158,2.065-0.418c0.672-0.291,1.189-0.693,1.546-1.214c0.373-0.521,0.558-1.114,0.558-1.798
	c0-0.711-0.195-1.271-0.573-1.693c-0.394-0.422-0.856-0.729-1.412-0.934c-0.55-0.195-1.308-0.421-2.266-0.656l-0.461-0.104
	c-0.984-0.235-1.739-0.521-2.249-0.854c-0.518-0.337-0.776-0.851-0.776-1.548c0-0.803,0.294-1.426,0.89-1.872
	c0.578-0.458,1.402-0.685,2.454-0.685c0.725,0,1.406,0.125,1.999,0.368c0.607,0.248,1.195,0.631,1.79,1.162l0.459-0.867
	c-0.532-0.531-1.161-0.936-1.883-1.213c-0.657-0.248-1.378-0.375-2.14-0.399v-1.996h-0.72v1.998
	c-0.69,0.047-1.312,0.188-1.845,0.422c-0.674,0.291-1.19,0.703-1.553,1.243c-0.367,0.534-0.552,1.148-0.552,1.859
	c0,0.759,0.206,1.377,0.616,1.832c0.416,0.453,0.916,0.789,1.517,1.013c0.601,0.223,1.378,0.451,2.338,0.659
	c0.746,0.162,1.323,0.324,1.765,0.482c0.431,0.166,0.794,0.387,1.074,0.678s0.429,0.656,0.429,1.115
	C38.837,33.549,38.547,34.147,37.959,34.582z"/>
</svg>
