<svg version="1.1" id="Layer_1" xmlns="http://www.w3.org/2000/svg" xmlns:xlink="http://www.w3.org/1999/xlink" x="0px" y="0px"
	 width="104px" height="80px" viewBox="-16 -24 104 80" enable-background="new -16 -24 104 80" xml:space="preserve">
<path class="hidden" d="M79.003,31.392c-0.531,0-0.963-0.432-0.963-0.963s0.432-0.964,0.963-0.964h4.533
	c0.531,0,0.964,0.433,0.964,0.964s-0.433,0.963-0.964,0.963H79.003z M-11.537,31.392c-0.531,0-0.963-0.432-0.963-0.963
	s0.432-0.964,0.963-0.964h4.529c0.533,0,0.967,0.433,0.967,0.964s-0.434,0.963-0.967,0.963H-11.537z M75.734,14.93
	c-0.392,0-0.741-0.235-0.89-0.599c-0.199-0.49,0.034-1.053,0.521-1.255l2.094-0.863c0.118-0.048,0.241-0.073,0.367-0.073
	c0.392,0,0.74,0.233,0.889,0.595c0.2,0.489-0.032,1.053-0.52,1.256l-2.093,0.867C75.981,14.907,75.859,14.93,75.734,14.93z
	 M-3.736,14.929c-0.124,0-0.246-0.023-0.362-0.069l-2.097-0.868c-0.487-0.204-0.722-0.766-0.526-1.254
	c0.153-0.366,0.502-0.598,0.894-0.598c0.128,0,0.253,0.025,0.372,0.074l2.087,0.859c0.487,0.204,0.722,0.767,0.527,1.255
	C-2.999,14.697-3.348,14.929-3.736,14.929z M66.418,0.981c-0.259,0-0.501-0.099-0.684-0.28c-0.184-0.185-0.284-0.426-0.284-0.684
	s0.101-0.5,0.282-0.682l3.195-3.204C69.11-4.05,69.353-4.15,69.61-4.15c0.256,0,0.497,0.099,0.68,0.278
	c0.378,0.38,0.378,0.991,0.004,1.366l-3.196,3.205C66.92,0.878,66.672,0.981,66.418,0.981z M5.586,0.981
	c-0.259,0-0.501-0.101-0.684-0.284L1.706-2.506C1.331-2.882,1.332-3.494,1.708-3.869C1.891-4.051,2.132-4.15,2.389-4.15
	c0.259,0,0.501,0.101,0.683,0.283l3.196,3.204c0.181,0.18,0.282,0.422,0.282,0.68c0,0.259-0.101,0.501-0.284,0.684
	C6.086,0.879,5.838,0.981,5.586,0.981z M52.459-8.35c-0.116,0-0.234-0.022-0.352-0.066c-0.508-0.212-0.74-0.777-0.537-1.268
	l0.865-2.084c0.151-0.363,0.501-0.597,0.89-0.597c0.128,0,0.252,0.025,0.369,0.075c0.235,0.097,0.423,0.282,0.521,0.52
	c0.099,0.237,0.1,0.499,0.001,0.736l-0.863,2.087C53.208-8.59,52.849-8.35,52.459-8.35z M19.538-8.35
	c-0.389,0-0.738-0.233-0.89-0.594l-0.863-2.089c-0.203-0.493,0.032-1.058,0.522-1.259c0.117-0.048,0.24-0.072,0.366-0.072
	c0.397,0,0.748,0.236,0.893,0.602l0.863,2.078c0.098,0.238,0.098,0.5-0.001,0.739s-0.285,0.424-0.522,0.522
	C19.794-8.375,19.666-8.35,19.538-8.35z M36-11.617c-0.531,0-0.963-0.434-0.963-0.967v-4.525c0-0.531,0.432-0.963,0.963-0.963
	s0.963,0.432,0.963,0.963v4.525C36.963-12.05,36.531-11.617,36-11.617z"/>
<linearGradient id="SVGID_1_" gradientUnits="userSpaceOnUse" x1="470.9258" y1="-264.5078" x2="427.795" y2="-221.3771" gradientTransform="matrix(1 0 0 -1 -412.96 -218.6602)">
	<stop  offset="0" style="stop-color:#0ED0FF"/>
	<stop  offset="1" style="stop-color:#42D67E"/>
</linearGradient>
<path fill="url(#SVGID_1_)" d="M26.134,37.491c0.729,0,1.396-0.179,1.981-0.531c1.233-0.741,1.941-2.162,1.994-3.993
	c0.053-1.763-0.51-3.711-1.584-5.492c-1.681-2.791-4.273-4.594-6.602-4.594c-0.729,0-1.396,0.18-1.979,0.53
	c-2.48,1.498-2.664,5.752-0.411,9.486C21.216,35.688,23.807,37.491,26.134,37.491z M20.396,24.163
	c0.444-0.269,0.959-0.403,1.526-0.403c1.998,0,4.348,1.673,5.852,4.167c0.989,1.637,1.506,3.418,1.46,5.015
	c-0.044,1.523-0.605,2.684-1.573,3.268c-0.445,0.269-0.959,0.405-1.527,0.405c-0.508,0-1.041-0.112-1.576-0.314
	c0.511-0.02,0.981-0.149,1.395-0.4c0.935-0.563,1.473-1.631,1.516-3.008c0.036-1.308-0.379-2.753-1.175-4.071
	c-1.245-2.07-3.176-3.407-4.917-3.407c-0.552,0-1.058,0.136-1.504,0.404c-0.43,0.257-0.762,0.635-1.016,1.088
	C18.998,25.69,19.511,24.7,20.396,24.163z M20.327,26.568c0.306-0.183,0.659-0.279,1.05-0.279c1.418,0,3.09,1.201,4.167,2.985
	c0.71,1.173,1.081,2.451,1.046,3.59c-0.029,1.071-0.418,1.88-1.088,2.285c-0.307,0.186-0.66,0.279-1.053,0.279
	c-1.238,0-2.672-0.917-3.734-2.339c-0.146-0.21-0.297-0.419-0.433-0.644c-0.706-1.175-1.08-2.453-1.044-3.59
	C19.269,27.785,19.657,26.972,20.327,26.568z M23.812,33.831c0.267,0,0.513-0.066,0.727-0.194c0.486-0.293,0.745-0.859,0.731-1.595
	c-0.016-0.648-0.241-1.371-0.643-2.034c-0.865-1.438-2.337-2.17-3.25-1.614c-0.937,0.563-0.975,2.158-0.088,3.627
	C21.949,33.121,22.939,33.831,23.812,33.831z M21.83,29.144c0.079-0.045,0.166-0.067,0.273-0.067c0.453,0,1.2,0.431,1.772,1.383
	c0.319,0.526,0.506,1.111,0.516,1.599c0.009,0.403-0.103,0.703-0.306,0.825c-0.403,0.247-1.338-0.143-2.047-1.315
	C21.394,30.499,21.396,29.405,21.83,29.144z M52.785,30.434c-0.215-0.104-0.475-0.121-0.78-0.049
	c-0.306,0.071-0.724,0.198-1.259,0.384l-0.254,0.093c-0.55,0.197-0.967,0.285-1.252,0.27c-0.28-0.015-0.427-0.218-0.427-0.604
	c0-0.443,0.163-0.886,0.492-1.332c0.328-0.442,0.786-0.84,1.367-1.189c0.401-0.241,0.771-0.392,1.106-0.458
	c0.336-0.063,0.667-0.048,0.993,0.052l0.254-0.632c-0.296-0.121-0.641-0.134-1.047-0.05c-0.363,0.08-0.757,0.248-1.183,0.488v-1.105
	l-0.397,0.236v1.116c-0.383,0.254-0.729,0.527-1.028,0.834c-0.368,0.385-0.656,0.784-0.858,1.202
	c-0.201,0.413-0.303,0.817-0.303,1.211c0,0.423,0.116,0.695,0.339,0.808c0.231,0.117,0.512,0.137,0.844,0.066
	c0.33-0.073,0.76-0.21,1.297-0.414c0.407-0.15,0.731-0.251,0.97-0.308c0.244-0.056,0.443-0.052,0.6,0.015
	c0.156,0.068,0.238,0.229,0.238,0.483c0,0.432-0.163,0.863-0.486,1.296c-0.324,0.432-0.779,0.822-1.361,1.17
	c-0.492,0.292-0.911,0.479-1.257,0.56c-0.354,0.081-0.699,0.069-1.049-0.029l-0.253,0.631c0.327,0.114,0.701,0.12,1.117,0.018
	c0.353-0.086,0.752-0.265,1.189-0.507v1.036l0.399-0.238v-1.031c0.43-0.271,0.811-0.571,1.142-0.911
	c0.37-0.381,0.658-0.774,0.859-1.184c0.202-0.408,0.309-0.801,0.309-1.182C53.107,30.79,53,30.541,52.785,30.434z M23.521,32.555
	l0.261-0.838c-0.621-0.194-1.089-1.028-1.089-1.938h-0.877C21.816,31.098,22.517,32.241,23.521,32.555z M12.225,10.504L37.582,25.34
	v24.252h0.873v-24.25l21.754-12.562l-0.439-0.757L38.018,24.582L12.67,9.747L12.225,10.504z M34.607-6.307L9.276,8.276v4.631
	L8.5,12.453v6.532l0.776,0.451v4.873L8.5,23.855v6.536l0.776,0.45v6.353l2.731,1.59v2.11l3.107,1.77l0.434-0.763l-2.662-1.514V39.29
	l21.811,12.661v2.158L38.014,56l3.852-2.078v-2.246l17.688-10.12v1.317l-2.662,1.519l0.434,0.763l3.104-1.77v-2.334l3.071-1.754
	V10.376L34.607-6.307z M9.356,13.941l3.947,2.311v4.533l-3.947-2.289V13.941z M12.887,26.42v-4.889l1.273,0.741v-6.509l-1.273-0.746
	v-1.915l22.4,13.107V47.67l-22.4-13.005v-1.729l1.273,0.738v-6.506L12.887,26.42z M12.007,21.022v4.887l-0.976-0.572v-4.879
	L12.007,21.022z M9.356,25.345l3.947,2.31v4.535l-3.947-2.292V25.345z M40.986,53.395l-2.964,1.604L35.574,53.6v-1.139l2.44,1.418
	l2.973-1.703V53.395z M61.748,38.279L38.02,51.851L11.031,36.184v-4.326l0.976,0.569v2.745l24.156,14.022V25.708L12.007,11.575
	v2.931l-0.976-0.573V9.291L34.606-4.281l27.142,15.668V38.279L61.748,38.279z"/>
</svg>
