<svg xmlns="http://www.w3.org/2000/svg" width="90" height="90" viewBox="-35 -35 90 90"><linearGradient id="a" gradientUnits="userSpaceOnUse" x1="-11.382" y1="10" x2="31.382" y2="10"><stop offset="0" stop-color="#0ed0ff"/><stop offset="1" stop-color="#42d67e"/></linearGradient><path fill="url(#a)" d="M10.15 41.915c-.515 0-1.038-.02-1.563-.059-3.001-.228-5.218-1.059-5.786-2.171-.223-.437-.2-.912.063-1.34.86-1.402 4.128-2.029 6.984-2.029.516 0 1.04.019 1.566.059 3.002.228 5.219 1.06 5.786 2.171.223.437.201.912-.063 1.34-.858 1.401-4.127 2.029-6.987 2.029zm-.302-4.599c-3.242 0-5.664.789-6.133 1.553-.094.153-.077.256-.023.361.331.647 2.145 1.415 4.972 1.628.5.038.998.057 1.487.057 3.245 0 5.668-.789 6.135-1.553.096-.154.079-.256.024-.361-.33-.647-2.144-1.415-4.972-1.628-.501-.039-1-.057-1.49-.057zm.611 9.093c-.001 0 0 0 0 0-1.566 0-3.146-.06-4.693-.178-8.616-.652-15.162-2.99-16.676-5.954-.478-.937-.429-1.922.142-2.85 2.025-3.299 10.376-5.604 20.307-5.604 1.567 0 3.147.06 4.696.178 8.618.652 15.164 2.989 16.677 5.954.478.936.428 1.92-.143 2.847-2.025 3.302-10.377 5.607-20.31 5.607zm-.921-14.085c-9.61 0-17.972 2.257-19.881 5.365-.48.782-.521 1.577-.122 2.36 1.414 2.77 7.952 5.053 16.268 5.684 1.536.116 3.103.176 4.655.176 9.614 0 17.977-2.258 19.885-5.368.481-.782.522-1.575.123-2.358-1.413-2.769-7.951-5.053-16.269-5.683a62.165 62.165 0 0 0-4.659-.176zm.463-5.048L-4.035 11.087c-4.65-4.019-7.347-9.911-7.347-16.115 0-11.789 9.593-21.381 21.383-21.381 11.789 0 21.381 9.592 21.381 21.381a21.373 21.373 0 0 1-7.394 16.165L10.001 27.276zm0-52.685c-11.239 0-20.383 9.143-20.383 20.381 0 5.913 2.57 11.53 7.052 15.41L10.001 25.75l13.282-15.318c4.529-3.931 7.099-9.547 7.099-15.46 0-11.239-9.143-20.381-20.381-20.381zm.976 3.039v-.5a19.431 19.431 0 0 0-16.884 9.856l.436.246a18.93 18.93 0 0 1 16.448-9.602zm-.976 27.173c-4.884 0-8.857-3.974-8.857-8.857 0-4.885 3.974-8.858 8.857-8.858s8.857 3.974 8.857 8.858c0 4.883-3.973 8.857-8.857 8.857zm0-16.716c-4.333 0-7.857 3.525-7.857 7.858s3.524 7.857 7.857 7.857 7.857-3.524 7.857-7.857-3.524-7.858-7.857-7.858z"/></svg>