<svg xmlns="http://www.w3.org/2000/svg" width="90" height="90" viewBox="-35 -35 90 90"><linearGradient id="a" gradientUnits="userSpaceOnUse" x1="-29.444" y1="10" x2="49.444" y2="10"><stop offset="0" stop-color="#0ed0ff"/><stop offset="1" stop-color="#42d67e"/></linearGradient><path fill="url(#a)" d="M2.017 25.341l1-.137-10.815 8.282a.5.5 0 0 1-.701-.092L-29.341 6.178a.505.505 0 0 1-.099-.37.505.505 0 0 1 .192-.331l14.925-11.429.09.561.09.561-14.1 10.796 20.234 26.421 9.026-6.911 1-.135zm-22.151-15.004a.252.252 0 0 0 .35.047l7.204-5.516-.09-.561-7.417 5.68a.25.25 0 0 0-.047.35zm2.505 3.27a.252.252 0 0 0 .199.099.256.256 0 0 0 .152-.052l5.442-4.167-.09-.561-5.656 4.331a.25.25 0 0 0-.047.35zm2.505 3.271a.252.252 0 0 0 .199.099.245.245 0 0 0 .151-.052l3.682-2.818-.09-.562-3.896 2.983a.25.25 0 0 0-.046.35zm8.009 9.751l-.469.075c.048.05.108.086.173.086a.255.255 0 0 0 .152-.051l.144-.11zM-10.73-10.24l23.786-3.282 1.15 8.34.509.03.509.03-1.246-9.032a.502.502 0 0 0-.563-.427L-8.97-11.492l-2.391.33a.503.503 0 0 0-.428.563l4.687 33.957a.5.5 0 0 0 .563.428l3.181-.439 11.702-1.84v-.784L-6.18 22.728l-4.55-32.968zM9.895-8.767a.25.25 0 0 0-.281-.213l-15.8 2.18a.25.25 0 1 0 .035.498l.034-.002 15.8-2.18a.25.25 0 0 0 .212-.283zM-5.026 1.862a.388.388 0 0 0 .034-.002l15.8-2.181a.251.251 0 0 0 .214-.282.251.251 0 0 0-.282-.213l-15.8 2.181a.25.25 0 0 0 .034.497zm2.006 16.109a.25.25 0 0 0 .281.214l11.082-1.529v-.506l-11.15 1.538a.25.25 0 0 0-.213.283zm37.089 8.331l-.679 7.24L9.485 31.3l3.106-33.133L36.253.385l.338-.47.338-.471L23.234-1.84 12.69-2.829l-.504-.047a.5.5 0 0 0-.545.451l-.536 5.717-15.602 2.153a.249.249 0 0 0-.212.282.25.25 0 0 0 .247.216l.034-.002 15.486-2.137-.743 7.917-13.685 1.887a.25.25 0 1 0 .034.498c.012 0 .023-.002.035-.003l13.569-1.873-.291 3.11-.578 6.166-.008.08-.261 2.787-.688 7.33a.5.5 0 0 0 .451.545l24.902 2.335.047.002a.498.498 0 0 0 .498-.453l.874-9.325-.572.746-.573.749zm-1.984-21.76a.25.25 0 0 0 .023-.499l-15.88-1.489c-.135-.005-.26.088-.271.226a.249.249 0 0 0 .225.272l15.88 1.489a.17.17 0 0 0 .023.001zM30.75 8.054L15.844 6.657c-.136-.008-.26.088-.272.226s.088.259.226.272l14.615 1.37.337-.471zm-2.782 3.877L15.46 10.759a.25.25 0 0 0-.046.498l12.217 1.145.337-.471zm-2.782 3.877l-10.11-.947c-.137-.004-.26.088-.273.226a.25.25 0 0 0 .227.272l9.819.92.337-.471zm-1.044 4.041l-9.452-.886a.255.255 0 0 0-.272.226.249.249 0 0 0 .226.272l9.452.886.046-.498zm-.385 4.102l-9.451-.886c-.137-.009-.26.088-.272.226s.089.259.226.272l9.451.886.046-.498zm-10.108 3.442a.249.249 0 0 0 .225.272l9.452.887.046-.498-9.451-.887a.251.251 0 0 0-.272.226zM49.438.54a.503.503 0 0 1-.086.374l-.882 1.243L33.636 23.06c-.023.032-.059.049-.088.074-.023.021-.039.051-.066.066l-6.641 3.918a.504.504 0 0 1-.543-.024.497.497 0 0 1-.201-.506l1.502-7.563.003-.006a.503.503 0 0 1 .081-.186l14.83-20.904.882-1.243a.499.499 0 0 1 .697-.118L49.234.214a.51.51 0 0 1 .204.326zM32.31 22.731l-.177-.125-3.704-2.628-.577 2.904 1.299.921-.964 1.359.039-.023.939-1.326.019.014.017.012.018.012.016.012.018.012.016.012.017.012.017.012.017.012.017.012.017.012.019.014.015.01.019.014.017.012.017.012.017.012.017.012.017.012.017.012.017.012.017.012.019.014.017.012.017.012.016.012.018.012.017.012.016.012.018.012.016.012.018.012.016.012.02.014.014.01.008.006 2.537-1.514zM47.653 1.578l.594-.836-4.326-3.068-.592.836-14.542 20.495 4.322 3.067L47.653 1.578zm-2.502.032L32.908 18.866a.25.25 0 0 0 .409.29L45.56 1.899a.25.25 0 1 0-.409-.289z"/></svg>