<?xml version="1.0" encoding="utf-8"?>
<!-- Generator: Adobe Illustrator 16.0.0, SVG Export Plug-In . SVG Version: 6.00 Build 0)  -->
<!DOCTYPE svg PUBLIC "-//W3C//DTD SVG 1.1//EN" "http://www.w3.org/Graphics/SVG/1.1/DTD/svg11.dtd">
<svg version="1.1" id="Layer_1" xmlns="http://www.w3.org/2000/svg" xmlns:xlink="http://www.w3.org/1999/xlink" x="0px" y="0px"
	 width="90px" height="90px" viewBox="-35 -35 90 90" enable-background="new -35 -35 90 90" xml:space="preserve">
<path fill="#BFC2C4" d="M10.15,41.915c-0.515,0-1.038-0.02-1.563-0.059c-3.001-0.228-5.218-1.059-5.786-2.171
	c-0.223-0.437-0.2-0.912,0.063-1.34c0.86-1.402,4.128-2.029,6.984-2.029c0.516,0,1.04,0.019,1.566,0.059
	c3.002,0.228,5.219,1.06,5.786,2.171c0.223,0.437,0.201,0.912-0.063,1.34C16.279,41.287,13.01,41.915,10.15,41.915z M9.848,37.316
	c-3.242,0-5.664,0.789-6.133,1.553c-0.094,0.153-0.077,0.256-0.023,0.361c0.331,0.647,2.145,1.415,4.972,1.628
	c0.5,0.038,0.998,0.057,1.487,0.057c3.245,0,5.668-0.789,6.135-1.553c0.096-0.154,0.079-0.256,0.024-0.361
	c-0.33-0.647-2.144-1.415-4.972-1.628C10.837,37.334,10.338,37.316,9.848,37.316z M10.459,46.409
	C10.458,46.409,10.459,46.409,10.459,46.409c-1.566,0-3.146-0.06-4.693-0.178c-8.616-0.652-15.162-2.99-16.676-5.954
	c-0.478-0.937-0.429-1.922,0.142-2.85c2.025-3.299,10.376-5.604,20.307-5.604c1.567,0,3.147,0.06,4.696,0.178
	c8.618,0.652,15.164,2.989,16.677,5.954c0.478,0.936,0.428,1.92-0.143,2.847C28.744,44.104,20.392,46.409,10.459,46.409z
	 M9.538,32.324c-9.61,0-17.972,2.257-19.881,5.365c-0.48,0.782-0.521,1.577-0.122,2.36c1.414,2.77,7.952,5.053,16.268,5.684
	c1.536,0.116,3.103,0.176,4.655,0.176c9.614,0,17.977-2.258,19.885-5.368c0.481-0.782,0.522-1.575,0.123-2.358
	c-1.413-2.769-7.951-5.053-16.269-5.683C12.66,32.384,11.093,32.324,9.538,32.324z M10.001,27.276L-4.035,11.087
	c-4.65-4.019-7.347-9.911-7.347-16.115c0-11.789,9.593-21.381,21.383-21.381c11.789,0,21.381,9.592,21.381,21.381
	c0,6.203-2.694,12.096-7.394,16.165L10.001,27.276z M10.001-25.409c-11.239,0-20.383,9.143-20.383,20.381
	c0,5.913,2.57,11.53,7.052,15.41L10.001,25.75l13.282-15.318c4.529-3.931,7.099-9.547,7.099-15.46
	C30.382-16.267,21.239-25.409,10.001-25.409z M10.977-22.37v-0.5c-6.976,0-13.445,3.776-16.884,9.856l0.436,0.246
	C-2.122-18.69,4.181-22.37,10.977-22.37z M10.001,4.803c-4.884,0-8.857-3.974-8.857-8.857c0-4.885,3.974-8.858,8.857-8.858
	s8.857,3.974,8.857,8.858C18.858,0.829,14.885,4.803,10.001,4.803z M10.001-11.913c-4.333,0-7.857,3.525-7.857,7.858
	s3.524,7.857,7.857,7.857s7.857-3.524,7.857-7.857S14.334-11.913,10.001-11.913z"/>
</svg>
