<svg xmlns="http://www.w3.org/2000/svg" width="90" height="90" viewBox="-35 -35 90 90"><path fill="#BFC2C4" d="M37.467-6.302h-54.934a.5.5 0 0 0-.5.5v31.604a.5.5 0 0 0 .5.5h54.934a.5.5 0 0 0 .5-.5V-5.802a.5.5 0 0 0-.5-.5zm-4.221 32.294a.25.25 0 0 1-.177-.427l.264-.264h-2.109l-.617.617c-.049.049-.112.073-.177.073s-.128-.024-.177-.073a.25.25 0 0 1 0-.354l.264-.264H28.41l-.617.617c-.049.049-.112.073-.177.073s-.128-.024-.177-.073a.25.25 0 0 1 0-.354l.264-.264h-2.108l-.617.617a.25.25 0 0 1-.354 0 .25.25 0 0 1 0-.354l.264-.264h-2.109l-.617.617a.249.249 0 0 1-.354 0 .25.25 0 0 1 0-.354l.264-.264h-2.108l-.617.617a.249.249 0 0 1-.354 0 .25.25 0 0 1 0-.354l.264-.264h-2.108l-.617.617a.249.249 0 0 1-.354 0 .25.25 0 0 1 0-.354l.264-.264h-2.107l-.617.617a.25.25 0 0 1-.354 0 .25.25 0 0 1 0-.354l.264-.264h-2.109l-.617.617a.249.249 0 0 1-.354 0 .25.25 0 0 1 0-.354l.264-.264H8.699l-.617.617a.249.249 0 0 1-.354 0 .25.25 0 0 1 0-.354l.264-.264H5.884l-.617.617a.249.249 0 0 1-.354 0 .25.25 0 0 1 0-.354l.264-.264H3.068l-.617.617a.25.25 0 0 1-.354 0c-.097-.087-.097-.245.001-.343l.264-.264H.253l-.617.617a.249.249 0 0 1-.354 0 .25.25 0 0 1 0-.354l.264-.264h-2.108l-.617.617a.249.249 0 0 1-.354 0 .25.25 0 0 1 0-.354l.264-.264h-2.109l-.617.617a.249.249 0 0 1-.354 0 .25.25 0 0 1 0-.354l.264-.264h-2.108l-.617.617a.25.25 0 0 1-.354-.354l.264-.264h-2.107l-.617.617a.249.249 0 0 1-.354 0 .25.25 0 0 1 0-.354l.264-.264h-2.109l-.617.617a.249.249 0 0 1-.354 0 .25.25 0 0 1 0-.354l.264-.264h-2.108l-.617.617a.249.249 0 0 1-.354 0 .25.25 0 0 1 0-.354l.645-.646V-5.302H36.97v30.604h-2.93l-.617.617a.247.247 0 0 1-.177.073zM32.204.098a.25.25 0 0 1-.25.25H9.222a.25.25 0 1 1 0-.5h22.732a.25.25 0 0 1 .25.25zm0 5.24a.25.25 0 0 1-.25.25H9.222a.25.25 0 0 1 0-.5h22.732a.25.25 0 0 1 .25.25zm0 5.455a.25.25 0 0 1-.25.25h-17.2a.25.25 0 1 1 0-.5h17.2a.25.25 0 0 1 .25.25zm0 2.553a.25.25 0 0 1-.25.25H16.721c-.139 0-.25-.111-.25-.25s.111-.25.25-.25h15.233a.25.25 0 0 1 .25.25zm0 2.55a.25.25 0 0 1-.25.25h-17.2a.25.25 0 1 1 0-.5h17.2a.25.25 0 0 1 .25.25zm-30.12.218h-1V12.52c0-.807-.325-1.537-.847-2.075.266-.201.516-.419.747-.658a3.962 3.962 0 0 1 1.1 2.733v3.594zM-9.13 12.52v3.595h-1V12.52c0-1.274.612-2.398 1.546-3.128.211.258.446.495.694.717a2.973 2.973 0 0 0-1.24 2.411zm5.507-2.678c2.484 0 4.505-2.021 4.505-4.504S-1.139.834-3.623.834c-2.483 0-4.504 2.021-4.504 4.504s2.021 4.504 4.504 4.504zm0-8.008A3.508 3.508 0 0 1-.118 5.338a3.508 3.508 0 0 1-3.505 3.504 3.507 3.507 0 0 1-3.504-3.504 3.508 3.508 0 0 1 3.504-3.504zM4.7-1.332h-17.445a.25.25 0 0 0-.25.25v17.446c0 .138.111.25.25.25H4.7a.25.25 0 0 0 .25-.25V-1.082a.25.25 0 0 0-.25-.25zM1.084 16.364v-.25H-9.13v.25h-1v-.25h-2.365V-.832H4.45v16.946H2.084v.25h-1zm1-.25v.25h-1v-.25h1zm0 0v.25h-1v-.25h1zm-12.214 0h1v.25h-1v-.25zm0 0h1v.25h-1v-.25zm-4.304 6.981l-2.207 2.207h-.326v-.382l2.18-2.179a.25.25 0 1 1 .353.354zm-2.533 2.207h.326l-.617.617a.249.249 0 0 1-.354 0 .25.25 0 0 1 0-.354l.645-.646v.383zm0 0h.326l-.617.617a.249.249 0 0 1-.354 0 .25.25 0 0 1 0-.354l.645-.646v.383zm5.349-2.207l-2.207 2.207h-.707l2.561-2.561a.25.25 0 1 1 .353.354zm-2.914 2.207h.707l-.617.617a.249.249 0 0 1-.354 0 .25.25 0 0 1 0-.354l.264-.263zm0 0h.707l-.617.617a.249.249 0 0 1-.354 0 .25.25 0 0 1 0-.354l.264-.263zm5.729-2.207l-2.206 2.207h-.707l2.56-2.561a.25.25 0 1 1 .353.354zm-2.913 2.207h.707l-.617.617a.249.249 0 0 1-.354 0 .25.25 0 0 1 0-.354l.264-.263zm0 0h.707l-.617.617a.249.249 0 0 1-.354 0 .25.25 0 0 1 0-.354l.264-.263zm5.729-2.207l-2.207 2.207h-.707l2.561-2.561a.25.25 0 1 1 .353.354zm-2.914 2.207h.707l-.617.617a.25.25 0 0 1-.354-.354l.264-.263zm0 0h.707l-.617.617a.25.25 0 0 1-.354-.354l.264-.263zm5.73-2.207l-2.208 2.207h-.707l2.562-2.561a.25.25 0 1 1 .353.354zm-2.915 2.207h.707l-.617.617a.249.249 0 0 1-.354 0 .25.25 0 0 1 0-.354l.264-.263zm0 0h.707l-.617.617a.249.249 0 0 1-.354 0 .25.25 0 0 1 0-.354l.264-.263zm5.731-2.207l-2.207 2.207h-.708l2.561-2.561a.25.25 0 1 1 .354.354zm-2.915 2.207h.707l-.617.617a.249.249 0 0 1-.354 0 .25.25 0 0 1 0-.354l.264-.263zm0 0h.707l-.617.617a.249.249 0 0 1-.354 0 .25.25 0 0 1 0-.354l.264-.263zm5.73-2.207L.253 25.302h-.707l2.561-2.561a.25.25 0 1 1 .353.354zm-2.914 2.207h.707l-.617.617a.249.249 0 0 1-.354 0 .25.25 0 0 1 0-.354l.264-.263zm0 0h.707l-.617.617a.249.249 0 0 1-.354 0 .25.25 0 0 1 0-.354l.264-.263zm5.729-2.207l-2.207 2.207h-.707l2.561-2.561a.25.25 0 1 1 .353.354zm-2.914 2.207h.707l-.617.617a.25.25 0 0 1-.354 0 .25.25 0 0 1 .001-.354l.263-.263zm0 0h.707l-.617.617a.25.25 0 0 1-.354 0 .25.25 0 0 1 .001-.354l.263-.263zm5.731-2.207l-2.208 2.207h-.707l2.562-2.561a.25.25 0 1 1 .353.354zm-2.915 2.207h.707l-.617.617a.249.249 0 0 1-.354 0 .25.25 0 0 1 0-.354l.264-.263zm0 0h.707l-.617.617a.249.249 0 0 1-.354 0 .25.25 0 0 1 0-.354l.264-.263zm5.729-2.207l-2.207 2.207h-.707l2.561-2.561a.25.25 0 1 1 .353.354zm-2.914 2.207h.707l-.617.617a.249.249 0 0 1-.354 0 .25.25 0 0 1 0-.354l.264-.263zm0 0h.707l-.617.617a.249.249 0 0 1-.354 0 .25.25 0 0 1 0-.354l.264-.263zm5.731-2.207l-2.207 2.207h-.707l2.561-2.561a.25.25 0 1 1 .353.354zm-2.914 2.207h.707l-.617.617a.249.249 0 0 1-.354 0 .25.25 0 0 1 0-.354l.264-.263zm0 0h.707l-.617.617a.249.249 0 0 1-.354 0 .25.25 0 0 1 0-.354l.264-.263zm5.729-2.207l-2.206 2.207h-.707l2.56-2.561a.25.25 0 1 1 .353.354zm-2.913 2.207h.707l-.617.617a.25.25 0 0 1-.354 0 .25.25 0 0 1 0-.354l.264-.263zm0 0h.707l-.617.617a.25.25 0 0 1-.354 0 .25.25 0 0 1 0-.354l.264-.263zm5.729-2.207l-2.207 2.207h-.707L19 22.741a.25.25 0 1 1 .354.354zm-2.915 2.207h.707l-.617.617a.249.249 0 0 1-.354 0 .25.25 0 0 1 0-.354l.264-.263zm0 0h.707l-.617.617a.249.249 0 0 1-.354 0 .25.25 0 0 1 0-.354l.264-.263zm5.73-2.207l-2.207 2.207h-.707l2.561-2.561a.25.25 0 1 1 .353.354zm-2.914 2.207h.707l-.617.617a.249.249 0 0 1-.354 0 .25.25 0 0 1 0-.354l.264-.263zm0 0h.707l-.617.617a.249.249 0 0 1-.354 0 .25.25 0 0 1 0-.354l.264-.263zm5.729-2.207l-2.207 2.207h-.707l2.561-2.561a.25.25 0 1 1 .353.354zm-2.914 2.207h.707l-.617.617a.249.249 0 0 1-.354 0 .25.25 0 0 1 0-.354l.264-.263zm0 0h.707l-.617.617a.249.249 0 0 1-.354 0 .25.25 0 0 1 0-.354l.264-.263zm5.73-2.207l-2.206 2.207h-.707l2.56-2.561a.25.25 0 1 1 .353.354zm-2.913 2.207h.707l-.617.617a.25.25 0 0 1-.354 0 .25.25 0 0 1 0-.354l.264-.263zm0 0h.707l-.617.617a.25.25 0 0 1-.354 0 .25.25 0 0 1 0-.354l.264-.263zm5.728-2.207l-2.206 2.207h-.707l2.56-2.561a.25.25 0 1 1 .353.354zm-2.913 2.207h.707l-.617.617c-.049.049-.112.073-.177.073s-.128-.024-.177-.073a.25.25 0 0 1 0-.354l.264-.263zm0 0h.707l-.617.617c-.049.049-.112.073-.177.073s-.128-.024-.177-.073a.25.25 0 0 1 0-.354l.264-.263zm5.73-2.207l-2.208 2.207h-.707l2.562-2.561a.25.25 0 1 1 .353.354zm-2.915 2.207h.707l-.617.617c-.049.049-.112.073-.177.073s-.128-.024-.177-.073a.25.25 0 0 1 0-.354l.264-.263zm0 0h.707l-.617.617c-.049.049-.112.073-.177.073s-.128-.024-.177-.073a.25.25 0 0 1 0-.354l.264-.263zm3.523 0h-.707l2.561-2.561a.25.25 0 1 1 .354.354l-2.208 2.207zm-.617.617c-.049.049-.112.073-.177.073s-.128-.024-.177-.073a.25.25 0 0 1 0-.354l.264-.264h.707l-.617.618zm0 0c-.049.049-.112.073-.177.073s-.128-.024-.177-.073a.25.25 0 0 1 0-.354l.264-.264h.707l-.617.618z"/></svg>