<?xml version="1.0" encoding="utf-8"?>
<!-- Generator: Adobe Illustrator 16.0.0, SVG Export Plug-In . SVG Version: 6.00 Build 0)  -->
<!DOCTYPE svg PUBLIC "-//W3C//DTD SVG 1.1//EN" "http://www.w3.org/Graphics/SVG/1.1/DTD/svg11.dtd">
<svg version="1.1" id="Layer_1" xmlns="http://www.w3.org/2000/svg" xmlns:xlink="http://www.w3.org/1999/xlink" x="0px" y="0px"
	 width="90px" height="90px" viewBox="-35 -35 90 90" enable-background="new -35 -35 90 90" xml:space="preserve">
<path fill="#BFC2C4" d="M2.017,25.341l1-0.137l-10.815,8.282c-0.09,0.069-0.198,0.103-0.304,0.103c-0.15,0-0.299-0.066-0.397-0.195
	L-29.341,6.178c-0.08-0.105-0.116-0.238-0.099-0.37c0.018-0.131,0.087-0.25,0.192-0.331l14.925-11.429l0.09,0.561l0.09,0.561
	L-28.243,5.966l20.234,26.421l9.026-6.911L2.017,25.341z M-20.134,10.337c0.05,0.064,0.124,0.098,0.199,0.098
	c0.053,0,0.106-0.017,0.151-0.051l7.204-5.516l-0.09-0.561l-7.417,5.68C-20.197,10.07-20.218,10.228-20.134,10.337z M-17.629,13.607
	c0.049,0.064,0.124,0.099,0.199,0.099c0.053,0,0.106-0.018,0.152-0.052l5.442-4.167l-0.09-0.561l-5.656,4.331
	C-17.692,13.341-17.713,13.498-17.629,13.607z M-15.124,16.878c0.049,0.064,0.124,0.099,0.199,0.099
	c0.053,0,0.106-0.017,0.151-0.052l3.682-2.818l-0.09-0.562l-3.896,2.983C-15.187,16.612-15.208,16.769-15.124,16.878z
	 M-7.115,26.629l-0.469,0.075c0.048,0.05,0.108,0.086,0.173,0.086c0.053,0,0.106-0.017,0.152-0.051L-7.115,26.629z M-10.73-10.24
	l23.786-3.282l1.15,8.34l0.509,0.03l0.509,0.03l-1.246-9.032c-0.018-0.131-0.088-0.25-0.193-0.33
	c-0.105-0.081-0.238-0.116-0.37-0.097l-22.385,3.089l-2.391,0.33c-0.131,0.018-0.25,0.087-0.331,0.193
	c-0.08,0.105-0.114,0.239-0.097,0.37l4.687,33.957c0.018,0.132,0.088,0.25,0.193,0.33c0.087,0.066,0.193,0.102,0.302,0.102
	c0.023,0,0.046-0.001,0.068-0.004l3.181-0.439l11.702-1.84v-0.784l-14.524,2.005L-10.73-10.24z M9.895-8.767
	C9.876-8.904,9.748-9,9.614-8.98l-15.8,2.18c-0.137,0.019-0.232,0.145-0.213,0.282c0.017,0.125,0.125,0.216,0.248,0.216
	c0.011,0,0.022-0.001,0.034-0.002l15.8-2.18C9.819-8.503,9.915-8.63,9.895-8.767z M-5.026,1.862c0.011,0,0.023-0.001,0.034-0.002
	l15.8-2.181c0.137-0.019,0.232-0.145,0.214-0.282c-0.02-0.137-0.15-0.234-0.282-0.213l-15.8,2.181
	c-0.137,0.019-0.232,0.145-0.213,0.282C-5.256,1.771-5.149,1.862-5.026,1.862z M-3.02,17.971c0.017,0.125,0.124,0.216,0.247,0.216
	c0.011,0,0.023-0.001,0.034-0.002l11.082-1.529V16.15l-11.15,1.538C-2.944,17.708-3.04,17.834-3.02,17.971z M34.069,26.302
	l-0.679,7.24L9.485,31.3l3.106-33.133l23.662,2.218l0.338-0.47l0.338-0.471L23.234-1.84L12.69-2.829l-0.504-0.047
	c-0.279-0.023-0.52,0.176-0.545,0.451l-0.536,5.717L-4.497,5.445C-4.633,5.464-4.729,5.59-4.709,5.727
	c0.017,0.125,0.124,0.216,0.247,0.216c0.011,0,0.022-0.001,0.034-0.002l15.486-2.137l-0.743,7.917L-3.37,13.608
	c-0.137,0.019-0.232,0.145-0.213,0.281c0.017,0.125,0.124,0.217,0.247,0.217c0.012,0,0.023-0.002,0.035-0.003l13.569-1.873
	l-0.291,3.11l-0.578,6.166l-0.008,0.08l-0.261,2.787l-0.688,7.33c-0.025,0.275,0.176,0.52,0.451,0.545l24.902,2.335
	c0.016,0.001,0.031,0.002,0.047,0.002c0.116,0,0.229-0.04,0.319-0.115c0.102-0.085,0.166-0.206,0.179-0.338l0.874-9.325
	l-0.572,0.746L34.069,26.302z M32.085,4.542c0.127,0,0.236-0.097,0.248-0.227c0.014-0.138-0.088-0.259-0.225-0.272L16.228,2.554
	c-0.135-0.005-0.26,0.088-0.271,0.226c-0.014,0.138,0.088,0.259,0.225,0.272l15.88,1.489C32.069,4.542,32.077,4.542,32.085,4.542z
	 M30.75,8.054L15.844,6.657c-0.136-0.008-0.26,0.088-0.272,0.226s0.088,0.259,0.226,0.272l14.615,1.37L30.75,8.054z M27.968,11.931
	L15.46,10.759c-0.137-0.01-0.26,0.089-0.272,0.226c-0.013,0.138,0.089,0.259,0.226,0.272l12.217,1.145L27.968,11.931z
	 M25.186,15.808l-10.11-0.947c-0.137-0.004-0.26,0.088-0.273,0.226c-0.012,0.138,0.089,0.259,0.227,0.272l9.819,0.92L25.186,15.808z
	 M24.142,19.849l-9.452-0.886c-0.136-0.007-0.26,0.089-0.272,0.226c-0.013,0.138,0.088,0.26,0.226,0.272l9.452,0.886L24.142,19.849z
	 M23.757,23.951l-9.451-0.886c-0.137-0.009-0.26,0.088-0.272,0.226s0.089,0.259,0.226,0.272l9.451,0.886L23.757,23.951z
	 M13.649,27.393c-0.014,0.138,0.088,0.259,0.225,0.272l9.452,0.887l0.046-0.498l-9.451-0.887
	C13.785,27.156,13.661,27.255,13.649,27.393z M49.438,0.54c0.022,0.131-0.009,0.265-0.086,0.374L48.47,2.157L33.636,23.06
	c-0.023,0.032-0.059,0.049-0.088,0.074c-0.023,0.021-0.039,0.051-0.066,0.066l-6.641,3.918c-0.079,0.046-0.167,0.068-0.254,0.068
	c-0.102,0-0.203-0.03-0.289-0.092c-0.162-0.113-0.24-0.313-0.201-0.506l1.502-7.563c0-0.002,0.002-0.004,0.003-0.006
	c0.014-0.064,0.04-0.129,0.081-0.186l14.83-20.904l0.882-1.243c0.159-0.225,0.473-0.279,0.697-0.118l5.142,3.646
	C49.342,0.292,49.415,0.409,49.438,0.54z M32.31,22.731l-0.177-0.125l-3.704-2.628l-0.577,2.904l1.299,0.921l-0.964,1.359
	l0.039-0.023l0.939-1.326l0.019,0.014l0.017,0.012l0.018,0.012l0.016,0.012l0.018,0.012l0.016,0.012l0.017,0.012l0.017,0.012
	l0.017,0.012l0.017,0.012l0.017,0.012l0.019,0.014l0.015,0.01l0.019,0.014l0.017,0.012l0.017,0.012l0.017,0.012l0.017,0.012
	l0.017,0.012l0.017,0.012l0.017,0.012l0.017,0.012l0.019,0.014l0.017,0.012l0.017,0.012l0.016,0.012l0.018,0.012l0.017,0.012
	l0.016,0.012l0.018,0.012l0.016,0.012l0.018,0.012l0.016,0.012l0.02,0.014l0.014,0.01l0.008,0.006L32.31,22.731z M47.653,1.578
	l0.594-0.836l-4.326-3.068L43.329-1.49L28.787,19.005l4.322,3.067L47.653,1.578z M45.151,1.61L32.908,18.866
	c-0.079,0.112-0.054,0.269,0.06,0.349c0.044,0.03,0.094,0.046,0.145,0.046c0.078,0,0.155-0.037,0.204-0.105L45.56,1.899
	c0.08-0.112,0.053-0.269-0.06-0.349C45.388,1.473,45.231,1.497,45.151,1.61z"/>
</svg>
