<svg xmlns="http://www.w3.org/2000/svg" width="90" height="90" viewBox="-35 -35 90 90"><path fill="#BFC2C4" d="M43.589 21.268H28.433a.443.443 0 0 1 0-.886h14.713V-9.947H-2.258v6.006a.443.443 0 1 1-.886 0v-6.449c0-.245.199-.443.443-.443h46.29c.245 0 .443.198.443.443v31.214a.444.444 0 0 1-.443.444zM40.424 1.211v-8a.222.222 0 0 0-.222-.222h-7.521c-.123 0-.223.1-.223.222v8c0 .123.1.222.223.222h7.521a.221.221 0 0 0 .222-.222zm-7.522-7.777h7.078V.99h-7.078v-7.556zm7.454 14.305a.221.221 0 0 0-.222-.222H28.433a.221.221 0 1 0 0 .443h11.702a.22.22 0 0 0 .221-.221zm0 3.795a.222.222 0 0 0-.222-.222H28.433c-.122 0-.222.1-.222.222s.1.222.222.222h11.702c.123 0 .221-.1.221-.222zm0 3.795a.222.222 0 0 0-.222-.222H28.433c-.122 0-.222.1-.222.222s.1.222.222.222h11.702c.123 0 .221-.1.221-.222zM25.512 30.966V4.813a.443.443 0 1 0-.885 0v25.711h-45.404V4.815a.443.443 0 1 0-.886 0v26.15c0 .245.198.443.443.443h46.29a.441.441 0 0 0 .442-.442zm-.336.09a.221.221 0 0 0-.038-.238l-12.731-14.09a.222.222 0 1 0-.329.296l12.397 13.72h-45.102l12.362-13.68a.222.222 0 1 0-.329-.297l-12.696 14.05c-.059.065-.074.158-.038.238s.115.132.203.132h46.1a.217.217 0 0 0 .201-.131zM2.22 21.21L25.757.082a.442.442 0 0 0-.296-.773h-47.075a.443.443 0 0 0-.296.773L1.628 21.21a.444.444 0 0 0 .592 0zM24.304.195l-22.38 20.09L-20.457.195h44.761z"/></svg>