<svg xmlns="http://www.w3.org/2000/svg" width="90" height="90" viewBox="-35 -35 90 90"><linearGradient id="a" gradientUnits="userSpaceOnUse" x1="-15.452" y1="10" x2="35.452" y2="10"><stop offset="0" stop-color="#0ed0ff"/><stop offset="1" stop-color="#42d67e"/></linearGradient><path fill="url(#a)" d="M9.725 44.059c-9.154 0-22.773-1.167-22.773-4.384v-4.079c0-2.41 1.697-4.662 4.908-6.513 1.182-.681 2.464-1.129 3.704-1.563 1.4-.489 2.723-.952 3.92-1.722 1.794-1.152 2.96-3.302 2.985-5.491-8.087-2.716-14.031-9.819-15.273-18.248-1.534-.367-2.647-1.742-2.647-3.344s1.113-2.978 2.647-3.346c1.636-11.101 11.256-19.428 22.529-19.428 11.235 0 20.835 8.277 22.515 19.327a3.459 3.459 0 0 1 3.213 3.446 3.458 3.458 0 0 1-3.213 3.445c-1.275 8.384-7.206 15.441-15.259 18.146a6.773 6.773 0 0 0 4.732 6.403c.038.012 4.467 1.562 5.877 2.373 3.211 1.851 4.908 4.103 4.908 6.513v4.079c0 3.219-13.619 4.386-22.773 4.386zM3.459 20.614c-.122 2.444-1.414 4.727-3.435 6.025-1.297.832-2.737 1.337-4.131 1.824-1.197.419-2.435.852-3.534 1.486-2.011 1.158-4.408 3.078-4.408 5.646v4.079c0 1.38 8.482 3.384 21.773 3.384s21.773-2.004 21.773-3.384v-4.079c0-2.567-2.397-4.487-4.408-5.646-1.241-.716-5.41-2.199-5.681-2.287a7.767 7.767 0 0 1-5.42-7.049 22.81 22.81 0 0 1-6.112.872l-.108.001h-.056a23.092 23.092 0 0 1-6.253-.872zm6.139-.127h.086a22.636 22.636 0 0 0 2.981-.199 21.57 21.57 0 0 0 3.685-.831.638.638 0 0 1 .059-.015c7.939-2.558 13.774-9.524 14.893-17.78a.522.522 0 0 1 .003-.079c.129-.977.193-1.938.194-2.856v-.001a21.825 21.825 0 0 0-.195-2.881.49.49 0 0 1-.005-.085C29.843-14.975 20.583-23.059 9.725-23.059c-10.866 0-20.127 8.091-21.577 18.835a.476.476 0 0 1-.003.084 21.978 21.978 0 0 0-.193 2.843c.001.939.065 1.896.192 2.865a.543.543 0 0 1 .004.081c1.113 8.262 6.948 15.234 14.895 17.793.02.004.038.009.058.015a21.69 21.69 0 0 0 6.497 1.03zm22.9-21.784c0 .824-.043 1.638-.128 2.438a2.457 2.457 0 0 0 2.082-2.426 2.458 2.458 0 0 0-2.082-2.427c.085.799.128 1.608.128 2.415 0-.001 0-.001 0 0zm-45.436-2.242c-.896.371-1.514 1.25-1.514 2.254s.618 1.882 1.514 2.253a22.946 22.946 0 0 1-.11-2.24v-.001c-.001-.766.036-1.522.11-2.266zM9.725 7.572C4.841 7.572.868 3.598.868-1.285c0-4.885 3.974-8.858 8.857-8.858s8.857 3.974 8.857 8.858-3.974 8.857-8.857 8.857zm0-16.716c-4.333 0-7.857 3.525-7.857 7.858s3.524 7.857 7.857 7.857 7.857-3.524 7.857-7.857-3.524-7.858-7.857-7.858zm0-11.023v-.5a19.431 19.431 0 0 0-16.884 9.856l.436.246a18.93 18.93 0 0 1 16.448-9.602zm0 13.544v-.5a5.833 5.833 0 0 0-5.652 4.375l.484.125a5.332 5.332 0 0 1 5.168-4zM26.26 36.994l-.094-.49c-4.202.806-10.195 1.268-16.441 1.268s-12.24-.462-16.442-1.268l-.094.49c4.231.812 10.259 1.277 16.535 1.277s12.304-.465 16.536-1.277zm-10.697-8.649l-.094-.49c-1.463.281-3.557.442-5.744.442s-4.281-.161-5.744-.442l-.094.49c1.492.287 3.62.452 5.838.452s4.345-.165 5.838-.452z"/></svg>