<?xml version="1.0" encoding="utf-8"?>
<!-- Generator: Adobe Illustrator 16.0.0, SVG Export Plug-In . SVG Version: 6.00 Build 0)  -->
<!DOCTYPE svg PUBLIC "-//W3C//DTD SVG 1.1//EN" "http://www.w3.org/Graphics/SVG/1.1/DTD/svg11.dtd">
<svg version="1.1" id="Layer_1" xmlns="http://www.w3.org/2000/svg" xmlns:xlink="http://www.w3.org/1999/xlink" x="0px" y="0px"
	 width="90px" height="90px" viewBox="-35 -35 90 90" enable-background="new -35 -35 90 90" xml:space="preserve">
<linearGradient id="SVGID_1_" gradientUnits="userSpaceOnUse" x1="-22.0576" y1="10.2881" x2="44.0322" y2="10.2881">
	<stop  offset="0" style="stop-color:#0ED0FF"/>
	<stop  offset="1" style="stop-color:#42D67E"/>
</linearGradient>
<path fill="url(#SVGID_1_)" d="M43.589,21.268H28.433c-0.245,0-0.443-0.199-0.443-0.443c0-0.245,0.198-0.443,0.443-0.443h14.713
	V-9.947H-2.258v6.006c0,0.245-0.198,0.443-0.443,0.443c-0.245,0-0.443-0.198-0.443-0.443v-6.449c0-0.245,0.199-0.443,0.443-0.443
	h46.29c0.245,0,0.443,0.198,0.443,0.443v31.214C44.032,21.068,43.834,21.268,43.589,21.268z M40.424,1.211v-8
	c0-0.122-0.099-0.222-0.222-0.222h-7.521c-0.123,0-0.223,0.1-0.223,0.222v8c0,0.123,0.1,0.222,0.223,0.222h7.521
	C40.325,1.433,40.424,1.334,40.424,1.211z M32.902-6.566h7.078V0.99h-7.078V-6.566z M40.356,7.739c0-0.123-0.099-0.222-0.222-0.222
	H28.433c-0.122,0-0.222,0.099-0.222,0.222s0.1,0.221,0.222,0.221h11.702C40.258,7.96,40.356,7.861,40.356,7.739z M40.356,11.534
	c0-0.122-0.099-0.222-0.222-0.222H28.433c-0.122,0-0.222,0.1-0.222,0.222s0.1,0.222,0.222,0.222h11.702
	C40.258,11.756,40.356,11.656,40.356,11.534z M40.356,15.329c0-0.122-0.099-0.222-0.222-0.222H28.433
	c-0.122,0-0.222,0.1-0.222,0.222s0.1,0.222,0.222,0.222h11.702C40.258,15.551,40.356,15.451,40.356,15.329z M25.512,30.966V4.813
	c0-0.245-0.198-0.443-0.443-0.443c-0.244,0-0.442,0.198-0.442,0.443v25.711h-45.404V4.815c0-0.245-0.198-0.443-0.443-0.443
	s-0.443,0.198-0.443,0.443v26.15c0,0.245,0.198,0.443,0.443,0.443h46.29C25.313,31.409,25.512,31.211,25.512,30.966z M25.176,31.056
	c0.035-0.08,0.021-0.173-0.038-0.238l-12.731-14.09c-0.082-0.092-0.223-0.098-0.313-0.017c-0.091,0.082-0.098,0.223-0.016,0.313
	l12.397,13.72h-45.102l12.362-13.68c0.082-0.09,0.075-0.23-0.016-0.313c-0.091-0.081-0.231-0.076-0.313,0.016l-12.696,14.05
	c-0.059,0.065-0.074,0.158-0.038,0.238s0.115,0.132,0.203,0.132h46.1C25.062,31.188,25.141,31.136,25.176,31.056z M2.22,21.21
	L25.757,0.082c0.137-0.123,0.184-0.317,0.118-0.488c-0.066-0.171-0.23-0.285-0.414-0.285h-47.075c-0.184,0-0.348,0.113-0.414,0.285
	c-0.065,0.171-0.019,0.366,0.118,0.488L1.628,21.21c0.084,0.075,0.19,0.113,0.296,0.113C2.029,21.323,2.136,21.285,2.22,21.21z
	 M24.304,0.195l-22.38,20.09l-22.381-20.09H24.304z"/>
</svg>
