<?xml version="1.0" encoding="utf-8"?>
<!-- Generator: Adobe Illustrator 16.0.0, SVG Export Plug-In . SVG Version: 6.00 Build 0)  -->
<!DOCTYPE svg PUBLIC "-//W3C//DTD SVG 1.1//EN" "http://www.w3.org/Graphics/SVG/1.1/DTD/svg11.dtd">
<svg version="1.1" id="Layer_1" xmlns="http://www.w3.org/2000/svg" xmlns:xlink="http://www.w3.org/1999/xlink" x="0px" y="0px"
	 width="30px" height="30px" viewBox="-5 -5 30 30" enable-background="new -5 -5 30 30" xml:space="preserve">
<path fill="#FFFFFF" d="M12.625,10l4.514-4.452c0.725-0.714,0.732-1.881,0.018-2.606c-0.715-0.726-1.883-0.732-2.606-0.018L10,7.412
	L5.451,2.925C4.726,2.209,3.558,2.217,2.843,2.942s-0.706,1.892,0.02,2.606L7.375,10l-4.513,4.452
	c-0.726,0.715-0.734,1.881-0.02,2.605c0.361,0.366,0.838,0.549,1.313,0.549c0.468,0,0.936-0.176,1.295-0.53L10,12.589l4.55,4.487
	c0.358,0.354,0.827,0.53,1.294,0.53c0.477,0,0.951-0.183,1.313-0.549c0.715-0.725,0.707-1.891-0.018-2.605L12.625,10z"/>
</svg>
