<svg class="injected-svg inject-me" width="125px" height="35px" enable-background="new -22.5 -5.5 125 35" version="1.1" viewBox="-22.5 -5.5 125 35" xml:space="preserve" xmlns="http://www.w3.org/2000/svg">
            <path d="m6.203 14.816c0.325-0.721 1.064-1.842-0.292-3.008-3e-3 -0.039-7e-3 -0.078-0.013-0.125-0.063-0.453-0.085-0.557-0.997-0.361 0 0-6.842 2.141-7.343 2.152-0.497 0.016 2.745-1.654 3.776-2.82 1.029-1.162 3.394-3.724 2.934-5.392-0.07-0.16-0.175-0.215-0.268-0.231-0.143-0.33-0.457-0.811-1.123-1.383-1.327-1.136-2.038-0.658-2.538 0.12-0.498 0.775-1.207 2.582-3.294 3.13-2.085 0.553-4.581 1.575-4.572 2.088 4e-3 0.279 0.981 1.377 2.722 1.113 1.125-0.173 2.352-0.265 3.555-0.765-2.731 2.217-6.067 4.775-8.691 6.332 0 0-1.494 0.783-1.981 1.311-0.228 0.252 0.071 0.654 1.004 1.006 1.107 0.416 1.582 0.26 3.595-0.441 1.2-0.422 2.075-0.549 4.011-1.201-2.958 2.129-7.027 5.303-10.528 7.385-4.585 2.725-9.056 5.021-8.632 5.531 0.425 0.512 0.967 0.168 2.565-0.551 1.599-0.719 7.881-4.297 12.508-6.584 4.624-2.279 5.181-3.086 8.462-4.232 2.312-0.804 4.86-2.449 5.14-3.074zm6.039-4.511c0.715-0.18 1.715-1.781 1.419-2.961-0.283-1.135-0.504-2.648 3.032-6.309 0.137-0.143 0.194-0.289-0.109-0.279-0.231 0.012-1.381 0.055-3.512 1.271-2.323 1.318-3.826 4.68-3.331 6.672 0.496 1.994 1.788 1.783 2.501 1.606zm7.786 1.836s-3.846 0.754-4.33 0.818c-0.485 0.064-0.224-0.258 0.667-1.486 0.885-1.232 2.257-4.533 1.652-6.111-0.177-0.305-0.447-0.166-0.447-0.166s-3.32 6.752-12.555 12.182c0 0-1.143 0.787-1.382 1.443-0.243 0.658-0.499 0.998 1.106 1.586 1.084 0.395 1.15 0.121 3.039-0.752 1.889-0.875 3.082-2.211 10.28-5.1 3.208-1.287 4.076-1.109 3.861-2.08-0.105-0.436-1.022-0.608-1.891-0.334zm9.371-12.641s-0.14-0.641-1.508-1.209c-1.371-0.564-1.818 0.014-2.013 0.768-0.197 0.758-0.291 2.398-1.825 3.393-1.535 0.996-3.273 2.479-3.128 2.889 0.078 0.223 1.155 0.85 2.487 0.174 0.567-0.285 1.175-0.553 1.765-0.91-0.876 3.746-1.11 7.141-1.611 8.836-0.559 1.896 0.414 3.402 0.725 2.164 0.313-1.24 2.981-9.498 3.737-11.063 0.456-0.951 1.348-2.326 1.192-3.658 0.261-0.335 0.38-0.765 0.179-1.384zm55.019 1.789c0.502 0 0.888-0.123 1.159-0.369s0.407-0.549 0.407-0.906c0-0.35-0.136-0.648-0.407-0.896-0.271-0.25-0.657-0.373-1.159-0.373-0.493 0-0.873 0.123-1.139 0.373-0.268 0.248-0.401 0.547-0.401 0.896 0 0.357 0.134 0.66 0.401 0.906 0.266 0.246 0.646 0.369 1.139 0.369zm15.546 4.971c-0.078 0.145-0.174 0.26-0.283 0.348-0.109 0.086-0.229 0.15-0.358 0.189-0.127 0.039-0.259 0.057-0.393 0.057-0.399 0-0.707-0.113-0.922-0.344-0.213-0.23-0.328-0.648-0.345-1.254h4.837c8e-3 -0.602-0.068-1.15-0.227-1.643-0.16-0.492-0.406-0.912-0.746-1.262-0.339-0.35-0.774-0.623-1.309-0.818s-1.171-0.293-1.913-0.293c-0.604 0-1.156 0.078-1.659 0.232s-0.939 0.383-1.309 0.686c-0.178 0.146-0.334 0.313-0.476 0.494v-1.136h-3.404v2.264c0.261 0 0.431 0.039 0.505 0.119 0.076 0.078 0.083 0.193 0.021 0.344l-0.696 1.873h-0.092l-0.659-1.873c-0.063-0.158-0.056-0.275 0.02-0.35 0.076-0.076 0.244-0.113 0.505-0.113v-2.264h-10.638v-2.266h-2.237c0 0.342-0.051 0.664-0.154 0.965-0.104 0.303-0.252 0.568-0.441 0.803-0.188 0.234-0.415 0.416-0.679 0.549-0.263 0.133-0.547 0.199-0.852 0.199v2.014h0.959v1.623h-0.575v0.762c0 0.293-0.025 0.5-0.075 0.621-0.053 0.119-0.141 0.18-0.266 0.18-0.161 0-0.252-0.066-0.276-0.199-0.024-0.131-0.037-0.383-0.037-0.752v-2.39c0-0.287-0.049-0.574-0.149-0.859-0.099-0.285-0.283-0.539-0.549-0.762-0.269-0.225-0.641-0.408-1.122-0.551-0.48-0.143-1.101-0.213-1.859-0.213-0.636 0-1.179 0.063-1.628 0.189-0.45 0.127-0.822 0.287-1.113 0.482s-0.505 0.416-0.646 0.662c-0.138 0.246-0.207 0.492-0.207 0.74 0 0.453 0.127 0.801 0.383 1.047 0.253 0.246 0.595 0.369 1.023 0.369 0.447 0 0.806-0.098 1.074-0.297 0.266-0.195 0.398-0.457 0.398-0.783 0-0.342-0.088-0.592-0.262-0.748-0.175-0.156-0.384-0.234-0.624-0.234-0.144 0-0.261 0.021-0.352 0.063-0.091 0.039-0.175 0.08-0.252 0.121l-0.063-0.061c0.055-0.041 0.116-0.086 0.186-0.137 0.068-0.051 0.156-0.098 0.262-0.139 0.105-0.039 0.233-0.076 0.382-0.105 0.148-0.031 0.327-0.047 0.534-0.047 0.438 0 0.749 0.092 0.942 0.277 0.192 0.186 0.287 0.432 0.287 0.736 0 0.342-0.109 0.605-0.329 0.793-0.222 0.188-0.498 0.34-0.832 0.457s-0.697 0.219-1.092 0.303c-0.394 0.084-0.757 0.191-1.09 0.324-0.293 0.115-0.534 0.271-0.739 0.461h-2.129c-0.025 0.219-0.076 0.4-0.156 0.545-0.078 0.145-0.175 0.262-0.285 0.348-0.109 0.088-0.228 0.15-0.355 0.189-0.13 0.039-0.261 0.059-0.395 0.059-0.399 0-0.706-0.115-0.921-0.346-0.214-0.23-0.329-0.648-0.345-1.254h4.834c9e-3 -0.602-0.066-1.148-0.225-1.641s-0.408-0.914-0.746-1.264-0.774-0.623-1.309-0.818-1.172-0.291-1.913-0.291c-0.603 0-1.156 0.076-1.659 0.23-0.504 0.154-0.939 0.383-1.31 0.688-0.188 0.154-0.353 0.328-0.498 0.521-0.015-0.105-0.036-0.211-0.065-0.314-0.061-0.219-0.16-0.41-0.299-0.576-0.137-0.168-0.321-0.301-0.546-0.4-0.228-0.1-0.497-0.148-0.812-0.148-0.53 0-0.96 0.164-1.292 0.494-0.332 0.328-0.569 0.816-0.712 1.457h-0.104l0.104-1.678h-3.543c-0.101-0.459-0.253-0.934-0.46-1.426-0.406-0.957-1.081-1.852-2.027-2.682-0.946-0.832-2.187-1.521-3.721-2.076-1.539-0.553-3.423-0.83-5.656-0.83-2.103 0-4.034 0.27-5.791 0.809-0.158 0.049-0.311 0.102-0.464 0.154v23.521c0.088 0.029 0.172 0.059 0.261 0.086 1.693 0.512 3.513 0.768 5.46 0.768 3.882 0 6.872-0.756 8.968-2.268 1.577-1.139 2.689-2.742 3.338-4.816v0.068h0.324c0.143 0 0.27 0.033 0.382 0.1 0.111 0.066 0.168 0.197 0.168 0.389v1.16c0 0.148-0.043 0.277-0.131 0.387-0.088 0.107-0.216 0.16-0.382 0.16h-0.36v2.266h5.146v-2.266h-0.366c-0.216 0-0.363-0.045-0.438-0.137-0.075-0.09-0.113-0.244-0.113-0.461v-1.396c0-0.42 0.05-0.727 0.148-0.922 0.101-0.195 0.193-0.293 0.279-0.293 0.041 0 0.055 0.014 0.043 0.043-0.013 0.029-0.037 0.074-0.07 0.137-0.035 0.063-0.068 0.145-0.103 0.244-0.032 0.1-0.049 0.221-0.049 0.363 0 0.293 0.118 0.543 0.353 0.75 0.232 0.209 0.556 0.313 0.963 0.313 0.293 0 0.54-0.047 0.739-0.139 0.068-0.031 0.125-0.068 0.184-0.107-0.016 0.16-0.027 0.324-0.027 0.496 0 0.625 0.11 1.168 0.325 1.621 0.217 0.453 0.515 0.828 0.896 1.129 0.381 0.299 0.823 0.521 1.329 0.666 0.507 0.146 1.046 0.223 1.62 0.223 0.559 0 1.065-0.051 1.52-0.145 0.453-0.096 0.853-0.252 1.195-0.471 0.342-0.217 0.622-0.504 0.84-0.857 0.219-0.354 0.367-0.791 0.449-1.318h-2.226c-0.024 0.221-0.075 0.404-0.155 0.547-0.078 0.145-0.175 0.26-0.286 0.35-0.109 0.086-0.228 0.148-0.355 0.188-0.129 0.039-0.26 0.059-0.395 0.059-0.399 0-0.705-0.115-0.921-0.344-0.213-0.23-0.328-0.648-0.344-1.254h4.834c8e-3 -0.502-0.057-0.955-0.166-1.381 0.015 8e-3 0.038 0.012 0.051 0.021 0.107 0.08 0.201 0.215 0.279 0.404l1.51 3.938h3.196l0.733-1.934 0.754 1.934h3.318l1.516-3.938c0.072-0.189 0.176-0.324 0.306-0.404s0.283-0.119 0.458-0.119v-2.264h-3.105v2.264c0.368 0 0.499 0.154 0.398 0.465l-0.574 1.873h-0.086l-0.538-1.873c-0.041-0.168-0.033-0.285 0.023-0.357 0.058-0.07 0.182-0.107 0.373-0.107v-2.264h-4.156v2.264c0.371 0 0.506 0.154 0.404 0.465l-0.575 1.873h-0.093l-0.538-1.873c-0.039-0.168-0.031-0.285 0.029-0.357 0.059-0.07 0.185-0.107 0.376-0.107v-2.264h-4.536v1.268c-0.102-0.15-0.202-0.301-0.327-0.432-0.339-0.35-0.775-0.621-1.311-0.816-0.533-0.195-1.171-0.295-1.911-0.295-0.604 0-1.157 0.078-1.66 0.232s-0.939 0.383-1.31 0.688c-0.188 0.154-0.353 0.328-0.497 0.521-0.016-0.107-0.037-0.211-0.066-0.314-0.061-0.219-0.16-0.41-0.299-0.576-0.138-0.168-0.32-0.301-0.547-0.4-0.227-0.102-0.496-0.15-0.81-0.15-0.53 0-0.962 0.166-1.293 0.494-0.332 0.33-0.569 0.816-0.712 1.459h-0.1l0.104-1.678h-3.143l1e-3 -4e-3h-6.887c-0.028 0.525-0.152 0.982-0.374 1.373-0.221 0.391-0.497 0.711-0.831 0.957-0.335 0.248-0.709 0.436-1.119 0.564-0.414 0.127-0.82 0.193-1.216 0.193-1.395 0-2.43-0.508-3.104-1.523-0.675-1.014-1.013-2.729-1.013-5.141 0-2.414 0.327-4.139 0.981-5.174 0.654-1.04 1.591-1.558 2.815-1.558 0.853 0 1.44 0.109 1.759 0.33 0.321 0.221 0.637 0.451 0.95 0.691-0.54 0.199-1.018 0.555-1.429 1.064-0.412 0.512-0.619 1.201-0.619 2.066 0 0.383 0.067 0.791 0.203 1.225 0.136 0.432 0.361 0.844 0.683 1.234 0.32 0.391 0.771 0.717 1.354 0.979 0.583 0.264 1.338 0.395 2.261 0.395 0.966 0 1.784-0.16 2.453-0.479 0.668-0.32 1.22-0.742 1.653-1.268 0.432-0.525 0.746-1.107 0.938-1.746 0.095-0.316 0.167-0.639 0.216-0.963h0.162c0.142 0 0.269 0.035 0.38 0.102 0.113 0.066 0.169 0.197 0.169 0.389v1.158c0 0.15-0.043 0.279-0.13 0.389-0.088 0.107-0.216 0.16-0.383 0.16h-0.36v2.266h5.147v-2.265h-0.367c-0.216 0-0.363-0.045-0.438-0.137s-0.113-0.246-0.113-0.461v-1.397c0-0.42 0.051-0.727 0.148-0.922 0.1-0.195 0.194-0.293 0.279-0.293 0.042 0 0.056 0.016 0.042 0.043-0.012 0.027-0.036 0.074-0.069 0.137-0.034 0.063-0.067 0.145-0.102 0.244-0.033 0.1-0.049 0.221-0.049 0.363 0 0.293 0.118 0.543 0.353 0.75 0.232 0.209 0.555 0.313 0.963 0.313 0.293 0 0.54-0.045 0.739-0.137 0.067-0.031 0.125-0.072 0.184-0.109-0.017 0.16-0.027 0.324-0.027 0.496 0 0.627 0.109 1.166 0.325 1.619 0.215 0.455 0.514 0.83 0.896 1.129 0.38 0.299 0.823 0.521 1.328 0.668 0.507 0.146 1.046 0.221 1.62 0.221 0.56 0 1.065-0.047 1.519-0.143 0.455-0.096 0.854-0.252 1.197-0.469 0.324-0.209 0.591-0.482 0.804-0.813 0.027 0.166 0.067 0.322 0.134 0.459 0.113 0.229 0.27 0.416 0.47 0.561 0.202 0.143 0.447 0.25 0.733 0.316 0.289 0.068 0.608 0.102 0.958 0.102 0.367 0 0.694-0.035 0.981-0.107 0.286-0.07 0.533-0.164 0.739-0.279 0.205-0.117 0.367-0.25 0.482-0.4 0.117-0.152 0.187-0.311 0.212-0.477h0.098c0 0.109 0.033 0.234 0.101 0.375s0.181 0.275 0.34 0.406c0.16 0.131 0.373 0.238 0.645 0.326 0.271 0.088 0.611 0.131 1.024 0.131 0.455 0 0.831-0.053 1.125-0.154 0.292-0.105 0.523-0.258 0.696-0.459 0.171-0.201 0.287-0.443 0.348-0.727 0.022-0.102 0.035-0.213 0.05-0.326 0 0 0 0.014 1e-3 0.02 0.056 0.342 0.175 0.637 0.353 0.885 0.18 0.248 0.442 0.443 0.789 0.586 0.346 0.141 0.812 0.213 1.393 0.213 0.527 0 0.963-0.074 1.309-0.221 0.348-0.146 0.62-0.344 0.822-0.592 0.148-0.182 0.255-0.4 0.338-0.633v1.158h5.148v-2.263h-0.167c-0.207 0-0.378-0.043-0.513-0.127-0.135-0.082-0.201-0.26-0.201-0.533v-1.53c0.192 0.016 0.331 0.055 0.415 0.117 0.111 0.082 0.21 0.215 0.297 0.398l1.636 3.938h3.573l1.637-3.938c0.082-0.189 0.185-0.326 0.306-0.404 0.013-8e-3 0.037-0.012 0.052-0.02-0.072 0.305-0.113 0.631-0.113 0.986 0 0.627 0.109 1.168 0.326 1.619 0.215 0.455 0.515 0.832 0.896 1.131s0.824 0.521 1.329 0.668c0.506 0.146 1.047 0.221 1.62 0.221 0.56 0 1.063-0.049 1.519-0.145s0.854-0.252 1.196-0.469c0.342-0.219 0.624-0.504 0.841-0.857 0.219-0.354 0.369-0.793 0.449-1.318h-2.227c-0.025 0.218-0.078 0.399-0.159 0.544zm-2.028-3.071c0.137-0.201 0.348-0.301 0.634-0.301 0.271 0 0.481 0.117 0.628 0.35 0.147 0.234 0.232 0.551 0.259 0.949h-1.793c0.044-0.462 0.135-0.796 0.272-0.998zm-33.9 0c0.137-0.201 0.347-0.301 0.632-0.301 0.274 0 0.483 0.117 0.63 0.35 0.147 0.234 0.233 0.551 0.257 0.949h-1.79c0.043-0.462 0.133-0.796 0.271-0.998zm0 9.043c0.137-0.199 0.347-0.301 0.632-0.301 0.274 0 0.483 0.117 0.63 0.35 0.147 0.234 0.233 0.551 0.257 0.949h-1.79c0.043-0.462 0.133-0.796 0.271-0.998zm8.397-6.318c0 0.27-0.061 0.477-0.181 0.625-0.119 0.148-0.275 0.223-0.468 0.223-0.211 0-0.354-0.053-0.427-0.16-0.074-0.107-0.111-0.23-0.111-0.363 0-0.176 0.047-0.314 0.138-0.418s0.201-0.193 0.324-0.27c0.124-0.074 0.254-0.152 0.39-0.232 0.135-0.078 0.245-0.184 0.335-0.313v0.908zm10.544-0.586c0 0.158-0.053 0.307-0.155 0.443-0.104 0.137-0.265 0.205-0.48 0.205h-0.038c4e-3 -0.084 0.013-0.166 0.013-0.25v-0.984h-0.701v0.91c0 0.127-7e-3 0.244-0.018 0.352-0.014 0.107-0.043 0.203-0.091 0.285-0.047 0.084-0.11 0.152-0.189 0.201-0.079 0.051-0.184 0.076-0.315 0.076-0.236 0-0.391-0.084-0.467-0.256-0.076-0.17-0.114-0.391-0.114-0.66v-1.873h1.816c0.194 0 0.366 0.057 0.517 0.17 0.148 0.111 0.221 0.285 0.221 0.521v0.859h1e-3z" fill="#3E3D40"></path>
                <path d="m83.509 10.592c-0.271-0.201-0.613-0.303-1.028-0.303 0.104-0.191 0.246-0.33 0.425-0.418 0.179-0.09 0.419-0.139 0.72-0.146v-0.971c-0.512 0.072-0.938 0.197-1.274 0.377-0.339 0.178-0.607 0.385-0.806 0.621s-0.336 0.492-0.414 0.766c-0.076 0.275-0.117 0.549-0.117 0.82 0 0.486 0.137 0.877 0.408 1.168 0.273 0.293 0.633 0.438 1.082 0.438 0.228 0 0.428-0.039 0.602-0.121 0.176-0.082 0.326-0.184 0.448-0.311 0.123-0.125 0.214-0.268 0.274-0.43 0.062-0.164 0.09-0.33 0.09-0.5-1e-3 -0.457-0.138-0.787-0.41-0.99z" fill="#3E3D40"></path>
            </svg>