<svg class="injected-svg inject-me" width="125" height="35" viewBox="-22.5 -5.5 125 35" xmlns="http://www.w3.org/2000/svg"><path d="M6.203 14.816c.325-.721 1.064-1.842-.292-3.008a2.436 2.436 0 0 0-.013-.125c-.063-.453-.085-.557-.997-.361 0 0-6.842 2.141-7.343 2.152-.497.016 2.745-1.654 3.776-2.82C2.363 9.492 4.728 6.93 4.268 5.262c-.07-.16-.175-.215-.268-.231-.143-.33-.457-.811-1.123-1.383C1.55 2.512.839 2.99.339 3.768c-.498.775-1.207 2.582-3.294 3.13-2.085.553-4.581 1.575-4.572 2.088.004.279.981 1.377 2.722 1.113 1.125-.173 2.352-.265 3.555-.765-2.731 2.217-6.067 4.775-8.691 6.332 0 0-1.494.783-1.981 1.311-.228.252.071.654 1.004 1.006 1.107.416 1.582.26 3.595-.441 1.2-.422 2.075-.549 4.011-1.201-2.958 2.129-7.027 5.303-10.528 7.385-4.585 2.725-9.056 5.021-8.632 5.531.425.512.967.168 2.565-.551 1.599-.719 7.881-4.297 12.508-6.584 4.624-2.279 5.181-3.086 8.462-4.232 2.312-.804 4.86-2.449 5.14-3.074zm6.039-4.511c.715-.18 1.715-1.781 1.419-2.961-.283-1.135-.504-2.648 3.032-6.309.137-.143.194-.289-.109-.279-.231.012-1.381.055-3.512 1.271-2.323 1.318-3.826 4.68-3.331 6.672.496 1.994 1.788 1.783 2.501 1.606zm7.786 1.836s-3.846.754-4.33.818c-.485.064-.224-.258.667-1.486.885-1.232 2.257-4.533 1.652-6.111-.177-.305-.447-.166-.447-.166s-3.32 6.752-12.555 12.182c0 0-1.143.787-1.382 1.443-.243.658-.499.998 1.106 1.586 1.084.395 1.15.121 3.039-.752 1.889-.875 3.082-2.211 10.28-5.1 3.208-1.287 4.076-1.109 3.861-2.08-.105-.436-1.022-.608-1.891-.334zM29.399-.5s-.14-.641-1.508-1.209c-1.371-.564-1.818.014-2.013.768-.197.758-.291 2.398-1.825 3.393-1.535.996-3.273 2.479-3.128 2.889.078.223 1.155.85 2.487.174.567-.285 1.175-.553 1.765-.91-.876 3.746-1.11 7.141-1.611 8.836-.559 1.896.414 3.402.725 2.164.313-1.24 2.981-9.498 3.737-11.063.456-.951 1.348-2.326 1.192-3.658.261-.335.38-.765.179-1.384zm55.019 1.789c.502 0 .888-.123 1.159-.369s.407-.549.407-.906c0-.35-.136-.648-.407-.896-.271-.25-.657-.373-1.159-.373-.493 0-.873.123-1.139.373a1.177 1.177 0 0 0-.401.896c0 .357.134.66.401.906.266.246.646.369 1.139.369zM99.964 6.26c-.078.145-.174.26-.283.348-.109.086-.229.15-.358.189a1.335 1.335 0 0 1-.393.057c-.399 0-.707-.113-.922-.344-.213-.23-.328-.648-.345-1.254h4.837a5.111 5.111 0 0 0-.227-1.643 3.195 3.195 0 0 0-.746-1.262c-.339-.35-.774-.623-1.309-.818s-1.171-.293-1.913-.293c-.604 0-1.156.078-1.659.232s-.939.383-1.309.686a3.134 3.134 0 0 0-.476.494V1.516h-3.404V3.78c.261 0 .431.039.505.119.076.078.083.193.021.344l-.696 1.873h-.092l-.659-1.873c-.063-.158-.056-.275.02-.35.076-.076.244-.113.505-.113V1.516H80.423V-.75h-2.237c0 .342-.051.664-.154.965a2.628 2.628 0 0 1-.441.803 2.036 2.036 0 0 1-.679.549 1.86 1.86 0 0 1-.852.199V3.78h.959v1.623h-.575v.762c0 .293-.025.5-.075.621-.053.119-.141.18-.266.18-.161 0-.252-.066-.276-.199-.024-.131-.037-.383-.037-.752v-2.39a2.58 2.58 0 0 0-.149-.859 1.742 1.742 0 0 0-.549-.762c-.269-.225-.641-.408-1.122-.551-.48-.143-1.101-.213-1.859-.213-.636 0-1.179.063-1.628.189-.45.127-.822.287-1.113.482s-.505.416-.646.662a1.498 1.498 0 0 0-.207.74c0 .453.127.801.383 1.047.253.246.595.369 1.023.369.447 0 .806-.098 1.074-.297a.923.923 0 0 0 .398-.783c0-.342-.088-.592-.262-.748a.908.908 0 0 0-.624-.234.843.843 0 0 0-.352.063c-.091.039-.175.08-.252.121l-.063-.061.186-.137a1.1 1.1 0 0 1 .262-.139 2.647 2.647 0 0 1 .916-.152c.438 0 .749.092.942.277.192.186.287.432.287.736 0 .342-.109.605-.329.793-.222.188-.498.34-.832.457s-.697.219-1.092.303a6.705 6.705 0 0 0-1.09.324 2.313 2.313 0 0 0-.739.461h-2.129c-.025.219-.076.4-.156.545a1.095 1.095 0 0 1-.64.537c-.13.039-.261.059-.395.059-.399 0-.706-.115-.921-.346-.214-.23-.329-.648-.345-1.254h4.834c.009-.602-.066-1.148-.225-1.641s-.408-.914-.746-1.264-.774-.623-1.309-.818-1.172-.291-1.913-.291c-.603 0-1.156.076-1.659.23a3.767 3.767 0 0 0-1.31.688 2.995 2.995 0 0 0-.498.521 2.43 2.43 0 0 0-.065-.314 1.516 1.516 0 0 0-.299-.576 1.437 1.437 0 0 0-.546-.4 2.006 2.006 0 0 0-.812-.148c-.53 0-.96.164-1.292.494-.332.328-.569.816-.712 1.457h-.104l.104-1.678h-3.543a8.255 8.255 0 0 0-.46-1.426c-.406-.957-1.081-1.852-2.027-2.682-.946-.832-2.187-1.521-3.721-2.076-1.539-.553-3.423-.83-5.656-.83-2.103 0-4.034.27-5.791.809-.158.049-.311.102-.464.154v23.521c.088.029.172.059.261.086 1.693.512 3.513.768 5.46.768 3.882 0 6.872-.756 8.968-2.268 1.577-1.139 2.689-2.742 3.338-4.816v.068h.324c.143 0 .27.033.382.1.111.066.168.197.168.389v1.16a.6.6 0 0 1-.131.387c-.088.107-.216.16-.382.16h-.36v2.266h5.146v-2.266h-.366c-.216 0-.363-.045-.438-.137-.075-.09-.113-.244-.113-.461v-1.396c0-.42.05-.727.148-.922.101-.195.193-.293.279-.293.041 0 .055.014.043.043-.013.029-.037.074-.07.137a1.198 1.198 0 0 0-.152.607c0 .293.118.543.353.75.232.209.556.313.963.313.293 0 .54-.047.739-.139.068-.031.125-.068.184-.107-.016.16-.027.324-.027.496 0 .625.11 1.168.325 1.621.217.453.515.828.896 1.129.381.299.823.521 1.329.666a5.823 5.823 0 0 0 1.62.223c.559 0 1.065-.051 1.52-.145a3.57 3.57 0 0 0 1.195-.471c.342-.217.622-.504.84-.857.219-.354.367-.791.449-1.318h-2.226a1.44 1.44 0 0 1-.155.547c-.078.145-.175.26-.286.35a1.105 1.105 0 0 1-.355.188c-.129.039-.26.059-.395.059-.399 0-.705-.115-.921-.344-.213-.23-.328-.648-.344-1.254h4.834a5.167 5.167 0 0 0-.166-1.381c.015.008.038.012.051.021.107.08.201.215.279.404l1.51 3.938h3.196l.733-1.934.754 1.934h3.318l1.516-3.938c.072-.189.176-.324.306-.404s.283-.119.458-.119V10.56h-3.105v2.264c.368 0 .499.154.398.465l-.574 1.873h-.086l-.538-1.873c-.041-.168-.033-.285.023-.357.058-.07.182-.107.373-.107v-2.264h-4.156v2.264c.371 0 .506.154.404.465l-.575 1.873h-.093l-.538-1.873c-.039-.168-.031-.285.029-.357.059-.07.185-.107.376-.107v-2.264h-4.536v1.268c-.102-.15-.202-.301-.327-.432-.339-.35-.775-.621-1.311-.816-.533-.195-1.171-.295-1.911-.295-.604 0-1.157.078-1.66.232s-.939.383-1.31.688a2.952 2.952 0 0 0-.497.521 2.536 2.536 0 0 0-.066-.314 1.516 1.516 0 0 0-.299-.576 1.433 1.433 0 0 0-.547-.4 1.962 1.962 0 0 0-.81-.15c-.53 0-.962.166-1.293.494-.332.33-.569.816-.712 1.459h-.1l.104-1.678h-3.143l.001-.004h-6.887c-.028.525-.152.982-.374 1.373a3 3 0 0 1-.831.957 3.74 3.74 0 0 1-1.119.564c-.414.127-.82.193-1.216.193-1.395 0-2.43-.508-3.104-1.523-.675-1.014-1.013-2.729-1.013-5.141 0-2.414.327-4.139.981-5.174C41.163.768 42.1.25 43.324.25c.853 0 1.44.109 1.759.33.321.221.637.451.95.691-.54.199-1.018.555-1.429 1.064-.412.512-.619 1.201-.619 2.066 0 .383.067.791.203 1.225.136.432.361.844.683 1.234.32.391.771.717 1.354.979.583.264 1.338.395 2.261.395.966 0 1.784-.16 2.453-.479a4.776 4.776 0 0 0 1.653-1.268 4.984 4.984 0 0 0 .938-1.746 6.97 6.97 0 0 0 .216-.963h.162c.142 0 .269.035.38.102.113.066.169.197.169.389v1.158c0 .15-.043.279-.13.389-.088.107-.216.16-.383.16h-.36v2.266h5.147V5.977h-.367c-.216 0-.363-.045-.438-.137s-.113-.246-.113-.461V3.982c0-.42.051-.727.148-.922.1-.195.194-.293.279-.293.042 0 .056.016.042.043a2.935 2.935 0 0 1-.069.137 1.168 1.168 0 0 0-.151.607c0 .293.118.543.353.75.232.209.555.313.963.313.293 0 .54-.045.739-.137.067-.031.125-.072.184-.109-.017.16-.027.324-.027.496 0 .627.109 1.166.325 1.619.215.455.514.83.896 1.129.38.299.823.521 1.328.668a5.823 5.823 0 0 0 1.62.221c.56 0 1.065-.047 1.519-.143a3.613 3.613 0 0 0 1.197-.469c.324-.209.591-.482.804-.813.027.166.067.322.134.459.113.229.27.416.47.561.202.143.447.25.733.316.289.068.608.102.958.102.367 0 .694-.035.981-.107a2.96 2.96 0 0 0 .739-.279c.205-.117.367-.25.482-.4.117-.152.187-.311.212-.477h.098c0 .109.033.234.101.375s.181.275.34.406c.16.131.373.238.645.326.271.088.611.131 1.024.131.455 0 .831-.053 1.125-.154.292-.105.523-.258.696-.459.171-.201.287-.443.348-.727.022-.102.035-.213.05-.326l.001.02c.056.342.175.637.353.885.18.248.442.443.789.586.346.141.812.213 1.393.213.527 0 .963-.074 1.309-.221.348-.146.62-.344.822-.592.148-.182.255-.4.338-.633v1.158h5.148V5.979h-.167a.956.956 0 0 1-.513-.127c-.135-.082-.201-.26-.201-.533v-1.53c.192.016.331.055.415.117.111.082.21.215.297.398l1.636 3.938h3.573l1.637-3.938c.082-.189.185-.326.306-.404.013-.008.037-.012.052-.02a4.262 4.262 0 0 0-.113.986c0 .627.109 1.168.326 1.619.215.455.515.832.896 1.131s.824.521 1.329.668a5.823 5.823 0 0 0 1.62.221c.56 0 1.063-.049 1.519-.145s.854-.252 1.196-.469a2.66 2.66 0 0 0 .841-.857c.219-.354.369-.793.449-1.318h-2.227a1.449 1.449 0 0 1-.159.544zm-2.028-3.071c.137-.201.348-.301.634-.301.271 0 .481.117.628.35.147.234.232.551.259.949h-1.793c.044-.462.135-.796.272-.998zm-33.9 0c.137-.201.347-.301.632-.301.274 0 .483.117.63.35.147.234.233.551.257.949h-1.79c.043-.462.133-.796.271-.998zm0 9.043c.137-.199.347-.301.632-.301.274 0 .483.117.63.35.147.234.233.551.257.949h-1.79c.043-.462.133-.796.271-.998zm8.397-6.318c0 .27-.061.477-.181.625a.573.573 0 0 1-.468.223c-.211 0-.354-.053-.427-.16a.628.628 0 0 1-.111-.363c0-.176.047-.314.138-.418s.201-.193.324-.27l.39-.232c.135-.078.245-.184.335-.313v.908zm10.544-.586a.728.728 0 0 1-.155.443c-.104.137-.265.205-.48.205h-.038c.004-.084.013-.166.013-.25v-.984h-.701v.91c0 .127-.007.244-.018.352a.753.753 0 0 1-.091.285.545.545 0 0 1-.189.201.574.574 0 0 1-.315.076c-.236 0-.391-.084-.467-.256-.076-.17-.114-.391-.114-.66V3.777h1.816a.84.84 0 0 1 .517.17c.148.111.221.285.221.521v.859h.001z" fill="#3E3D40"/><path d="M83.509 10.592c-.271-.201-.613-.303-1.028-.303a.963.963 0 0 1 .425-.418c.179-.09.419-.139.72-.146v-.971c-.512.072-.938.197-1.274.377-.339.178-.607.385-.806.621s-.336.492-.414.766a3.076 3.076 0 0 0-.117.82c0 .486.137.877.408 1.168.273.293.633.438 1.082.438.228 0 .428-.039.602-.121.176-.082.326-.184.448-.311a1.2 1.2 0 0 0 .274-.43c.062-.164.09-.33.09-.5-.001-.457-.138-.787-.41-.99z" fill="#3E3D40"/></svg>