<?xml version="1.0" encoding="utf-8"?>
<!-- Generator: Adobe Illustrator 16.0.0, SVG Export Plug-In . SVG Version: 6.00 Build 0)  -->
<!DOCTYPE svg PUBLIC "-//W3C//DTD SVG 1.1//EN" "http://www.w3.org/Graphics/SVG/1.1/DTD/svg11.dtd">
<svg version="1.1" id="Layer_1" xmlns="http://www.w3.org/2000/svg" xmlns:xlink="http://www.w3.org/1999/xlink" x="0px" y="0px"
	 width="120px" height="120px" viewBox="0 0 120 120" enable-background="new 0 0 120 120" xml:space="preserve">
<path fill="#141820" d="M69.005,58.769c-1.028-1.295-2.601-1.938-4.205-2.188c-0.441-1.971,0.028-4.181,0.97-5.977
	c0.736-0.18,1.708-0.454,1.733-1.39c0.271-1.178-1.314-2.336-2.228-1.354c-0.867,0.642-0.112,1.758-0.538,2.58
	c-0.893,1.947-1.186,4.118-1.033,6.25c-0.631,0.175-1.25,0.367-1.883,0.578c-1.719-3.09-1.779-7.022-0.062-10.123
	c0.841,0.156,1.83-0.244,1.904-1.189c0.323-1.126-1.138-2.38-2.089-1.511c-0.923,0.553-0.302,1.715-0.787,2.5
	c-1.779,3.363-1.613,7.587,0.236,10.896c-1.606,1.318-2.509,3.332-2.59,5.407c1.692,0.009,3.374-0.005,5.068,0.009
	c0.065-1.497,1.261-2.968,2.832-2.845c1.452,0.14,2.344,1.492,2.456,2.849c0.62-0.009,1.251-0.013,1.866-0.021
	C70.563,61.632,70.071,60.004,69.005,58.769z M26.804,65.394c-1.426,3.455-2.854,6.916-4.304,10.361
	c0.272,0.013,0.818,0.029,1.082,0.029c0.397-0.93,0.788-1.847,1.165-2.783h5.127c0.375,0.879,0.668,1.804,1.119,2.648
	c0.293,0.04,0.88,0.101,1.173,0.135c-1.443-3.457-2.889-6.92-4.313-10.396C27.501,65.389,27.155,65.389,26.804,65.394z
	 M25.148,71.963c0.74-1.745,1.453-3.503,2.172-5.261c0.694,1.758,1.418,3.516,2.157,5.261
	C28.032,71.968,26.585,71.968,25.148,71.963z M40.97,73.714c-1.971-2.764-3.971-5.524-5.965-8.265
	c-0.339,0.004-0.674,0.008-1.013,0.008c0.013,3.441,0.008,6.879,0.004,10.319c0.262,0,0.774-0.004,1.033-0.004
	c-0.021-2.841-0.005-5.661-0.013-8.484c1.734,2.344,3.431,4.716,5.143,7.088c0.491,0.625,0.872,1.593,1.846,1.457
	c0.014-3.469-0.003-6.934,0.01-10.384c-0.346,0-0.699,0.004-1.045,0.004C40.977,68.199,40.977,70.95,40.97,73.714z M51.441,66.514
	c-0.005-0.354-0.005-0.71-0.005-1.061c-2.477,0.044-4.957-0.092-7.423,0.062c-0.017,0.235-0.041,0.739-0.063,0.973
	c1.079,0.018,2.152,0.026,3.23,0.013v9.284c0.269-0.008,0.806-0.017,1.075-0.021c-0.027-3.082-0.008-6.168-0.012-9.25
	C49.313,66.505,50.376,66.505,51.441,66.514z M57.993,69.818c-0.796-1.482-1.641-2.916-2.479-4.365
	c-0.743,0.004-1.491,0.004-2.238,0c0.005,3.445,0.005,6.887,0,10.327c0.677-0.004,1.358-0.008,2.04-0.008
	c-0.021-2.25-0.004-4.479-0.018-6.724c0.911,1.471,1.797,2.945,2.678,4.435c0.896-1.493,1.801-2.973,2.686-4.466
	c0.02,2.248,0.004,4.496,0.013,6.763c0.681-0.004,1.366-0.008,2.062-0.008c-0.017-3.441-0.013-6.878,0-10.315h-2.248
	C59.653,66.911,58.831,68.369,57.993,69.818z M65.097,75.768c0.703,0.005,1.385,0.009,2.092,0.013c0-3.44-0.009-6.882,0.004-10.327
	c-0.706,0.004-1.388,0.004-2.092,0.004C65.113,68.895,65.118,72.331,65.097,75.768z M75.892,65.457
	c0.004,2.106,0.025,4.197-0.009,6.302c-1.479-2.104-2.938-4.221-4.421-6.306c-0.644,0.004-1.274,0.004-1.904,0
	c-0.04,3.433-0.032,6.869-0.049,10.306c0.709,0.009,1.405,0.014,2.1,0.021v-6.565c1.543,2.175,3.062,4.391,4.615,6.569
	c0.586-0.004,1.172-0.017,1.758-0.025c-0.02-3.441,0.037-6.882-0.032-10.322C77.253,65.457,76.582,65.457,75.892,65.457z
	 M87.434,65.457h-7.195c0.008,3.441,0.013,6.879-0.004,10.315c2.398,0.008,4.798,0,7.199,0.004
	c-0.005-0.683-0.005-1.361-0.005-2.035c-1.701,0.015-3.421,0.013-5.127,0.013c0-0.73-0.002-1.457-0.011-2.18h4.759
	c-0.005-0.67-0.005-1.335,0-2.005c-1.596,0-3.169,0-4.748,0.004c0-0.705,0-1.406-0.002-2.123c1.699,0.007,3.428,0.004,5.129,0.007
	C87.429,66.785,87.429,66.116,87.434,65.457z M95.179,72.122c1.214-0.601,2.106-1.853,1.992-3.258
	c0.146-1.599-1.067-3.156-2.674-3.337c-1.721-0.161-3.479-0.034-5.21-0.07c0.009,3.441,0.014,6.879-0.004,10.319
	c0.704-0.004,1.388-0.009,2.097-0.018c-0.022-1.094-0.022-2.192-0.018-3.292c0.539,0.005,1.103,0.009,1.646,0.013
	c0.674,1.095,1.356,2.189,2.03,3.288c0.813,0.005,1.63,0.005,2.461,0.005C96.703,74.562,95.955,73.329,95.179,72.122z M94.241,70.31
	c-0.953,0.214-1.921,0.096-2.879,0.126c0-0.989-0.005-1.976,0-2.946c0.975,0.035,2-0.157,2.929,0.165
	C95.381,68.094,95.337,69.893,94.241,70.31z"/>
</svg>
