<svg xmlns="http://www.w3.org/2000/svg" width="120" height="120"><path fill="#141820" d="M69.005 58.769c-1.028-1.295-2.601-1.938-4.205-2.188-.441-1.971.028-4.181.97-5.977.736-.18 1.708-.454 1.733-1.39.271-1.178-1.314-2.336-2.228-1.354-.867.642-.112 1.758-.538 2.58-.893 1.947-1.186 4.118-1.033 6.25-.631.175-1.25.367-1.883.578-1.719-3.09-1.779-7.022-.062-10.123.841.156 1.83-.244 1.904-1.189.323-1.126-1.138-2.38-2.089-1.511-.923.553-.302 1.715-.787 2.5-1.779 3.363-1.613 7.587.236 10.896-1.606 1.318-2.509 3.332-2.59 5.407 1.692.009 3.374-.005 5.068.009.065-1.497 1.261-2.968 2.832-2.845 1.452.14 2.344 1.492 2.456 2.849.62-.009 1.251-.013 1.866-.021-.092-1.608-.584-3.236-1.65-4.471zm-42.201 6.625c-1.426 3.455-2.854 6.916-4.304 10.361.272.013.818.029 1.082.029.397-.93.788-1.847 1.165-2.783h5.127c.375.879.668 1.804 1.119 2.648.293.04.88.101 1.173.135-1.443-3.457-2.889-6.92-4.313-10.396-.352.001-.698.001-1.049.006zm-1.656 6.569c.74-1.745 1.453-3.503 2.172-5.261a231.432 231.432 0 0 0 2.157 5.261c-1.445.005-2.892.005-4.329 0zm15.822 1.751a1078.495 1078.495 0 0 0-5.965-8.265c-.339.004-.674.008-1.013.008.013 3.441.008 6.879.004 10.319.262 0 .774-.004 1.033-.004-.021-2.841-.005-5.661-.013-8.484 1.734 2.344 3.431 4.716 5.143 7.088.491.625.872 1.593 1.846 1.457.014-3.469-.003-6.934.01-10.384-.346 0-.699.004-1.045.004.007 2.746.007 5.497 0 8.261zm10.471-7.2c-.005-.354-.005-.71-.005-1.061-2.477.044-4.957-.092-7.423.062-.017.235-.041.739-.063.973 1.079.018 2.152.026 3.23.013v9.284c.269-.008.806-.017 1.075-.021-.027-3.082-.008-6.168-.012-9.25 1.07-.009 2.133-.009 3.198 0zm6.552 3.304c-.796-1.482-1.641-2.916-2.479-4.365-.743.004-1.491.004-2.238 0 .005 3.445.005 6.887 0 10.327.677-.004 1.358-.008 2.04-.008-.021-2.25-.004-4.479-.018-6.724a252.016 252.016 0 0 1 2.678 4.435c.896-1.493 1.801-2.973 2.686-4.466.02 2.248.004 4.496.013 6.763.681-.004 1.366-.008 2.062-.008a1182.22 1182.22 0 0 1 0-10.315h-2.248c-.836 1.454-1.658 2.912-2.496 4.361zm7.104 5.95l2.092.013c0-3.44-.009-6.882.004-10.327-.706.004-1.388.004-2.092.004.012 3.437.017 6.873-.004 10.31zm10.795-10.311c.004 2.106.025 4.197-.009 6.302-1.479-2.104-2.938-4.221-4.421-6.306-.644.004-1.274.004-1.904 0-.04 3.433-.032 6.869-.049 10.306.709.009 1.405.014 2.1.021v-6.565c1.543 2.175 3.062 4.391 4.615 6.569.586-.004 1.172-.017 1.758-.025-.02-3.441.037-6.882-.032-10.322-.697.02-1.368.02-2.058.02zm11.542 0h-7.195c.008 3.441.013 6.879-.004 10.315 2.398.008 4.798 0 7.199.004-.005-.683-.005-1.361-.005-2.035-1.701.015-3.421.013-5.127.013 0-.73-.002-1.457-.011-2.18h4.759c-.005-.67-.005-1.335 0-2.005-1.596 0-3.169 0-4.748.004 0-.705 0-1.406-.002-2.123 1.699.007 3.428.004 5.129.007 0-.672 0-1.341.005-2zm7.745 6.665c1.214-.601 2.106-1.853 1.992-3.258.146-1.599-1.067-3.156-2.674-3.337-1.721-.161-3.479-.034-5.21-.07.009 3.441.014 6.879-.004 10.319.704-.004 1.388-.009 2.097-.018a138.775 138.775 0 0 1-.018-3.292l1.646.013c.674 1.095 1.356 2.189 2.03 3.288.813.005 1.63.005 2.461.005-.796-1.21-1.544-2.443-2.32-3.65zm-.938-1.812c-.953.214-1.921.096-2.879.126 0-.989-.005-1.976 0-2.946.975.035 2-.157 2.929.165 1.09.439 1.046 2.238-.05 2.655z"/></svg>