<svg xmlns="http://www.w3.org/2000/svg" width="120" height="120"><circle fill="#FEC028" cx="60" cy="60" r="50.333"/><path fill="#FFF" d="M82.617 65.313c-.363-2.589-1.635-4.587-3.904-5.904-1.045-.59-2.181-.998-3.361-1.498.137-.091.228-.182.318-.227 5.676-2.906 5.176-11.671 1.044-14.668-1.68-1.226-3.542-1.998-5.494-2.452-1.407-.317-2.815-.545-4.269-.771 0-2.543.045-6.04.045-8.855h-5.268c-.045 2.771-.045 6.176-.09 8.674h-4.269c0-2.498.045-5.903.045-8.674h-5.313c-.045 2.815-.045 6.313-.091 8.81-3.633-.045-7.129-.045-10.762-.091 0 1.953-.045 3.77-.045 5.677.772 0 1.453 0 2.088.045.682 0 1.363 0 1.998.045 1.862.137 2.816 1.182 2.816 2.998-.045 7.583-.136 15.212-.227 22.795 0 1.681-.727 2.316-2.361 2.316h-3.542c-.363 2.134-.727 4.178-1.09 6.312l10.762.137c0 2.725-.045 6.175-.045 9.036h5.313c.046-2.861.046-6.221.091-8.9 1.499.046 2.861.091 4.269.137 0 2.725-.047 6.039-.047 8.81h5.313c.046-2.861.046-6.222.091-8.855.182-.045.318-.045.455-.091 2.543-.408 5.131-.636 7.583-1.226 3.224-.817 5.767-2.68 7.129-5.858 1-2.455 1.226-5.043.818-7.722zM57.415 45.878c3.315 0 6.539-.272 9.536 1.09 1.998.862 2.997 2.497 2.861 4.45-.137 2.089-1.317 3.587-3.451 4.269-2.907.953-5.949.908-9.083.771.092-3.451.092-6.902.137-10.58zm11.579 26.518c-2.951 1.317-6.039 1.317-9.172 1.362-.863 0-1.726-.045-2.68-.045l.137-11.762c4.042 0 8.038-.317 11.807 1.363 1.952.862 3.088 2.36 3.088 4.586 0 2.226-1.227 3.634-3.18 4.496z"/></svg>