<?xml version="1.0" encoding="utf-8"?>
<!-- Generator: Adobe Illustrator 16.0.0, SVG Export Plug-In . SVG Version: 6.00 Build 0)  -->
<!DOCTYPE svg PUBLIC "-//W3C//DTD SVG 1.1//EN" "http://www.w3.org/Graphics/SVG/1.1/DTD/svg11.dtd">
<svg version="1.1" id="Layer_1" xmlns="http://www.w3.org/2000/svg" xmlns:xlink="http://www.w3.org/1999/xlink" x="0px" y="0px"
	 width="120px" height="120px" viewBox="0 0 120 120" enable-background="new 0 0 120 120" xml:space="preserve">
<g>
	<g>
		<circle fill="#FEC028" cx="60" cy="60" r="50.333"/>
	</g>
	<path fill="#FFFFFF" d="M82.617,65.313c-0.363-2.589-1.635-4.587-3.904-5.904c-1.045-0.59-2.181-0.998-3.361-1.498
		c0.137-0.091,0.228-0.182,0.318-0.227c5.676-2.906,5.176-11.671,1.044-14.668c-1.68-1.226-3.542-1.998-5.494-2.452
		c-1.407-0.317-2.815-0.545-4.269-0.771c0-2.543,0.045-6.04,0.045-8.855h-5.268c-0.045,2.771-0.045,6.176-0.09,8.674
		c-1.499,0-2.861,0-4.269,0c0-2.498,0.045-5.903,0.045-8.674h-5.313c-0.045,2.815-0.045,6.313-0.091,8.81
		c-3.633-0.045-7.129-0.045-10.762-0.091c0,1.953-0.045,3.77-0.045,5.677c0.772,0,1.453,0,2.088,0.045c0.682,0,1.363,0,1.998,0.045
		c1.862,0.137,2.816,1.182,2.816,2.998c-0.045,7.583-0.136,15.212-0.227,22.795c0,1.681-0.727,2.316-2.361,2.316
		c-1.181,0-2.361,0-3.542,0c-0.363,2.134-0.727,4.178-1.09,6.312c3.587,0.046,7.129,0.091,10.762,0.137
		c0,2.725-0.045,6.175-0.045,9.036h5.313c0.046-2.861,0.046-6.221,0.091-8.9c1.499,0.046,2.861,0.091,4.269,0.137
		c0,2.725-0.047,6.039-0.047,8.81h5.313c0.046-2.861,0.046-6.222,0.091-8.855c0.182-0.045,0.318-0.045,0.455-0.091
		c2.543-0.408,5.131-0.636,7.583-1.226c3.224-0.817,5.767-2.68,7.129-5.858C82.799,70.58,83.025,67.992,82.617,65.313z
		 M57.415,45.878c3.315,0,6.539-0.272,9.536,1.09c1.998,0.862,2.997,2.497,2.861,4.45c-0.137,2.089-1.317,3.587-3.451,4.269
		c-2.907,0.953-5.949,0.908-9.083,0.771C57.37,53.007,57.37,49.556,57.415,45.878z M68.994,72.396
		c-2.951,1.317-6.039,1.317-9.172,1.362c-0.863,0-1.726-0.045-2.68-0.045c0.046-3.951,0.091-7.811,0.137-11.762
		c4.042,0,8.038-0.317,11.807,1.363c1.952,0.862,3.088,2.36,3.088,4.586C72.174,70.126,70.947,71.534,68.994,72.396z"/>
</g>
</svg>
