<svg xmlns="http://www.w3.org/2000/svg" width="82" height="12"><path fill="#0ED0FF" d="M4.917 3.502a2.906 2.906 0 0 1 1.449-.357c.923 0 1.708.39 2.356 1.171l1.799-1.628c-.485-.609-1.095-1.075-1.828-1.399S7.137.804 6.223.804c-1.047 0-1.987.221-2.82.664-.832.442-1.486 1.058-1.962 1.848S.727 5.001.727 6s.238 1.894.714 2.685a4.967 4.967 0 0 0 1.963 1.849c.833.441 1.772.662 2.82.662.914 0 1.737-.16 2.47-.484s1.342-.791 1.828-1.399L8.723 7.685c-.648.781-1.433 1.171-2.356 1.171A2.916 2.916 0 0 1 4.918 8.5a2.487 2.487 0 0 1-.985-1.007c-.234-.433-.35-.931-.35-1.493s.117-1.059.35-1.492c.233-.432.561-.768.984-1.006zm10.927 0a2.906 2.906 0 0 1 1.449-.357c.923 0 1.708.39 2.356 1.171l1.799-1.628c-.485-.609-1.095-1.075-1.828-1.399S18.064.804 17.15.804c-1.047 0-1.987.221-2.82.664-.833.443-1.487 1.059-1.963 1.849S11.653 5.001 11.653 6s.238 1.894.714 2.685a4.967 4.967 0 0 0 1.963 1.849c.833.441 1.772.662 2.82.662.914 0 1.737-.16 2.47-.484s1.342-.791 1.828-1.399l-1.799-1.627c-.647.781-1.433 1.171-2.356 1.171a2.916 2.916 0 0 1-1.449-.356 2.481 2.481 0 0 1-.985-1.007c-.234-.434-.35-.932-.35-1.494s.117-1.059.35-1.492c.233-.432.561-.768.985-1.006zM28.22 8.856a2.916 2.916 0 0 1-1.449-.356 2.481 2.481 0 0 1-.985-1.007c-.234-.433-.35-.931-.35-1.493s.117-1.059.35-1.492c.233-.433.562-.769.985-1.006s.907-.357 1.449-.357c.923 0 1.708.39 2.356 1.171l1.799-1.628c-.485-.609-1.095-1.075-1.828-1.399s-1.556-.485-2.47-.485c-1.047 0-1.987.221-2.82.664-.833.443-1.487 1.059-1.963 1.849S22.58 5.001 22.58 6s.238 1.894.714 2.685a4.967 4.967 0 0 0 1.963 1.849c.833.441 1.772.662 2.82.662.914 0 1.737-.16 2.47-.484s1.342-.791 1.828-1.399l-1.799-1.627c-.648.78-1.433 1.17-2.356 1.17z"/><path fill="#FFF" d="M38.313 1.003h-3.741v9.994h1.057V7.842h2.684c1.275 0 2.275-.302 2.999-.907.723-.604 1.084-1.439 1.084-2.505s-.361-1.904-1.084-2.513c-.724-.609-1.723-.914-2.999-.914zm2.242 5.262c-.523.433-1.28.649-2.27.649h-2.656V1.917h2.656c.99 0 1.747.217 2.27.65s.785 1.054.785 1.863c0 .79-.261 1.402-.785 1.835zm11.904-4.691c-.795-.438-1.688-.657-2.678-.657s-1.887.222-2.691.664a4.853 4.853 0 0 0-1.885 1.82c-.451.772-.678 1.638-.678 2.599s.227 1.828.678 2.599c.453.772 1.08 1.376 1.885 1.82s1.701.664 2.691.664 1.883-.219 2.678-.656 1.42-1.044 1.877-1.821c.457-.775.685-1.644.685-2.606s-.229-1.83-.686-2.605-1.081-1.383-1.876-1.821zm.963 6.547a3.88 3.88 0 0 1-1.498 1.485 4.325 4.325 0 0 1-2.143.536c-.789 0-1.506-.18-2.148-.536-.643-.357-1.146-.852-1.514-1.485S45.57 6.781 45.57 6c0-.78.182-1.487.549-2.12s.871-1.128 1.514-1.485 1.359-.536 2.148-.536c.791 0 1.504.179 2.143.536.637.357 1.137.852 1.498 1.485s.543 1.34.543 2.12c0 .781-.182 1.488-.543 2.121zm4.492 2.876h1.057V1.003h-1.057v9.994zm11.992-1.884l-6.439-8.11h-.871v9.994h1.057V2.888l6.426 8.109h.871V1.003h-1.043v8.11zm3.287-8.11v.914h3.512v9.08h1.057v-9.08h3.512v-.914h-8.081z"/></svg>