<svg version="1.1" id="chci-tezit-icon" xmlns="http://www.w3.org/2000/svg" xmlns:xlink="http://www.w3.org/1999/xlink" x="0px" y="0px"
	 width="120px" height="120px" viewBox="0 0 120 120" enable-background="new 0 0 120 120" xml:space="preserve">
<path fill="#FFFFFF" d="M59.5,87.2v3.424c0,0.276,0.224,0.5,0.5,0.5s0.5-0.224,0.5-0.5V87.2c0-0.276-0.224-0.5-0.5-0.5
	S59.5,86.924,59.5,87.2z M33.423,71.2c-0.276,0-0.5,0.224-0.5,0.5v3.424c0,0.276,0.224,0.5,0.5,0.5s0.5-0.224,0.5-0.5V71.7
	C33.923,71.424,33.7,71.2,33.423,71.2z M35.995,72.915c-0.276,0-0.5,0.224-0.5,0.5v3.423c0,0.276,0.224,0.5,0.5,0.5
	s0.5-0.224,0.5-0.5v-3.423C36.495,73.139,36.271,72.915,35.995,72.915z M38.566,74.629c-0.276,0-0.5,0.224-0.5,0.5v3.423
	c0,0.276,0.224,0.5,0.5,0.5s0.5-0.224,0.5-0.5v-3.423C39.066,74.853,38.843,74.629,38.566,74.629z M79.795,80.019
	c0.076,0.043,0.161,0.064,0.246,0.064c0.089,0,0.178-0.023,0.257-0.071l3.424-2.054c0.151-0.09,0.243-0.253,0.243-0.429v-4.108
	c0-0.18-0.097-0.346-0.254-0.435c-0.156-0.089-0.349-0.087-0.503,0.006l-3.424,2.055c-0.151,0.091-0.243,0.253-0.243,0.429v4.107
	C79.541,79.764,79.638,79.93,79.795,80.019z M80.541,75.759l2.424-1.454v2.941L80.541,78.7V75.759z M75.002,82.758
	c0.076,0.043,0.162,0.064,0.246,0.064c0.09,0,0.179-0.023,0.258-0.071l3.423-2.054c0.151-0.09,0.243-0.253,0.243-0.429V76.16
	c0-0.18-0.097-0.346-0.254-0.435c-0.156-0.089-0.349-0.087-0.503,0.006l-3.424,2.054c-0.15,0.091-0.243,0.253-0.243,0.429v4.108
	C74.748,82.503,74.846,82.669,75.002,82.758z M75.748,78.497l2.424-1.454v2.942l-2.424,1.454V78.497z M90.5,64.514v-8.9
	c0-0.178-0.094-0.341-0.246-0.431l-30-17.661c-0.156-0.093-0.351-0.093-0.507,0l-30,17.661c-0.077,0.045-0.138,0.108-0.181,0.183
	c-0.02,0.035-0.021,0.078-0.032,0.118c-0.012,0.043-0.034,0.083-0.034,0.13v8.9c0,0.178,0.094,0.342,0.248,0.432l1.887,1.104
	l-1.888,1.111c-0.012,0.007-0.017,0.021-0.028,0.028c-0.049,0.035-0.089,0.076-0.124,0.125c-0.012,0.018-0.025,0.033-0.035,0.053
	c-0.035,0.068-0.06,0.143-0.06,0.225v8.901c0,0.178,0.094,0.342,0.248,0.432l30,17.555c0.078,0.046,0.165,0.068,0.252,0.068
	s0.174-0.022,0.252-0.068l30-17.555c0.153-0.09,0.247-0.254,0.247-0.432v-8.901l0,0c0-0.001,0-0.001,0-0.002
	c-0.001-0.082-0.025-0.155-0.061-0.224c-0.01-0.02-0.023-0.035-0.035-0.054c-0.034-0.048-0.074-0.089-0.122-0.122
	c-0.013-0.009-0.018-0.023-0.03-0.03l-1.896-1.105l1.896-1.109C90.406,64.855,90.5,64.691,90.5,64.514z M60,38.532l29.012,17.079
	L60,72.588L30.988,55.611L60,38.532z M89.5,76.207L60,93.469L30.5,76.207v-7.743l29.248,17.114c0.078,0.046,0.165,0.068,0.252,0.068
	s0.174-0.022,0.252-0.068L89.5,68.464V76.207z M89.009,67.593L60,84.567L30.988,67.591l1.635-0.963L59.748,82.5
	c0.078,0.046,0.165,0.068,0.252,0.068s0.174-0.022,0.252-0.068l27.113-15.865L89.009,67.593z M89.5,64.228l-2.387,1.396h-0.001
	L60,81.489L32.875,65.616c0,0-0.001,0-0.002,0L30.5,64.228v-7.742l29.248,17.113c0.078,0.046,0.165,0.068,0.252,0.068
	s0.174-0.022,0.252-0.068L89.5,56.485V64.228z M59.5,75.222v3.423c0,0.276,0.224,0.5,0.5,0.5s0.5-0.224,0.5-0.5v-3.423
	c0-0.276-0.224-0.5-0.5-0.5S59.5,74.945,59.5,75.222z M33.423,59.221c-0.276,0-0.5,0.224-0.5,0.5v3.424c0,0.276,0.224,0.5,0.5,0.5
	s0.5-0.224,0.5-0.5v-3.424C33.923,59.444,33.7,59.221,33.423,59.221z M35.995,60.936c-0.276,0-0.5,0.224-0.5,0.5v3.423
	c0,0.276,0.224,0.5,0.5,0.5s0.5-0.224,0.5-0.5v-3.423C36.495,61.159,36.271,60.936,35.995,60.936z M38.566,62.649
	c-0.276,0-0.5,0.224-0.5,0.5v3.424c0,0.276,0.224,0.5,0.5,0.5s0.5-0.224,0.5-0.5v-3.424C39.066,62.873,38.843,62.649,38.566,62.649z
	 M84.588,65.301c0.076,0.043,0.161,0.064,0.246,0.064c0.089,0,0.178-0.023,0.257-0.071l3.424-2.054
	c0.151-0.09,0.243-0.253,0.243-0.429v-4.108c0-0.18-0.097-0.346-0.254-0.435c-0.155-0.09-0.349-0.087-0.503,0.006l-3.424,2.055
	c-0.151,0.09-0.243,0.253-0.243,0.429v4.107C84.334,65.046,84.431,65.212,84.588,65.301z M85.334,61.041l2.424-1.454v2.941
	l-2.424,1.454V61.041z"/>
<path class="hidden" fill="none" d="M12.5,65.819h-5c-0.276,0-0.5,0.224-0.5,0.5s0.224,0.5,0.5,0.5h5c0.276,0,0.5-0.224,0.5-0.5
	S12.776,65.819,12.5,65.819z M112.5,65.819h-5c-0.276,0-0.5,0.224-0.5,0.5s0.224,0.5,0.5,0.5h5c0.276,0,0.5-0.224,0.5-0.5
	S112.776,65.819,112.5,65.819z M60,13.319c-0.276,0-0.5,0.224-0.5,0.5v5c0,0.276,0.224,0.5,0.5,0.5s0.5-0.224,0.5-0.5v-5
	C60.5,13.543,60.276,13.319,60,13.319z M16.302,47.678l-2.305-0.955c-0.254-0.104-0.547,0.016-0.653,0.271
	c-0.105,0.255,0.016,0.547,0.271,0.652l2.305,0.955c0.063,0.025,0.127,0.038,0.191,0.038c0.196,0,0.382-0.116,0.462-0.309
	C16.678,48.076,16.557,47.783,16.302,47.678z M79.326,19.663c-0.252-0.105-0.547,0.015-0.653,0.271l-0.955,2.305
	c-0.105,0.255,0.016,0.547,0.271,0.653c0.063,0.026,0.127,0.038,0.191,0.038c0.196,0,0.382-0.116,0.462-0.309l0.955-2.305
	C79.702,20.062,79.581,19.77,79.326,19.663z M41.328,19.934c-0.105-0.255-0.399-0.376-0.653-0.271
	c-0.255,0.105-0.376,0.397-0.271,0.653l0.955,2.305c0.08,0.192,0.266,0.309,0.462,0.309c0.064,0,0.129-0.012,0.191-0.038
	c0.255-0.105,0.376-0.397,0.271-0.653L41.328,19.934z M106.002,46.723l-2.305,0.955c-0.255,0.105-0.376,0.398-0.271,0.653
	c0.08,0.192,0.266,0.309,0.462,0.309c0.063,0,0.129-0.013,0.191-0.038l2.305-0.955c0.255-0.105,0.376-0.397,0.271-0.652
	S106.258,46.619,106.002,46.723z M23.23,28.843c-0.195-0.195-0.512-0.195-0.707,0s-0.195,0.512,0,0.707l3.536,3.535
	c0.098,0.098,0.226,0.146,0.354,0.146s0.256-0.049,0.354-0.146c0.195-0.195,0.195-0.512,0-0.707L23.23,28.843z M96.77,28.843
	l-3.535,3.535c-0.195,0.195-0.195,0.512,0,0.707c0.098,0.098,0.226,0.146,0.354,0.146s0.256-0.049,0.354-0.146l3.535-3.535
	c0.195-0.195,0.195-0.512,0-0.707S96.965,28.647,96.77,28.843z"/>
</svg>
