<svg xmlns="http://www.w3.org/2000/svg" width="120" height="120"><path fill="#FFF" d="M67.191 38.563a22.962 22.962 0 0 0-17.989 8.633.998.998 0 0 0 .153 1.405.997.997 0 0 0 1.405-.153 20.978 20.978 0 0 1 16.431-7.885c11.611 0 21.059 9.447 21.059 21.059 0 3.494-.874 6.955-2.527 10.01-.079.146-.12.31-.12.476v7.927h-7.927c-.166 0-.33.041-.476.12a21.092 21.092 0 0 1-10.009 2.527 1 1 0 1 0 0 2c3.739 0 7.445-.915 10.734-2.647h8.677a1 1 0 0 0 1-1v-8.677a23.105 23.105 0 0 0 2.647-10.735c.001-12.717-10.343-23.06-23.058-23.06zm-9.609 25.216l-.072-.081a15.46 15.46 0 0 0-1.093-1.217 15.466 15.466 0 0 0-1.186-1.061 5.457 5.457 0 0 0-.273-.208l-.153-.112c-.29-.219-.58-.434-.886-.634-.14-.091-.283-.176-.428-.262l-.106-.063a14.746 14.746 0 0 0-.876-.492c-.196-.101-.395-.193-.596-.287a15.382 15.382 0 0 0-2.523-.906l-.164-.044a9.976 9.976 0 0 0-.46-.116 15.34 15.34 0 0 0-1.114-.195l-.192-.03a5.878 5.878 0 0 0-.36-.054 15.837 15.837 0 0 0-1.718-.099c-8.619 0-15.631 7.012-15.631 15.631 0 2.55.627 5.077 1.815 7.316v5.999a.5.5 0 0 0 .5.5h5.999a15.657 15.657 0 0 0 7.316 1.815c8.619 0 15.631-7.012 15.631-15.631a15.46 15.46 0 0 0-3.386-9.703.63.63 0 0 0-.044-.066zM45.381 88.181c-2.427 0-4.831-.606-6.953-1.755a.496.496 0 0 0-.238-.061h-5.624v-5.624a.496.496 0 0 0-.061-.238 14.655 14.655 0 0 1-1.755-6.953c0-8.067 6.563-14.631 14.631-14.631.511 0 1.037.03 1.607.093.103.012.204.028.305.046l.213.034c.352.051.701.106 1.045.182.14.03.276.068.414.104l.17.046a12.218 12.218 0 0 1 1.503.485 14.499 14.499 0 0 1 1.413.629c.279.144.551.3.821.462l.11.065c.131.077.263.154.39.238.286.187.559.388.827.592l.171.126c.077.056.153.111.229.174.4.324.774.659 1.125 1.009.324.323.643.676 1.021 1.131a.466.466 0 0 0 .047.069 14.476 14.476 0 0 1 3.22 9.146c0 8.067-6.564 14.631-14.631 14.631z"/><path class="hidden" fill="none" d="M12.5 65.819h-5a.5.5 0 0 0 0 1h5a.5.5 0 0 0 0-1zm100 0h-5a.5.5 0 0 0 0 1h5a.5.5 0 0 0 0-1zM60 13.319a.5.5 0 0 0-.5.5v5a.5.5 0 0 0 1 0v-5a.5.5 0 0 0-.5-.5zM16.302 47.678l-2.305-.955a.5.5 0 1 0-.382.923l2.305.955a.5.5 0 0 0 .382-.923zm63.024-28.015a.5.5 0 0 0-.653.271l-.955 2.305a.5.5 0 0 0 .924.382l.955-2.305a.501.501 0 0 0-.271-.653zm-37.998.271a.5.5 0 0 0-.924.382l.955 2.305a.501.501 0 0 0 .653.271.5.5 0 0 0 .271-.653l-.955-2.305zm64.674 26.789l-2.305.955a.5.5 0 0 0 .382.924l2.305-.955a.5.5 0 1 0-.382-.924zM23.23 28.843a.5.5 0 0 0-.707.707l3.536 3.535a.498.498 0 0 0 .708 0 .5.5 0 0 0 0-.707l-3.537-3.535zm73.54 0l-3.535 3.535a.5.5 0 0 0 .708.707l3.535-3.535a.5.5 0 0 0-.708-.707z"/></svg>