<svg xmlns="http://www.w3.org/2000/svg" width="120" height="120"><path fill="#FFF" d="M59.5 87.2v3.424a.5.5 0 0 0 1 0V87.2a.5.5 0 0 0-1 0zm-26.077-16a.5.5 0 0 0-.5.5v3.424a.5.5 0 0 0 1 0V71.7a.5.5 0 0 0-.5-.5zm2.572 1.715a.5.5 0 0 0-.5.5v3.423a.5.5 0 0 0 1 0v-3.423a.5.5 0 0 0-.5-.5zm2.571 1.714a.5.5 0 0 0-.5.5v3.423a.5.5 0 0 0 1 0v-3.423a.5.5 0 0 0-.5-.5zm41.229 5.39a.499.499 0 0 0 .503-.007l3.424-2.054a.499.499 0 0 0 .243-.429v-4.108a.5.5 0 0 0-.757-.429l-3.424 2.055a.5.5 0 0 0-.243.429v4.107a.5.5 0 0 0 .254.436zm.746-4.26l2.424-1.454v2.941L80.541 78.7v-2.941zm-5.539 6.999a.502.502 0 0 0 .504-.007l3.423-2.054a.499.499 0 0 0 .243-.429V76.16a.5.5 0 0 0-.757-.429l-3.424 2.054a.502.502 0 0 0-.243.429v4.108c0 .181.098.347.254.436zm.746-4.261l2.424-1.454v2.942l-2.424 1.454v-2.942zM90.5 64.514v-8.9a.5.5 0 0 0-.246-.431l-30-17.661a.496.496 0 0 0-.507 0l-30 17.661a.496.496 0 0 0-.181.183c-.02.035-.021.078-.032.118-.012.043-.034.083-.034.13v8.9a.5.5 0 0 0 .248.432l1.887 1.104-1.888 1.111c-.012.007-.017.021-.028.028a.526.526 0 0 0-.124.125c-.012.018-.025.033-.035.053a.49.49 0 0 0-.06.225v8.901a.5.5 0 0 0 .248.432l30 17.555a.494.494 0 0 0 .504 0l30-17.555a.5.5 0 0 0 .247-.432V67.59a.49.49 0 0 0-.061-.224c-.01-.02-.023-.035-.035-.054a.488.488 0 0 0-.122-.122c-.013-.009-.018-.023-.03-.03l-1.896-1.105 1.896-1.109a.5.5 0 0 0 .249-.432zM60 38.532l29.012 17.079L60 72.588 30.988 55.611 60 38.532zm29.5 37.675L60 93.469 30.5 76.207v-7.743l29.248 17.114a.494.494 0 0 0 .504 0L89.5 68.464v7.743zm-.491-8.614L60 84.567 30.988 67.591l1.635-.963L59.748 82.5a.494.494 0 0 0 .504 0l27.113-15.865 1.644.958zm.491-3.365l-2.387 1.396h-.001L60 81.489 32.875 65.616h-.002L30.5 64.228v-7.742l29.248 17.113a.494.494 0 0 0 .504 0L89.5 56.485v7.743zm-30 10.994v3.423a.5.5 0 0 0 1 0v-3.423a.5.5 0 0 0-1 0zM33.423 59.221a.5.5 0 0 0-.5.5v3.424a.5.5 0 0 0 1 0v-3.424c0-.277-.223-.5-.5-.5zm2.572 1.715a.5.5 0 0 0-.5.5v3.423a.5.5 0 0 0 1 0v-3.423a.5.5 0 0 0-.5-.5zm2.571 1.713a.5.5 0 0 0-.5.5v3.424a.5.5 0 0 0 1 0v-3.424a.5.5 0 0 0-.5-.5zm46.022 2.652a.499.499 0 0 0 .503-.007l3.424-2.054a.499.499 0 0 0 .243-.429v-4.108a.5.5 0 0 0-.757-.429l-3.424 2.055a.499.499 0 0 0-.243.429v4.107a.5.5 0 0 0 .254.436zm.746-4.26l2.424-1.454v2.941l-2.424 1.454v-2.941z"/><path class="hidden" fill="none" d="M12.5 65.819h-5a.5.5 0 0 0 0 1h5a.5.5 0 0 0 0-1zm100 0h-5a.5.5 0 0 0 0 1h5a.5.5 0 0 0 0-1zM60 13.319a.5.5 0 0 0-.5.5v5a.5.5 0 0 0 1 0v-5a.5.5 0 0 0-.5-.5zM16.302 47.678l-2.305-.955a.5.5 0 1 0-.382.923l2.305.955a.5.5 0 0 0 .382-.923zm63.024-28.015a.5.5 0 0 0-.653.271l-.955 2.305a.5.5 0 0 0 .924.382l.955-2.305a.501.501 0 0 0-.271-.653zm-37.998.271a.5.5 0 0 0-.924.382l.955 2.305a.501.501 0 0 0 .653.271.5.5 0 0 0 .271-.653l-.955-2.305zm64.674 26.789l-2.305.955a.5.5 0 0 0 .382.924l2.305-.955a.5.5 0 1 0-.382-.924zM23.23 28.843a.5.5 0 0 0-.707.707l3.536 3.535a.498.498 0 0 0 .708 0 .5.5 0 0 0 0-.707l-3.537-3.535zm73.54 0l-3.535 3.535a.5.5 0 0 0 .708.707l3.535-3.535a.5.5 0 0 0-.708-.707z"/></svg>