<svg xmlns="http://www.w3.org/2000/svg" width="135" height="62"><path class="lines2" fill="#FFF" d="M23.256 2.751a.279.279 0 0 0 .278-.279v-.927a.278.278 0 0 0-.556 0v.928c0 .153.124.278.278.278zm2.784 4.391a.278.278 0 0 0 .277-.278v-.405a.278.278 0 1 0-.556 0v.405c0 .154.125.278.279.278zm5.567-.517a.279.279 0 0 0 .278-.278v-.5a.278.278 0 0 0-.556 0v.5a.28.28 0 0 0 .278.278zm2.786 3.659a.278.278 0 0 0 .278-.278v-.928a.279.279 0 0 0-.278-.279.28.28 0 0 0-.278.279v.928a.277.277 0 0 0 .278.278zm-5.569-8.601a.278.278 0 0 0 .277-.279V.477a.277.277 0 1 0-.555 0v.928c0 .153.124.278.278.278zM17.688 16.664a.278.278 0 0 0 .278-.278v-.979a.278.278 0 0 0-.555 0v.979a.276.276 0 0 0 .277.278zm-2.786-5.066a.278.278 0 0 0 .278-.278v-.502a.278.278 0 0 0-.555 0v.502c0 .153.124.278.277.278zm2.786-6.704a.278.278 0 0 0 .278-.278v-.928a.279.279 0 0 0-.278-.278.278.278 0 0 0-.277.278v.928a.275.275 0 0 0 .277.278zm5.568 7.671a.279.279 0 0 0 .278-.279v-1.887a.278.278 0 0 0-.556 0v1.887c0 .154.124.279.278.279zm-2.785-3.752a.28.28 0 0 0 .279-.279v-.5a.28.28 0 0 0-.557 0v.5a.278.278 0 0 0 .278.279zm30.626 6.948a.278.278 0 0 0 .278-.278v-1.308a.279.279 0 0 0-.556 0v1.308a.277.277 0 0 0 .278.278zm-2.784-5.299a.278.278 0 0 0 .278-.278v-.348a.278.278 0 0 0-.555 0v.348a.276.276 0 0 0 .277.278zm5.568 2.681a.278.278 0 0 0 .278-.279v-.794a.278.278 0 0 0-.556 0v.794c0 .154.124.279.278.279zm-2.784-6.594a.278.278 0 0 0 .278-.279v-.947a.278.278 0 0 0-.556 0v.947a.277.277 0 0 0 .278.279zm-5.569-2.865a.278.278 0 0 0 .278-.278v-.948a.279.279 0 0 0-.556 0v.948c0 .153.125.278.278.278zm0 10.152a.278.278 0 0 0 .278-.278V11.32a.279.279 0 0 0-.278-.279.279.279 0 0 0-.277.279v2.238a.277.277 0 0 0 .277.278zM39.96 2.097a.279.279 0 0 0 .279-.278V.881a.279.279 0 0 0-.557 0v.938c0 .153.125.278.278.278zm-2.783 5.154a.279.279 0 0 0 .278-.278v-.417a.278.278 0 0 0-.557 0v.417a.278.278 0 0 0 .279.278zm-2.784-5.766a.278.278 0 0 0 .278-.278V.279A.279.279 0 0 0 34.393 0a.28.28 0 0 0-.278.278v.928a.277.277 0 0 0 .278.279zm8.352 6.92a.279.279 0 0 0 .278-.278v-.512a.279.279 0 0 0-.556 0v.512a.277.277 0 0 0 .278.278zM6.551 31.397a.279.279 0 0 0 .279-.278v-.502a.279.279 0 0 0-.557 0v.502a.276.276 0 0 0 .278.278zm-2.784-7.206a.278.278 0 0 0 .278-.279v-6.07a.277.277 0 1 0-.555 0v6.07a.275.275 0 0 0 .277.279zM.981 30.079a.464.464 0 0 0-.464.464v.65a.464.464 0 0 0 .928 0v-.65a.462.462 0 0 0-.464-.464zm57.023 19.968a1.64 1.64 0 1 0 0 3.28 1.64 1.64 0 0 0 0-3.28zM6.551 19.434a.279.279 0 0 0 .279-.278v-.502a.28.28 0 0 0-.559-.001v.502a.28.28 0 0 0 .28.279zm39.256 30.808v-1.846a.279.279 0 0 0-.278-.278.278.278 0 0 0-.277.278v1.847a1.495 1.495 0 0 0-.024.21l-.323 8.697a.624.624 0 0 0 .626.647c.357 0 .64-.292.625-.647l-.322-8.697a1.926 1.926 0 0 0-.027-.211zm-5.568 1.594v-.749a.279.279 0 0 0-.557 0v.749a1.391 1.391 0 0 0-.023.21l-.323 8.687a.621.621 0 0 0 .625.648.622.622 0 0 0 .625-.648l-.323-8.687a1.53 1.53 0 0 0-.024-.21zm11.136-4.44v-.948a.279.279 0 0 0-.556 0v.952a1.364 1.364 0 0 0-.023.209l-.323 8.684a.622.622 0 0 0 .625.648.621.621 0 0 0 .625-.648l-.322-8.684a1.797 1.797 0 0 0-.026-.213zm-38.979-1.822V35.486a.278.278 0 1 0-.555 0v10.088a1.53 1.53 0 0 0-.024.21l-.322 8.687a.622.622 0 0 0 .625.648.623.623 0 0 0 .625-.648l-.323-8.687a1.283 1.283 0 0 0-.026-.21zm-2.784-2.515v-18.48a.278.278 0 1 0-.555 0v18.479a1.377 1.377 0 0 0-.023.211l-.324 8.686a.621.621 0 0 0 .625.648.622.622 0 0 0 .625-.648l-.323-8.685a1.161 1.161 0 0 0-.025-.211zm2.507-34.632a.278.278 0 0 0 .277-.278v-.928a.278.278 0 1 0-.555 0v.928c0 .154.124.278.278.278zm-2.784 8.595a.277.277 0 0 0 .277-.279v-3.285a.278.278 0 1 0-.555 0v3.285c0 .154.124.279.278.279zm2.784 9.462a.278.278 0 0 0 .277-.279v-9.318a.278.278 0 1 0-.555 0v9.318c0 .154.124.279.278.279zm5.847 22.601v-3.474a.278.278 0 0 0-.278-.277.278.278 0 0 0-.277.277v3.475a1.39 1.39 0 0 0-.024.209l-.323 8.686a.623.623 0 0 0 .625.649c.357 0 .64-.292.625-.649l-.322-8.686a2.113 2.113 0 0 0-.026-.21zm11.136 3.172v-.679a.278.278 0 1 0-.555 0v.68a1.361 1.361 0 0 0-.024.209l-.322 8.692a.623.623 0 0 0 .625.649.623.623 0 0 0 .625-.649l-.323-8.692a1.506 1.506 0 0 0-.026-.21zm5.569.264v-.531a.278.278 0 0 0-.556 0v.531a1.373 1.373 0 0 0-.024.211l-.322 8.611a.624.624 0 0 0 .625.649c.357 0 .64-.293.625-.649l-.322-8.611a1.931 1.931 0 0 0-.026-.211zm-11.137-1.328v-1.482a.278.278 0 0 0-.556 0v1.484a1.364 1.364 0 0 0-.023.209l-.323 8.701a.622.622 0 0 0 .625.648.623.623 0 0 0 .625-.648l-.323-8.701a1.765 1.765 0 0 0-.025-.211z"/><path class="lines1" fill="#FFF" d="M26.04 4.881a.278.278 0 0 0 .277-.278V.891a.278.278 0 1 0-.556 0v3.712c0 .154.125.278.279.278zm0 6.536a.278.278 0 0 0 .277-.279v-1.49a.278.278 0 1 0-.556 0v1.49a.28.28 0 0 0 .279.279zm8.353-7.704a.28.28 0 0 0-.278.278v3.23a.278.278 0 0 0 .556 0v-3.23a.278.278 0 0 0-.278-.278zm-5.569.198a.278.278 0 0 0-.278.278v6.23a.277.277 0 1 0 .555 0v-6.23a.276.276 0 0 0-.277-.278zm2.783 6.427a.279.279 0 0 0 .278-.279v-.928a.278.278 0 0 0-.556 0v.928a.28.28 0 0 0 .278.279zm0-6.997a.279.279 0 0 0 .278-.278V.278a.279.279 0 0 0-.556 0v2.785a.28.28 0 0 0 .278.278zM17.688 7.122a.279.279 0 0 0-.278.278v5.221a.279.279 0 0 0 .556-.001V7.4a.278.278 0 0 0-.278-.278zm-2.786 2.117a.278.278 0 0 0 .278-.278V5.249a.278.278 0 0 0-.555 0v3.712c0 .154.124.278.277.278zm8.354-4.26a.278.278 0 0 0-.278.278v3.286a.277.277 0 1 0 .556 0V5.257a.279.279 0 0 0-.278-.278zm-2.785.549a.279.279 0 0 0 .279-.278V2.466a.278.278 0 0 0-.557 0V5.25a.277.277 0 0 0 .278.278zm0 8.714a.279.279 0 0 0 .279-.278v-2.645a.28.28 0 0 0-.557 0v2.645a.277.277 0 0 0 .278.278zm30.626-5.465a.279.279 0 0 0-.278.278v3.264a.277.277 0 1 0 .556 0V9.055a.278.278 0 0 0-.278-.278zm-2.784-.171a.278.278 0 0 0 .278-.278V3.699a.278.278 0 0 0-.555 0v4.629a.276.276 0 0 0 .277.278zM14.902 20.431a.278.278 0 0 0 .278-.278v-6.977a.278.278 0 0 0-.555 0v6.977c0 .153.124.278.277.278zm33.411-4.349a.278.278 0 0 0 .278-.278V12.63a.277.277 0 1 0-.555 0v3.174a.277.277 0 0 0 .277.278zm5.568-6.519a.278.278 0 0 0 .278-.278V7.442a.278.278 0 0 0-.556 0v1.843c0 .154.124.278.278.278zm2.785.363a.325.325 0 1 0 0 .65.325.325 0 0 0 0-.65zM39.96 4.324a.278.278 0 0 0-.278.279v6.296a.279.279 0 0 0 .557.001V4.603a.28.28 0 0 0-.279-.279zm-2.783.143a.279.279 0 0 0 .278-.279V.473a.279.279 0 0 0-.557 0v3.716a.278.278 0 0 0 .279.278zm0 6.08a.279.279 0 0 0 .278-.278v-.961a.278.278 0 0 0-.557 0v.961a.278.278 0 0 0 .279.278zm5.568 1.695a.279.279 0 0 0 .278-.278v-1.565a.278.278 0 0 0-.556 0v1.565a.277.277 0 0 0 .278.278zm0-6.621a.279.279 0 0 0 .278-.278V1.534a.278.278 0 0 0-.556 0v3.809a.277.277 0 0 0 .278.278zm2.783.29a.28.28 0 0 0-.278.279v3.312a.278.278 0 0 0 .556 0V6.19a.278.278 0 0 0-.278-.279zM9.335 9.468a.278.278 0 0 0-.278.278v.928a.277.277 0 1 0 .555 0v-.928a.278.278 0 0 0-.277-.278zm2.784 19.266a.279.279 0 0 0-.278.278v3.712a.277.277 0 0 0 .555 0v-3.712a.278.278 0 0 0-.277-.278zM9.335 18.231a.279.279 0 0 0-.278.279v3.285a.277.277 0 1 0 .555 0V18.51a.279.279 0 0 0-.277-.279zm2.784-7.576a.279.279 0 0 0-.278.279v3.286a.278.278 0 0 0 .555 0v-3.286a.279.279 0 0 0-.277-.279zm-5.568 5.492a.279.279 0 0 0 .279-.278v-2.784a.278.278 0 0 0-.557 0v2.784a.276.276 0 0 0 .278.278zm36.471 35.046V50.01a.277.277 0 0 0-.278-.277.277.277 0 0 0-.278.277v1.186a1.516 1.516 0 0 0-.024.209l-.322 8.671a.62.62 0 0 0 .625.647.622.622 0 0 0 .625-.647l-.323-8.671a1.43 1.43 0 0 0-.025-.212zm5.569-2.175v-2.895a.277.277 0 0 0-.278-.277.276.276 0 0 0-.277.277v2.895a1.388 1.388 0 0 0-.024.211l-.323 8.685a.622.622 0 0 0 .625.647.62.62 0 0 0 .625-.647l-.322-8.685a1.667 1.667 0 0 0-.026-.211zm5.569.557V49.1a.278.278 0 0 0-.556 0v.478c-.021.08-.037.17-.042.265l-.286 4.342c-.022.355.25.647.607.647s.63-.292.607-.647l-.286-4.342a1.704 1.704 0 0 0-.044-.268zM6.83 39.723v-5.826a.278.278 0 0 0-.557 0v5.826a1.39 1.39 0 0 0-.023.211l-.323 8.685c-.013.356.269.649.626.649s.638-.293.625-.649l-.323-8.685a1.629 1.629 0 0 0-.025-.211zM4.045 34.95v-8.253a.277.277 0 1 0-.555 0v8.254a1.333 1.333 0 0 0-.024.209l-.323 8.686a.623.623 0 0 0 .625.648c.357 0 .64-.292.625-.648l-.325-8.686a1.406 1.406 0 0 0-.023-.21zm2.506-6.831a.279.279 0 0 0 .279-.278V21.94a.278.278 0 0 0-.557 0v5.901a.276.276 0 0 0 .278.278zm8.631 19.415v-5.688a.278.278 0 0 0-.555 0v5.689a1.223 1.223 0 0 0-.024.209l-.323 8.686a.623.623 0 0 0 .625.649c.357 0 .64-.292.625-.649l-.322-8.686a2.23 2.23 0 0 0-.026-.21zm16.705 4.935v-.531a.278.278 0 0 0-.556 0v.533a1.347 1.347 0 0 0-.024.209l-.323 8.672a.62.62 0 0 0 .623.648c.357 0 .64-.292.625-.648l-.322-8.672a1.514 1.514 0 0 0-.023-.211zm-5.57-.614v-.998a.278.278 0 0 0-.556 0v.998a1.51 1.51 0 0 0-.024.211l-.322 8.686a.621.621 0 0 0 .624.648.623.623 0 0 0 .625-.648l-.323-8.686a1.099 1.099 0 0 0-.024-.211zm-5.567-1.558v-2.264a.279.279 0 0 0-.557 0v2.264a1.274 1.274 0 0 0-.023.21l-.323 8.687a.623.623 0 0 0 .625.648.622.622 0 0 0 .625-.648l-.323-8.687a1.53 1.53 0 0 0-.024-.21zm16.705 1.96v-.532a.278.278 0 0 0-.278-.276.278.278 0 0 0-.279.276v.533a1.364 1.364 0 0 0-.023.209l-.323 8.678c-.014.357.268.649.625.649s.639-.292.625-.649l-.323-8.678a1.513 1.513 0 0 0-.024-.21z"/><path fill="#FFF" d="M76.383 24.159h-5.072v13.554h1.434v-4.279h3.64c1.729 0 3.085-.41 4.065-1.229.98-.82 1.473-1.953 1.473-3.398s-.49-2.582-1.473-3.408c-.982-.827-2.339-1.24-4.067-1.24zm3.04 7.135c-.711.587-1.735.881-3.079.881h-3.601v-6.777h3.601c1.344 0 2.368.294 3.079.881.709.587 1.063 1.43 1.063 2.526 0 1.072-.354 1.902-1.063 2.489zm16.102-6.36c-1.077-.594-2.287-.891-3.631-.891-1.342 0-2.559.3-3.648.9a6.593 6.593 0 0 0-2.557 2.469c-.612 1.046-.92 2.22-.92 3.524 0 1.305.308 2.479.92 3.523a6.566 6.566 0 0 0 2.557 2.469c1.091.602 2.309.9 3.648.9 1.344 0 2.554-.297 3.631-.891a6.593 6.593 0 0 0 2.547-2.47c.619-1.051.929-2.229.929-3.533s-.31-2.481-.929-3.534a6.59 6.59 0 0 0-2.547-2.466zm1.308 8.877a5.263 5.263 0 0 1-2.033 2.015c-.864.485-1.832.727-2.903.727s-2.043-.241-2.914-.727-1.556-1.154-2.053-2.015c-.496-.856-.744-1.815-.744-2.875 0-1.058.248-2.017.744-2.875a5.312 5.312 0 0 1 2.053-2.014c.871-.484 1.843-.726 2.914-.726s2.039.242 2.903.726c.865.484 1.543 1.155 2.033 2.014s.735 1.817.735 2.875-.245 2.017-.735 2.875zm6.053 3.902h1.433V24.159h-1.433v13.554zm16.219-2.557l-8.731-10.998h-1.181v13.554h1.433V26.715l8.713 10.998h1.183V24.159h-1.414v10.997h-.003zm4.416-10.997v1.239h4.765v12.315h1.433V25.398h4.764v-1.239h-10.962zm-92.33 3.388c.574-.323 1.229-.484 1.966-.484 1.252 0 2.316.53 3.194 1.588l2.44-2.207c-.659-.826-1.485-1.458-2.479-1.897s-2.109-.659-3.35-.659c-1.42 0-2.695.3-3.824.9s-2.017 1.436-2.662 2.507c-.646 1.072-.968 2.285-.968 3.64s.323 2.568.968 3.641c.646 1.07 1.533 1.906 2.662 2.507s2.404.899 3.824.899c1.239 0 2.354-.219 3.35-.657a6.443 6.443 0 0 0 2.479-1.897l-2.44-2.207c-.878 1.059-1.942 1.588-3.194 1.588-.735 0-1.392-.162-1.966-.483a3.352 3.352 0 0 1-1.336-1.365c-.315-.588-.474-1.262-.474-2.023s.158-1.436.474-2.023a3.366 3.366 0 0 1 1.336-1.368zm14.786 0c.574-.323 1.229-.484 1.965-.484 1.252 0 2.317.53 3.195 1.588l2.44-2.207c-.659-.826-1.485-1.458-2.479-1.897s-2.11-.659-3.35-.659c-1.42 0-2.695.3-3.824.9s-2.017 1.436-2.662 2.507c-.646 1.072-.968 2.285-.968 3.64s.323 2.568.968 3.641c.646 1.07 1.533 1.906 2.662 2.507s2.404.899 3.824.899c1.238 0 2.354-.219 3.35-.657a6.443 6.443 0 0 0 2.479-1.897l-2.44-2.207c-.878 1.059-1.943 1.588-3.195 1.588-.734 0-1.391-.162-1.965-.483a3.346 3.346 0 0 1-1.336-1.365c-.315-.588-.474-1.262-.474-2.023s.158-1.436.474-2.023c.316-.59.76-1.045 1.336-1.368zm16.75 7.262c-.734 0-1.391-.162-1.965-.483-.575-.322-1.02-.777-1.336-1.365s-.474-1.262-.474-2.023.157-1.436.474-2.023.762-1.042 1.336-1.365c.574-.323 1.229-.484 1.965-.484 1.252 0 2.317.53 3.195 1.588l2.439-2.207c-.658-.826-1.484-1.458-2.479-1.897s-2.11-.659-3.35-.659c-1.421 0-2.695.3-3.824.9s-2.018 1.436-2.662 2.507c-.646 1.072-.968 2.285-.968 3.64s.322 2.568.968 3.641c.645 1.07 1.533 1.906 2.662 2.507s2.403.899 3.824.899c1.238 0 2.354-.219 3.35-.657a6.443 6.443 0 0 0 2.479-1.897l-2.439-2.207c-.879 1.055-1.943 1.585-3.195 1.585z"/></svg>