<svg xmlns="http://www.w3.org/2000/svg" width="64" height="64"><path fill="#0ED0FF" d="M14.322 9.145c-9.763 9.763-9.763 25.593 0 35.355L32 62.178 49.678 44.5c9.763-9.763 9.763-25.593 0-35.355s-25.593-9.763-35.356 0z"/><path fill="#FFF" d="M27.917 13.024a.152.152 0 0 0 .152-.152v-2.035a.153.153 0 0 0-.305 0v2.035c0 .084.068.152.153.152zm-1.527-1.168a.153.153 0 0 0 .153-.152v-.509a.153.153 0 1 0-.306 0v.509c0 .084.068.152.153.152zm1.527 2.409a.152.152 0 0 0 .152-.152v-.223a.153.153 0 0 0-.305 0v.223c0 .083.068.152.153.152zm0 2.343a.152.152 0 0 0 .152-.152v-.816a.152.152 0 1 0-.305 0v.816c0 .084.068.152.153.152zm4.58-2.146a.153.153 0 0 0 .152-.153v-1.772a.153.153 0 0 0-.305 0v1.772c0 .084.069.153.153.153zm-1.527-.481a.152.152 0 0 0 .152-.152v-.274a.152.152 0 1 0-.305 0v.274c0 .084.069.152.153.152zm-1.527 2.233a.152.152 0 0 0 .152-.152v-3.416a.153.153 0 0 0-.305 0v3.416a.153.153 0 0 0 .153.152zm1.527-.197a.152.152 0 0 0 .152-.152v-.509a.151.151 0 0 0-.152-.152.152.152 0 0 0-.153.152v.509c0 .083.069.152.153.152zm1.527-.03a.152.152 0 0 0 .152-.152v-.509a.153.153 0 0 0-.305 0v.509c0 .084.069.152.153.152zm-3.054-4.716a.152.152 0 0 0 .152-.152v-.509a.152.152 0 1 0-.305 0v.509a.154.154 0 0 0 .153.152zm1.527.91a.152.152 0 0 0 .152-.152v-1.527a.153.153 0 0 0-.305 0v1.527c0 .083.069.152.153.152zm-7.635 7.305a.152.152 0 0 0 .153-.153v-.537a.152.152 0 0 0-.305 0v.537a.153.153 0 0 0 .152.153zm0-2.064a.152.152 0 0 0 .153-.153v-2.862a.152.152 0 1 0-.305 0v2.862a.153.153 0 0 0 .152.153zm-1.526-.714a.152.152 0 0 0 .152-.152v-.276a.152.152 0 1 0-.304 0v.275c0 .085.068.153.152.153zm0-1.293a.152.152 0 0 0 .152-.152v-2.036a.152.152 0 1 0-.304 0v2.036c0 .084.068.152.152.152zm4.581-.229a.153.153 0 0 0 .153-.152v-1.802a.153.153 0 1 0-.306 0v1.802c0 .083.068.152.153.152zm-3.055-2.154a.152.152 0 0 0 .153-.152v-.51a.152.152 0 0 0-.305 0v.51a.153.153 0 0 0 .152.152zm1.528.348a.153.153 0 0 0 .153-.152V11.7c0-.084-.068-.152-.153-.152s-.153.068-.153.152v1.527a.152.152 0 0 0 .153.153zm0 4.778a.153.153 0 0 0 .153-.152v-1.45c0-.084-.068-.152-.153-.152s-.153.068-.153.152v1.45a.152.152 0 0 0 .153.152zm1.527-.92a.153.153 0 0 0 .153-.152v-1.035a.153.153 0 1 0-.306 0v1.035c0 .084.068.152.153.152zm-1.527-2.057a.153.153 0 0 0 .153-.152v-.274c0-.085-.068-.153-.153-.153s-.153.068-.153.153v.274a.152.152 0 0 0 .153.152zm16.794 2.076a.152.152 0 0 0 .152-.153v-1.79a.152.152 0 1 0-.304 0v1.79c0 .084.068.153.152.153zm-1.526-2.19a.151.151 0 0 0 .152-.152v-2.538a.152.152 0 1 0-.305 0v2.538c0 .084.068.152.153.152zm1.526 3.924a.152.152 0 0 0 .152-.152v-.717c0-.085-.068-.152-.152-.152s-.152.067-.152.152v.717c0 .084.068.152.152.152zm-19.848 2.561a.152.152 0 0 0 .152-.152v-3.826a.152.152 0 1 0-.304 0V21.4c0 .083.068.152.152.152zm18.322-2.385a.151.151 0 0 0 .152-.152v-1.74a.152.152 0 1 0-.305 0v1.74c0 .084.068.152.153.152zm0-3.082a.151.151 0 0 0 .152-.152v-.19c0-.084-.067-.152-.152-.152s-.153.068-.153.152v.19c0 .084.068.152.153.152zm3.054 1.471a.152.152 0 0 0 .152-.153v-.436a.152.152 0 1 0-.304 0v.436a.152.152 0 0 0 .152.153zm-1.528-3.617a.152.152 0 0 0 .152-.152v-.521a.152.152 0 1 0-.304 0v.521c0 .084.068.152.152.152zm1.528 1.654a.152.152 0 0 0 .152-.152v-1.012a.152.152 0 1 0-.304 0v1.012a.151.151 0 0 0 .152.152zm1.525.554a.178.178 0 1 0-.177-.178c0 .099.079.178.177.178zm-6.106-3.779a.152.152 0 0 0 .153-.152v-.52a.152.152 0 0 0-.305 0v.52a.151.151 0 0 0 .152.152zm0 5.568a.152.152 0 0 0 .153-.152v-1.228a.152.152 0 0 0-.305 0v1.228a.152.152 0 0 0 .152.152zm-3.054-6.438a.152.152 0 0 0 .153-.152v-.515a.152.152 0 0 0-.305 0v.515a.151.151 0 0 0 .152.152zm0 4.98a.152.152 0 0 0 .153-.152v-3.453a.152.152 0 0 0-.305 0v3.453a.152.152 0 0 0 .152.152zm-1.527-3.68a.152.152 0 0 0 .153-.152v-2.038a.153.153 0 1 0-.306 0v2.038c0 .083.069.152.153.152zm0 3.334a.152.152 0 0 0 .153-.152v-.527a.153.153 0 1 0-.306 0v.527c0 .083.069.152.153.152zm0-1.807a.152.152 0 0 0 .153-.153v-.229a.153.153 0 1 0-.306 0v.229c0 .085.069.153.153.153zm3.054 2.737a.152.152 0 0 0 .152-.152v-.858a.152.152 0 1 0-.304 0v.858c0 .083.068.152.152.152zm-4.58-5.899a.152.152 0 0 0 .152-.152v-.51a.153.153 0 0 0-.305 0v.51c0 .084.069.152.153.152zm4.58 2.268a.152.152 0 0 0 .152-.152V11.19a.152.152 0 1 0-.304 0v2.089c0 .083.068.152.152.152zm1.527 2.281a.152.152 0 0 0 .153-.152v-1.816a.152.152 0 1 0-.305 0v1.816a.151.151 0 0 0 .152.152zm-1.527-.754a.152.152 0 0 0 .152-.153v-.28a.152.152 0 1 0-.304 0v.28c0 .085.068.153.152.153zm-18.321 1.396a.152.152 0 0 0 .152-.152v-.51a.153.153 0 0 0-.305 0v.51c0 .084.068.152.153.152zm-1.527 11.211a.152.152 0 0 0 .152-.152v-.275a.153.153 0 0 0-.305 0v.275c0 .084.069.152.153.152zm-1.527-3.951a.152.152 0 0 0 .152-.152v-3.329a.152.152 0 1 0-.305 0v3.329c0 .084.069.152.153.152zm-1.527 3.229a.255.255 0 0 0-.255.255v.356a.254.254 0 1 0 .509 0v-.356a.254.254 0 0 0-.254-.255zm31.27 10.951a.898.898 0 1 0-.002 1.796.898.898 0 0 0 .002-1.796zm-25.163-9.348a.153.153 0 0 0 .153-.152v-2.035a.153.153 0 0 0-.153-.154.153.153 0 0 0-.152.154v2.035c0 .084.068.152.152.152zm-1.526-5.994a.152.152 0 0 0 .152-.152v-1.801a.151.151 0 0 0-.152-.152.152.152 0 0 0-.153.152V22.3c0 .084.068.152.153.152zm1.526-4.154a.153.153 0 0 0 .153-.152v-1.802a.152.152 0 1 0-.305 0v1.802c0 .083.068.152.152.152zm-3.053.905a.152.152 0 0 0 .152-.153v-1.525a.152.152 0 1 0-.305 0v1.525c0 .085.069.153.153.153zm0 1.802a.152.152 0 0 0 .152-.152v-.275a.153.153 0 0 0-.305 0v.275c0 .084.069.152.153.152zM38.757 37.9v-1.013a.152.152 0 0 0-.305 0v1.014a.673.673 0 0 0-.013.114l-.178 4.77a.341.341 0 0 0 .343.356c.196 0 .351-.16.344-.356l-.177-4.77a.86.86 0 0 0-.014-.115zm-3.054.874v-.411a.152.152 0 0 0-.305 0v.411a.804.804 0 0 0-.014.115l-.176 4.764a.34.34 0 0 0 .342.355c.196 0 .352-.16.344-.355l-.178-4.764a.71.71 0 0 0-.013-.115zm1.526-.351v-.65a.152.152 0 1 0-.304 0v.65a.804.804 0 0 0-.014.115l-.177 4.754a.341.341 0 0 0 .343.355.34.34 0 0 0 .342-.355l-.176-4.754a.67.67 0 0 0-.014-.115zm3.054-1.194v-1.588c0-.084-.067-.152-.152-.152s-.153.068-.153.152v1.588a.808.808 0 0 0-.013.115l-.177 4.762c-.008.195.146.355.343.355s.35-.16.343-.355l-.178-4.762a.825.825 0 0 0-.013-.115zm1.527-.888v-.521a.152.152 0 1 0-.304 0v.523a.793.793 0 0 0-.014.113l-.177 4.763a.343.343 0 0 0 .343.356c.196 0 .351-.16.344-.356l-.178-4.763a.978.978 0 0 0-.014-.115zm1.527 1.193v-.26a.152.152 0 1 0-.304 0v.26a.61.61 0 0 0-.023.146l-.157 2.38a.33.33 0 0 0 .333.355.329.329 0 0 0 .332-.355l-.156-2.38a1.031 1.031 0 0 0-.025-.146zm-22.902-2.193v-5.532a.152.152 0 1 0-.305 0v5.532a.685.685 0 0 0-.013.115l-.177 4.763a.342.342 0 0 0 .343.356c.196 0 .35-.16.343-.356l-.177-4.763a.978.978 0 0 0-.014-.115zm-3.054-3.209v-3.195a.153.153 0 0 0-.305 0v3.195a.804.804 0 0 0-.014.115l-.177 4.762a.342.342 0 0 0 .343.357.342.342 0 0 0 .343-.357l-.177-4.762a.586.586 0 0 0-.013-.115zm1.527 1.829V23.827a.153.153 0 0 0-.305 0v10.135a.966.966 0 0 0-.013.114l-.177 4.764a.342.342 0 0 0 .343.356c.196 0 .35-.16.343-.356l-.177-4.764a1.005 1.005 0 0 0-.014-.115zm-3.054-4.446v-4.526a.153.153 0 0 0-.305 0v4.526a.685.685 0 0 0-.013.115l-.177 4.762a.342.342 0 1 0 .685 0l-.176-4.762a.683.683 0 0 0-.014-.115zm4.428-14.545a.153.153 0 0 0 .153-.152v-.51a.152.152 0 0 0-.305 0v.51c0 .083.068.152.152.152zm-1.526 4.713a.152.152 0 0 0 .152-.152v-1.802a.152.152 0 1 0-.305 0v1.802c0 .083.068.152.153.152zm1.526 5.189a.153.153 0 0 0 .153-.152v-5.111a.152.152 0 0 0-.305 0v5.111c0 .084.068.152.152.152zm-3.053.897a.152.152 0 0 0 .152-.152V22.38a.151.151 0 0 0-.152-.152.152.152 0 0 0-.153.152v3.236c0 .084.069.153.153.153zm4.732 10.646v-3.119a.152.152 0 1 0-.304 0v3.119a.71.71 0 0 0-.013.115l-.177 4.764a.341.341 0 0 0 .343.355c.196 0 .35-.16.343-.355l-.177-4.764a.708.708 0 0 0-.015-.115zm1.528.851v-1.904a.152.152 0 1 0-.305 0v1.905a.79.79 0 0 0-.014.114l-.176 4.763a.34.34 0 0 0 .341.356c.197 0 .351-.16.344-.356l-.178-4.763a.7.7 0 0 0-.012-.115zm7.634 1.856v-.292a.152.152 0 1 0-.305 0v.292a.685.685 0 0 0-.013.115l-.178 4.755a.342.342 0 0 0 .344.356c.195 0 .35-.16.343-.356l-.177-4.755a1.248 1.248 0 0 0-.014-.115zm-1.527-.117v-.372a.152.152 0 1 0-.305 0v.372a.71.71 0 0 0-.013.115l-.178 4.768c-.007.195.147.355.343.355s.35-.16.343-.355l-.177-4.768a.842.842 0 0 0-.013-.115zm3.053.145v-.292a.153.153 0 0 0-.305 0v.292a.818.818 0 0 0-.014.116l-.177 4.723a.341.341 0 0 0 .343.355c.195 0 .35-.16.343-.355l-.177-4.723a.722.722 0 0 0-.013-.116zm-6.107-.727v-.814a.153.153 0 0 0-.306 0v.814a.808.808 0 0 0-.013.115l-.177 4.771a.341.341 0 0 0 .343.355.34.34 0 0 0 .343-.355l-.177-4.771a.685.685 0 0 0-.013-.115zm1.527.362v-.547a.152.152 0 1 0-.305 0v.548a.673.673 0 0 0-.013.114l-.177 4.763a.341.341 0 0 0 .343.356c.196 0 .35-.16.343-.356l-.177-4.763a.822.822 0 0 0-.014-.115zm-3.053-.854v-1.242c0-.084-.068-.152-.153-.152s-.153.068-.153.152v1.242a.984.984 0 0 0-.013.115l-.177 4.763a.342.342 0 0 0 .343.356c.196 0 .35-.16.343-.356l-.177-4.763a.984.984 0 0 0-.013-.115zm9.161 1.074v-.291a.153.153 0 1 0-.306 0v.291a.71.71 0 0 0-.012.115l-.178 4.76a.34.34 0 0 0 .343.355.34.34 0 0 0 .343-.355l-.177-4.76a1.036 1.036 0 0 0-.013-.115z"/></svg>