<?xml version="1.0" encoding="utf-8"?>
<!-- Generator: Adobe Illustrator 16.0.0, SVG Export Plug-In . SVG Version: 6.00 Build 0)  -->
<!DOCTYPE svg PUBLIC "-//W3C//DTD SVG 1.1//EN" "http://www.w3.org/Graphics/SVG/1.1/DTD/svg11.dtd">
<svg version="1.1" id="Layer_1" xmlns="http://www.w3.org/2000/svg" xmlns:xlink="http://www.w3.org/1999/xlink" x="0px" y="0px"
	 width="64px" height="64px" viewBox="0 0 64 64" enable-background="new 0 0 64 64" xml:space="preserve">
<g>
	<path fill="#0ED0FF" d="M14.322,9.145c-9.763,9.763-9.763,25.593,0,35.355L32,62.178L49.678,44.5
		c9.763-9.763,9.763-25.593,0-35.355S24.085-0.618,14.322,9.145z"/>
	<g>
		<path fill="#FFFFFF" d="M27.917,13.024c0.084,0,0.152-0.068,0.152-0.152v-2.035c0-0.084-0.068-0.152-0.152-0.152
			c-0.084,0-0.153,0.068-0.153,0.152v2.035C27.764,12.956,27.832,13.024,27.917,13.024z M26.39,11.856
			c0.084,0,0.153-0.068,0.153-0.152v-0.509c0-0.085-0.069-0.153-0.153-0.153c-0.084,0-0.153,0.068-0.153,0.153v0.509
			C26.237,11.788,26.305,11.856,26.39,11.856z M27.917,14.265c0.084,0,0.152-0.068,0.152-0.152V13.89
			c0-0.084-0.068-0.152-0.152-0.152c-0.084,0-0.153,0.068-0.153,0.152v0.223C27.764,14.196,27.832,14.265,27.917,14.265z
			 M27.917,16.608c0.084,0,0.152-0.068,0.152-0.152V15.64c0-0.085-0.068-0.153-0.152-0.153c-0.084,0-0.153,0.068-0.153,0.153v0.816
			C27.764,16.54,27.832,16.608,27.917,16.608z M32.497,14.462c0.084,0,0.152-0.069,0.152-0.153v-1.772
			c0-0.084-0.068-0.152-0.152-0.152s-0.153,0.068-0.153,0.152v1.772C32.344,14.393,32.413,14.462,32.497,14.462z M30.97,13.981
			c0.084,0,0.152-0.068,0.152-0.152v-0.274c0-0.085-0.068-0.153-0.152-0.153c-0.084,0-0.153,0.068-0.153,0.153v0.274
			C30.817,13.913,30.886,13.981,30.97,13.981z M29.443,16.214c0.084,0,0.152-0.068,0.152-0.152v-3.416
			c0-0.084-0.068-0.152-0.152-0.152s-0.153,0.068-0.153,0.152v3.416C29.291,16.146,29.359,16.214,29.443,16.214z M30.97,16.017
			c0.084,0,0.152-0.068,0.152-0.152v-0.509c0-0.085-0.068-0.152-0.152-0.152c-0.084,0-0.153,0.067-0.153,0.152v0.509
			C30.817,15.948,30.886,16.017,30.97,16.017z M32.497,15.987c0.084,0,0.152-0.068,0.152-0.152v-0.509
			c0-0.084-0.068-0.152-0.152-0.152s-0.153,0.068-0.153,0.152v0.509C32.344,15.919,32.413,15.987,32.497,15.987z M29.443,11.271
			c0.084,0,0.152-0.068,0.152-0.152v-0.509c0-0.085-0.068-0.153-0.152-0.153s-0.153,0.068-0.153,0.153v0.509
			C29.291,11.202,29.359,11.271,29.443,11.271z M30.97,12.181c0.084,0,0.152-0.068,0.152-0.152v-1.527
			c0-0.084-0.068-0.152-0.152-0.152c-0.084,0-0.153,0.068-0.153,0.152v1.527C30.817,12.112,30.886,12.181,30.97,12.181z
			 M23.335,19.486c0.085,0,0.153-0.068,0.153-0.153v-0.537c0-0.084-0.068-0.152-0.153-0.152c-0.084,0-0.152,0.068-0.152,0.152v0.537
			C23.184,19.418,23.251,19.486,23.335,19.486z M23.335,17.422c0.085,0,0.153-0.068,0.153-0.153v-2.862
			c0-0.085-0.068-0.153-0.153-0.153c-0.084,0-0.152,0.068-0.152,0.153v2.862C23.184,17.354,23.251,17.422,23.335,17.422z
			 M21.809,16.708c0.084,0,0.152-0.068,0.152-0.152V16.28c0-0.084-0.068-0.152-0.152-0.152s-0.152,0.068-0.152,0.152v0.275
			C21.657,16.64,21.725,16.708,21.809,16.708z M21.809,15.415c0.084,0,0.152-0.068,0.152-0.152v-2.036
			c0-0.085-0.068-0.153-0.152-0.153s-0.152,0.068-0.152,0.153v2.036C21.657,15.347,21.725,15.415,21.809,15.415z M26.39,15.186
			c0.084,0,0.153-0.068,0.153-0.152v-1.802c0-0.085-0.069-0.153-0.153-0.153c-0.084,0-0.153,0.068-0.153,0.153v1.802
			C26.237,15.117,26.305,15.186,26.39,15.186z M23.335,13.032c0.085,0,0.153-0.068,0.153-0.152v-0.51
			c0-0.084-0.068-0.152-0.153-0.152c-0.084,0-0.152,0.068-0.152,0.152v0.51C23.184,12.964,23.251,13.032,23.335,13.032z
			 M24.863,13.38c0.084,0,0.153-0.068,0.153-0.152V11.7c0-0.084-0.068-0.152-0.153-0.152s-0.153,0.068-0.153,0.152v1.527
			C24.709,13.312,24.778,13.38,24.863,13.38z M24.863,18.158c0.084,0,0.153-0.068,0.153-0.152v-1.45
			c0-0.084-0.068-0.152-0.153-0.152s-0.153,0.068-0.153,0.152v1.45C24.709,18.09,24.778,18.158,24.863,18.158z M26.39,17.238
			c0.084,0,0.153-0.068,0.153-0.152v-1.035c0-0.085-0.069-0.153-0.153-0.153c-0.084,0-0.153,0.068-0.153,0.153v1.035
			C26.237,17.17,26.305,17.238,26.39,17.238z M24.863,15.181c0.084,0,0.153-0.068,0.153-0.152v-0.274
			c0-0.085-0.068-0.153-0.153-0.153s-0.153,0.068-0.153,0.153v0.274C24.709,15.112,24.778,15.181,24.863,15.181z M41.657,17.257
			c0.084,0,0.152-0.068,0.152-0.153v-1.79c0-0.084-0.068-0.152-0.152-0.152s-0.152,0.068-0.152,0.152v1.79
			C41.505,17.188,41.573,17.257,41.657,17.257z M40.131,15.067c0.085,0,0.152-0.068,0.152-0.152v-2.538
			c0-0.085-0.067-0.153-0.152-0.153s-0.153,0.068-0.153,0.153v2.538C39.978,14.999,40.046,15.067,40.131,15.067z M41.657,18.991
			c0.084,0,0.152-0.068,0.152-0.152v-0.717c0-0.085-0.068-0.152-0.152-0.152s-0.152,0.067-0.152,0.152v0.717
			C41.505,18.923,41.573,18.991,41.657,18.991z M21.809,21.552c0.084,0,0.152-0.068,0.152-0.152v-3.826
			c0-0.084-0.068-0.152-0.152-0.152s-0.152,0.068-0.152,0.152v3.826C21.657,21.483,21.725,21.552,21.809,21.552z M40.131,19.167
			c0.085,0,0.152-0.068,0.152-0.152v-1.74c0-0.085-0.067-0.153-0.152-0.153s-0.153,0.068-0.153,0.153v1.74
			C39.978,19.099,40.046,19.167,40.131,19.167z M40.131,16.085c0.085,0,0.152-0.068,0.152-0.152v-0.19
			c0-0.084-0.067-0.152-0.152-0.152s-0.153,0.068-0.153,0.152v0.19C39.978,16.017,40.046,16.085,40.131,16.085z M43.185,17.556
			c0.084,0,0.152-0.068,0.152-0.153v-0.436c0-0.085-0.068-0.153-0.152-0.153c-0.085,0-0.152,0.068-0.152,0.153v0.436
			C43.032,17.487,43.1,17.556,43.185,17.556z M41.657,13.939c0.084,0,0.152-0.068,0.152-0.152v-0.521
			c0-0.084-0.068-0.152-0.152-0.152s-0.152,0.068-0.152,0.152v0.521C41.505,13.871,41.573,13.939,41.657,13.939z M43.185,15.593
			c0.084,0,0.152-0.068,0.152-0.152v-1.012c0-0.084-0.068-0.152-0.152-0.152c-0.085,0-0.152,0.068-0.152,0.152v1.012
			C43.032,15.524,43.1,15.593,43.185,15.593z M44.71,16.147c0.1,0,0.18-0.079,0.18-0.178c0-0.098-0.08-0.178-0.18-0.178
			c-0.098,0-0.177,0.08-0.177,0.178C44.533,16.068,44.612,16.147,44.71,16.147z M38.604,12.368c0.085,0,0.153-0.068,0.153-0.152
			v-0.52c0-0.084-0.068-0.152-0.153-0.152c-0.084,0-0.152,0.068-0.152,0.152v0.52C38.451,12.3,38.52,12.368,38.604,12.368z
			 M38.604,17.936c0.085,0,0.153-0.068,0.153-0.152v-1.228c0-0.084-0.068-0.152-0.153-0.152c-0.084,0-0.152,0.068-0.152,0.152v1.228
			C38.451,17.867,38.52,17.936,38.604,17.936z M35.55,11.498c0.085,0,0.153-0.068,0.153-0.152v-0.515
			c0-0.084-0.068-0.152-0.153-0.152c-0.084,0-0.152,0.068-0.152,0.152v0.515C35.397,11.43,35.466,11.498,35.55,11.498z
			 M35.55,16.478c0.085,0,0.153-0.068,0.153-0.152v-3.453c0-0.084-0.068-0.152-0.153-0.152c-0.084,0-0.152,0.068-0.152,0.152v3.453
			C35.397,16.409,35.466,16.478,35.55,16.478z M34.023,12.798c0.085,0,0.153-0.068,0.153-0.152v-2.038
			c0-0.085-0.068-0.153-0.153-0.153c-0.084,0-0.153,0.068-0.153,0.153v2.038C33.87,12.729,33.939,12.798,34.023,12.798z
			 M34.023,16.132c0.085,0,0.153-0.068,0.153-0.152v-0.527c0-0.084-0.068-0.152-0.153-0.152c-0.084,0-0.153,0.068-0.153,0.152v0.527
			C33.87,16.063,33.939,16.132,34.023,16.132z M34.023,14.325c0.085,0,0.153-0.068,0.153-0.153v-0.229
			c0-0.084-0.068-0.152-0.153-0.152c-0.084,0-0.153,0.068-0.153,0.152v0.229C33.87,14.257,33.939,14.325,34.023,14.325z
			 M37.077,17.062c0.084,0,0.152-0.068,0.152-0.152v-0.858c0-0.085-0.068-0.153-0.152-0.153s-0.152,0.068-0.152,0.153v0.858
			C36.925,16.993,36.993,17.062,37.077,17.062z M32.497,11.163c0.084,0,0.152-0.068,0.152-0.152v-0.51
			c0-0.084-0.068-0.152-0.152-0.152s-0.153,0.068-0.153,0.152v0.51C32.344,11.095,32.413,11.163,32.497,11.163z M37.077,13.431
			c0.084,0,0.152-0.068,0.152-0.152v-2.089c0-0.085-0.068-0.153-0.152-0.153s-0.152,0.068-0.152,0.153v2.089
			C36.925,13.362,36.993,13.431,37.077,13.431z M38.604,15.712c0.085,0,0.153-0.068,0.153-0.152v-1.816
			c0-0.085-0.068-0.153-0.153-0.153c-0.084,0-0.152,0.068-0.152,0.153v1.816C38.451,15.644,38.52,15.712,38.604,15.712z
			 M37.077,14.958c0.084,0,0.152-0.068,0.152-0.153v-0.28c0-0.084-0.068-0.152-0.152-0.152s-0.152,0.068-0.152,0.152v0.28
			C36.925,14.89,36.993,14.958,37.077,14.958z M18.756,16.354c0.084,0,0.152-0.068,0.152-0.152v-0.51
			c0-0.084-0.068-0.152-0.152-0.152c-0.084,0-0.153,0.068-0.153,0.152v0.51C18.603,16.286,18.671,16.354,18.756,16.354z
			 M17.229,27.565c0.084,0,0.152-0.068,0.152-0.152v-0.275c0-0.084-0.068-0.152-0.152-0.152c-0.084,0-0.153,0.068-0.153,0.152v0.275
			C17.076,27.497,17.145,27.565,17.229,27.565z M15.702,23.614c0.084,0,0.152-0.068,0.152-0.152v-3.329
			c0-0.085-0.068-0.153-0.152-0.153s-0.153,0.068-0.153,0.153v3.329C15.549,23.546,15.618,23.614,15.702,23.614z M14.175,26.843
			c-0.141,0-0.255,0.114-0.255,0.255v0.356c0,0.141,0.114,0.254,0.255,0.254c0.14,0,0.254-0.113,0.254-0.254v-0.356
			C14.43,26.957,14.315,26.843,14.175,26.843z M45.445,37.794c-0.497,0-0.899,0.402-0.899,0.898s0.402,0.898,0.899,0.898
			c0.496,0,0.899-0.402,0.899-0.898S45.941,37.794,45.445,37.794z M20.282,28.446c0.084,0,0.153-0.068,0.153-0.152v-2.035
			c0-0.085-0.068-0.154-0.153-0.154c-0.084,0-0.152,0.069-0.152,0.154v2.035C20.13,28.378,20.198,28.446,20.282,28.446z
			 M18.756,22.452c0.084,0,0.152-0.068,0.152-0.152v-1.801c0-0.085-0.068-0.152-0.152-0.152c-0.084,0-0.153,0.067-0.153,0.152V22.3
			C18.603,22.384,18.671,22.452,18.756,22.452z M20.282,18.298c0.084,0,0.153-0.068,0.153-0.152v-1.802
			c0-0.085-0.068-0.153-0.153-0.153c-0.084,0-0.152,0.068-0.152,0.153v1.802C20.13,18.229,20.198,18.298,20.282,18.298z
			 M17.229,19.203c0.084,0,0.152-0.068,0.152-0.153v-1.525c0-0.085-0.068-0.153-0.152-0.153c-0.084,0-0.153,0.068-0.153,0.153v1.525
			C17.076,19.135,17.145,19.203,17.229,19.203z M17.229,21.005c0.084,0,0.152-0.068,0.152-0.152v-0.275
			c0-0.084-0.068-0.152-0.152-0.152c-0.084,0-0.153,0.068-0.153,0.152v0.275C17.076,20.937,17.145,21.005,17.229,21.005z
			 M38.757,37.9v-1.013c0-0.084-0.068-0.152-0.153-0.152c-0.084,0-0.152,0.068-0.152,0.152v1.014
			c-0.007,0.035-0.012,0.074-0.013,0.114l-0.178,4.77c-0.008,0.196,0.147,0.356,0.343,0.356c0.196,0,0.351-0.16,0.344-0.356
			l-0.177-4.77C38.769,37.976,38.764,37.937,38.757,37.9z M35.703,38.774v-0.411c0-0.084-0.068-0.152-0.153-0.152
			c-0.084,0-0.152,0.068-0.152,0.152v0.411c-0.007,0.036-0.012,0.074-0.014,0.115l-0.176,4.764
			c-0.008,0.195,0.146,0.355,0.342,0.355l0,0l0,0c0.196,0,0.352-0.16,0.344-0.355l-0.178-4.764
			C35.715,38.849,35.71,38.811,35.703,38.774z M37.229,38.423v-0.65c0-0.084-0.068-0.152-0.152-0.152s-0.152,0.068-0.152,0.152v0.65
			c-0.007,0.036-0.012,0.074-0.014,0.115l-0.177,4.754c-0.007,0.195,0.147,0.355,0.343,0.355l0,0c0.195,0,0.35-0.16,0.342-0.355
			l-0.176-4.754C37.241,38.497,37.237,38.458,37.229,38.423z M40.283,37.229v-1.588c0-0.084-0.067-0.152-0.152-0.152
			s-0.153,0.068-0.153,0.152v1.588c-0.006,0.036-0.012,0.074-0.013,0.115l-0.177,4.762c-0.008,0.195,0.146,0.355,0.343,0.355
			s0.35-0.16,0.343-0.355l-0.178-4.762C40.294,37.304,40.29,37.265,40.283,37.229z M41.81,36.341v-0.521
			c0-0.084-0.068-0.152-0.152-0.152s-0.152,0.068-0.152,0.152v0.523c-0.007,0.035-0.012,0.074-0.014,0.113l-0.177,4.763
			c-0.007,0.195,0.147,0.355,0.343,0.356l0,0l0,0l0,0c0.196,0,0.351-0.16,0.344-0.356l-0.178-4.763
			C41.822,36.415,41.816,36.377,41.81,36.341z M43.337,37.534v-0.26c0-0.085-0.068-0.153-0.152-0.153
			c-0.085,0-0.152,0.068-0.152,0.153v0.26c-0.013,0.045-0.021,0.094-0.023,0.146l-0.157,2.38c-0.013,0.196,0.137,0.355,0.333,0.355
			c0.195,0,0.346-0.159,0.332-0.355l-0.156-2.38C43.356,37.628,43.349,37.579,43.337,37.534z M20.435,35.341v-5.532
			c0-0.085-0.068-0.153-0.153-0.153c-0.084,0-0.152,0.068-0.152,0.153v5.532c-0.007,0.036-0.012,0.074-0.013,0.115l-0.177,4.763
			c-0.007,0.196,0.147,0.356,0.343,0.356l0,0c0,0,0,0,0,0c0.196,0,0.35-0.16,0.343-0.356l-0.177-4.763
			C20.447,35.415,20.441,35.377,20.435,35.341z M17.381,32.132v-3.195c0-0.084-0.068-0.152-0.152-0.152
			c-0.084,0-0.153,0.068-0.153,0.152v3.195c-0.007,0.036-0.012,0.074-0.014,0.115l-0.177,4.762
			c-0.007,0.196,0.147,0.357,0.343,0.357c0.196,0,0.351-0.161,0.343-0.357l-0.177-4.762C17.394,32.206,17.388,32.167,17.381,32.132z
			 M18.908,33.961V23.827c0-0.084-0.068-0.152-0.152-0.152c-0.084,0-0.153,0.068-0.153,0.152v10.135
			c-0.006,0.035-0.011,0.074-0.013,0.114l-0.177,4.764c-0.007,0.196,0.147,0.356,0.343,0.356c0.196,0,0.35-0.16,0.343-0.356
			l-0.177-4.764C18.919,34.036,18.915,33.997,18.908,33.961z M15.854,29.515v-4.526c0-0.084-0.068-0.152-0.152-0.152
			s-0.153,0.068-0.153,0.152v4.526c-0.007,0.036-0.012,0.074-0.013,0.115l-0.177,4.762c-0.007,0.196,0.147,0.357,0.343,0.357
			s0.35-0.161,0.342-0.357l-0.176-4.762C15.867,29.589,15.861,29.551,15.854,29.515z M20.282,14.97c0.084,0,0.153-0.068,0.153-0.152
			v-0.51c0-0.084-0.068-0.152-0.153-0.152c-0.084,0-0.152,0.068-0.152,0.152v0.51C20.13,14.901,20.198,14.97,20.282,14.97z
			 M18.756,19.683c0.084,0,0.152-0.068,0.152-0.152v-1.802c0-0.085-0.068-0.153-0.152-0.153c-0.084,0-0.153,0.068-0.153,0.153v1.802
			C18.603,19.614,18.671,19.683,18.756,19.683z M20.282,24.872c0.084,0,0.153-0.068,0.153-0.152v-5.111
			c0-0.084-0.068-0.152-0.153-0.152c-0.084,0-0.152,0.068-0.152,0.152v5.111C20.13,24.804,20.198,24.872,20.282,24.872z
			 M17.229,25.769c0.084,0,0.152-0.068,0.152-0.152V22.38c0-0.085-0.068-0.152-0.152-0.152c-0.084,0-0.153,0.067-0.153,0.152v3.236
			C17.076,25.7,17.145,25.769,17.229,25.769z M21.961,36.415v-3.119c0-0.085-0.068-0.153-0.152-0.153s-0.152,0.068-0.152,0.153
			v3.119c-0.007,0.037-0.012,0.075-0.013,0.115l-0.177,4.764c-0.007,0.195,0.147,0.355,0.343,0.355l0,0h0
			c0.196,0,0.35-0.16,0.343-0.355l-0.177-4.764C21.974,36.49,21.969,36.452,21.961,36.415z M23.489,37.266v-1.904
			c0-0.085-0.068-0.153-0.153-0.153c-0.084,0-0.152,0.068-0.152,0.153v1.905c-0.007,0.035-0.012,0.074-0.014,0.114l-0.176,4.763
			C22.986,42.34,23.14,42.5,23.335,42.5c0.197,0,0.351-0.16,0.344-0.356l-0.178-4.763C23.5,37.341,23.496,37.302,23.489,37.266z
			 M31.123,39.122V38.83c0-0.085-0.068-0.153-0.152-0.153c-0.084,0-0.153,0.068-0.153,0.153v0.292
			c-0.007,0.036-0.012,0.074-0.013,0.115l-0.178,4.755c-0.007,0.196,0.147,0.356,0.344,0.356c0.195,0,0.35-0.16,0.343-0.356
			l-0.177-4.755C31.134,39.196,31.129,39.158,31.123,39.122z M29.596,39.005v-0.372c0-0.085-0.068-0.153-0.152-0.153
			s-0.153,0.068-0.153,0.153v0.372c-0.007,0.037-0.012,0.075-0.013,0.115L29.1,43.888c-0.007,0.195,0.147,0.355,0.343,0.355
			s0.35-0.16,0.343-0.355l-0.177-4.768C29.607,39.08,29.603,39.042,29.596,39.005z M32.649,39.15v-0.292
			c0-0.084-0.068-0.152-0.152-0.152s-0.153,0.068-0.153,0.152v0.292c-0.007,0.036-0.012,0.075-0.014,0.116l-0.177,4.723
			c-0.007,0.195,0.147,0.355,0.343,0.355c0.195,0,0.35-0.16,0.343-0.355l-0.177-4.723C32.661,39.226,32.656,39.187,32.649,39.15z
			 M26.542,38.423v-0.814c0-0.084-0.069-0.152-0.153-0.152c-0.084,0-0.153,0.068-0.153,0.152v0.814
			c-0.006,0.036-0.012,0.074-0.013,0.115l-0.177,4.771c-0.007,0.195,0.147,0.355,0.343,0.355l0,0l0,0
			c0.196,0,0.351-0.16,0.343-0.355l-0.177-4.771C26.554,38.497,26.549,38.459,26.542,38.423z M28.069,38.785v-0.547
			c0-0.085-0.068-0.153-0.152-0.153c-0.084,0-0.153,0.068-0.153,0.153v0.548c-0.007,0.035-0.012,0.074-0.013,0.114l-0.177,4.763
			c-0.008,0.196,0.147,0.356,0.343,0.356l0,0c0.196,0,0.35-0.16,0.343-0.356L28.083,38.9C28.081,38.86,28.076,38.821,28.069,38.785z
			 M25.016,37.931v-1.242c0-0.084-0.068-0.152-0.153-0.152s-0.153,0.068-0.153,0.152v1.242c-0.006,0.036-0.011,0.074-0.013,0.115
			l-0.177,4.763c-0.007,0.196,0.147,0.356,0.343,0.356l0,0c0.196,0,0.35-0.16,0.343-0.356l-0.177-4.763
			C25.027,38.005,25.022,37.967,25.016,37.931z M34.177,39.005v-0.291c0-0.084-0.068-0.152-0.153-0.152
			c-0.084,0-0.153,0.068-0.153,0.152v0.291c-0.006,0.037-0.012,0.075-0.012,0.115l-0.178,4.76c-0.008,0.195,0.146,0.355,0.343,0.355
			l0,0c0.196,0,0.351-0.16,0.343-0.355l-0.177-4.76C34.188,39.08,34.183,39.042,34.177,39.005z"/>
	</g>
</g>
</svg>
