<svg xmlns="http://www.w3.org/2000/svg" width="20" height="12"><path fill="#FF5F00" d="M7.375 1.283h5.25v9.434h-5.25z"/><path fill="#EB001B" d="M7.709 6.002A5.991 5.991 0 0 1 10 1.283a6 6 0 1 0 .001 9.434 5.987 5.987 0 0 1-2.292-4.715z"/><path fill="#F79E1B" d="M19.706 6.002A5.998 5.998 0 0 1 10 10.717a6 6 0 0 0 0-9.434A6 6 0 0 1 19.706 6v.002zm-.573 3.715v-.194h.079v-.039h-.198v.039h.085v.193h.034zm.385 0v-.233h-.059l-.07.166-.07-.166h-.053v.232h.043v-.174l.064.151h.045l.065-.151v.177l.035-.002z"/></svg>