<svg xmlns="http://www.w3.org/2000/svg" width="120" height="120"><circle fill="#F60" cx="60" cy="60" r="50.333"/><path fill="#FFF" d="M94.977 53.729c-1.555-8.441-5.555-15.496-12.164-20.939-8.664-7.164-18.662-9.72-29.659-7.609-8.332 1.611-15.163 5.777-20.551 12.275-4.888 5.832-7.498 12.608-8.054 20.162-.333 4.498.222 8.831 1.5 13.107.111.444.333.556.777.556h9.387c.167 0 .389-.056.667-.056V41.399c7.72 7.776 15.385 15.385 23.161 23.161 7.721-7.72 15.385-15.329 23.05-23.105v29.771h9.997c.5 0 .667-.166.834-.611 1.666-5.554 2.11-11.165 1.055-16.886zM75.37 59.673c-5.165 5.166-10.274 10.22-15.44 15.385L44.545 59.673v18.773H29.659c5.443 9.498 18.163 18.773 34.548 16.829 5.387-.61 10.386-2.444 14.939-5.388 4.611-2.943 8.276-6.776 11.221-11.497H75.37V59.673z"/></svg>