<?xml version="1.0" encoding="utf-8"?>
<!-- Generator: Adobe Illustrator 16.0.0, SVG Export Plug-In . SVG Version: 6.00 Build 0)  -->
<!DOCTYPE svg PUBLIC "-//W3C//DTD SVG 1.1//EN" "http://www.w3.org/Graphics/SVG/1.1/DTD/svg11.dtd">
<svg version="1.1" id="Layer_1" xmlns="http://www.w3.org/2000/svg" xmlns:xlink="http://www.w3.org/1999/xlink" x="0px" y="0px"
	 width="120px" height="120px" viewBox="0 0 120 120" enable-background="new 0 0 120 120" xml:space="preserve">
<g>
	<g>
		<circle fill="#FF6600" cx="60" cy="60" r="50.333"/>
	</g>
	<path fill="#FFFFFF" d="M94.977,53.729c-1.555-8.441-5.555-15.496-12.164-20.939c-8.664-7.164-18.662-9.72-29.659-7.609
		c-8.332,1.611-15.163,5.777-20.551,12.275c-4.888,5.832-7.498,12.608-8.054,20.162c-0.333,4.498,0.222,8.831,1.5,13.107
		c0.111,0.444,0.333,0.556,0.777,0.556h9.387c0.167,0,0.389-0.056,0.667-0.056V41.399c7.72,7.776,15.385,15.385,23.161,23.161
		c7.721-7.72,15.385-15.329,23.05-23.105v29.771h9.997c0.5,0,0.667-0.166,0.834-0.611C95.588,65.061,96.032,59.45,94.977,53.729z
		 M75.37,59.673c-5.165,5.166-10.274,10.22-15.44,15.385c-5.11-5.109-10.22-10.219-15.385-15.385v18.773H29.659
		c5.443,9.498,18.163,18.773,34.548,16.829c5.387-0.61,10.386-2.444,14.939-5.388c4.611-2.943,8.276-6.776,11.221-11.497H75.37
		V59.673z"/>
</g>
</svg>
