<svg xmlns="http://www.w3.org/2000/svg" width="104" height="80" viewBox="-16 -24 104 80"><path class="hidden" d="M79.003 31.392a.964.964 0 0 1 0-1.927h4.533c.531 0 .964.433.964.964s-.433.963-.964.963h-4.533zm-90.54 0a.964.964 0 0 1 0-1.927h4.529c.533 0 .967.433.967.964s-.434.963-.967.963h-4.529zM75.734 14.93a.959.959 0 0 1-.89-.599.967.967 0 0 1 .521-1.255l2.094-.863a.957.957 0 0 1 1.256.522.966.966 0 0 1-.52 1.256l-2.093.867a.968.968 0 0 1-.368.072zm-79.47-.001a.978.978 0 0 1-.362-.069l-2.097-.868a.972.972 0 0 1-.526-1.254.964.964 0 0 1 1.266-.524l2.087.859a.974.974 0 0 1 .527 1.255.973.973 0 0 1-.895.601zM66.418.981a.964.964 0 0 1-.686-1.646l3.195-3.204a.966.966 0 0 1 1.363-.003c.378.38.378.991.004 1.366L67.098.699a.965.965 0 0 1-.68.282zm-60.832 0a.96.96 0 0 1-.684-.284L1.706-2.506a.965.965 0 0 1 1.366-1.361L6.268-.663A.96.96 0 0 1 5.586.981zM52.459-8.35c-.116 0-.234-.022-.352-.066a.97.97 0 0 1-.537-1.268l.865-2.084a.963.963 0 1 1 1.781.734l-.863 2.087a.97.97 0 0 1-.894.597zm-32.921 0a.965.965 0 0 1-.89-.594l-.863-2.089a.964.964 0 0 1 .888-1.331c.397 0 .748.236.893.602l.863 2.078c.098.238.098.5-.001.739a.958.958 0 0 1-.89.595zM36-11.617a.966.966 0 0 1-.963-.967v-4.525a.964.964 0 0 1 1.926 0v4.525a.966.966 0 0 1-.963.967z"/><linearGradient id="a" gradientUnits="userSpaceOnUse" x1="879.089" y1="568.651" x2="844.751" y2="534.314" gradientTransform="translate(-825.92 -522.32)"><stop offset="0" stop-color="#0ed0ff"/><stop offset="1" stop-color="#42d67e"/></linearGradient><path fill="url(#a)" d="M66.208 21.905a.999.999 0 0 0-1.414 0L59.898 26.8C58.708 14.576 48.374 4.989 35.84 4.989c-8.598 0-16.621 4.63-20.939 12.084a1 1 0 0 0 1.73 1.003C20.593 11.237 27.953 6.989 35.84 6.989c11.385 0 20.788 8.624 22.031 19.68L53.1 21.904a.998.998 0 0 0-1.414.001.997.997 0 0 0 0 1.414l6.558 6.549c.194.195.45.293.707.293.011 0 .021-.006.032-.006s.021.006.031.006a.984.984 0 0 0 .84-.491l6.354-6.351a.997.997 0 0 0 0-1.414zM56.734 39.89a.997.997 0 0 0-1.365.363c-3.967 6.836-11.327 11.084-19.215 11.084-11.384 0-20.787-8.627-22.028-19.688L18.9 36.42a.997.997 0 0 0 1.414-.002.999.999 0 0 0 0-1.414l-6.559-6.551a.99.99 0 0 0-.74-.286c-.012 0-.021-.007-.033-.007a.988.988 0 0 0-.846.498l-6.344 6.347a.999.999 0 0 0 .708 1.708.999.999 0 0 0 .707-.293l4.893-4.894c1.192 12.225 11.524 21.811 24.055 21.811 8.599 0 16.623-4.629 20.945-12.082a.997.997 0 0 0-.366-1.365zm-18.775-5.308c-.583.424-1.404.646-2.45.646-.884 0-1.647-.113-2.277-.346-.629-.229-1.258-.628-1.88-1.178l-.457.867c.582.55 1.259.962 2.016 1.232.63.219 1.354.327 2.138.364v1.867h.72V36.18c.771-.028 1.476-.158 2.065-.418.672-.291 1.189-.693 1.546-1.214.373-.521.558-1.114.558-1.798 0-.711-.195-1.271-.573-1.693a3.584 3.584 0 0 0-1.412-.934 24.331 24.331 0 0 0-2.266-.656l-.461-.104c-.984-.235-1.739-.521-2.249-.854-.518-.337-.776-.851-.776-1.548 0-.803.294-1.426.89-1.872.578-.458 1.402-.685 2.454-.685.725 0 1.406.125 1.999.368.607.248 1.195.631 1.79 1.162l.459-.867a5.344 5.344 0 0 0-1.883-1.213c-.657-.248-1.378-.375-2.14-.399v-1.996h-.72v1.998c-.69.047-1.312.188-1.845.422-.674.291-1.19.703-1.553 1.243-.367.534-.552 1.148-.552 1.859 0 .759.206 1.377.616 1.832.416.453.916.789 1.517 1.013.601.223 1.378.451 2.338.659a14.44 14.44 0 0 1 1.765.482c.431.166.794.387 1.074.678s.429.656.429 1.115c-.002.789-.292 1.387-.88 1.822z"/></svg>