<svg xmlns="http://www.w3.org/2000/svg" width="104" height="80" viewBox="-16 -24 104 80"><path class="hidden" d="M79.003 31.392a.964.964 0 0 1 0-1.927h4.533c.531 0 .964.433.964.964s-.433.963-.964.963h-4.533zm-90.54 0a.964.964 0 0 1 0-1.927h4.529c.533 0 .967.433.967.964s-.434.963-.967.963h-4.529zM75.734 14.93a.959.959 0 0 1-.89-.599.967.967 0 0 1 .521-1.255l2.094-.863a.957.957 0 0 1 1.256.522.966.966 0 0 1-.52 1.256l-2.093.867a.968.968 0 0 1-.368.072zm-79.47-.001a.978.978 0 0 1-.362-.069l-2.097-.868a.972.972 0 0 1-.526-1.254.964.964 0 0 1 1.266-.524l2.087.859a.974.974 0 0 1 .527 1.255.973.973 0 0 1-.895.601zM66.418.981a.964.964 0 0 1-.686-1.646l3.195-3.204a.966.966 0 0 1 1.363-.003c.378.38.378.991.004 1.366L67.098.699a.965.965 0 0 1-.68.282zm-60.832 0a.96.96 0 0 1-.684-.284L1.706-2.506a.965.965 0 0 1 1.366-1.361L6.268-.663A.96.96 0 0 1 5.586.981zM52.459-8.35c-.116 0-.234-.022-.352-.066a.97.97 0 0 1-.537-1.268l.865-2.084a.963.963 0 1 1 1.781.734l-.863 2.087a.97.97 0 0 1-.894.597zm-32.921 0a.965.965 0 0 1-.89-.594l-.863-2.089a.964.964 0 0 1 .888-1.331c.397 0 .748.236.893.602l.863 2.078c.098.238.098.5-.001.739a.958.958 0 0 1-.89.595zM36-11.617a.966.966 0 0 1-.963-.967v-4.525a.964.964 0 0 1 1.926 0v4.525a.966.966 0 0 1-.963.967z"/><linearGradient id="a" gradientUnits="userSpaceOnUse" x1="683.63" y1="654.994" x2="745.61" y2="654.994" gradientTransform="translate(-678.62 -627.62)"><stop offset="0" stop-color="#0ed0ff"/><stop offset="1" stop-color="#42d67e"/></linearGradient><path fill="url(#a)" d="M64.355 27.429l2.143-1.254v-8.9l.488-.285-.488-.287-30.5-17.956-30.5 17.956-.487.287.488.284v8.9l2.135 1.25-2.624 1.543.488.285v8.9l30.247 17.701.253.147 30.5-17.848v-8.901l.492-.287-2.635-1.535zM35.999-.093l29.013 17.08-29.013 16.976L6.986 16.985 35.999-.093zm-29.5 25.695V17.86l29.247 17.114.253.148 29.5-17.263v7.742l-2.133 1.249h-.003L35.999 42.863 8.875 26.992l-.076-.044-2.3-1.346zm2.124 2.4l27.123 15.871.253.148 27.367-16.015 1.643.958-29.01 16.977L6.987 28.965l1.636-.963zm56.875 9.578l-29.5 17.262-29.5-17.262v-7.742l29.247 17.113.253.148 29.5-17.263v7.744zM35.499 51.998h1v-3.424h-1v3.424zM8.922 36.499h1v-3.424h-1v3.424zm2.571 1.712h1V34.79h-1v3.421zm2.572 1.715h1v-3.424h-1v3.424zm45.898-6.013l-4.424 2.654v5.273l4.424-2.654v-5.273zm-1 4.706l-2.424 1.455v-2.941l2.424-1.455v2.941zM55.17 36.65l-4.424 2.654v5.271l4.424-2.652V36.65zm-1 4.709l-2.424 1.453v-2.941l2.424-1.453v2.941zm-17.671-4.763h-1v3.422h1v-3.422zM9.922 21.095h-1v3.424h1v-3.424zm2.571 1.715h-1v3.424h1V22.81zm2.572 1.714h-1v3.423h1v-3.423zm49.691-5.331l-4.424 2.655v5.273l4.424-2.653v-5.275zm-1 4.709l-2.424 1.454v-2.941l2.424-1.455v2.942z"/></svg>