<svg version="1.1" id="Layer_1" xmlns="http://www.w3.org/2000/svg" xmlns:xlink="http://www.w3.org/1999/xlink" x="0px" y="0px"
	 width="104px" height="80px" viewBox="-16 -24 104 80" enable-background="new -16 -24 104 80" xml:space="preserve">
<path class="hidden" d="M79.003,31.392c-0.531,0-0.963-0.432-0.963-0.963s0.432-0.964,0.963-0.964h4.533
	c0.531,0,0.964,0.433,0.964,0.964s-0.433,0.963-0.964,0.963H79.003z M-11.537,31.392c-0.531,0-0.963-0.432-0.963-0.963
	s0.432-0.964,0.963-0.964h4.529c0.533,0,0.967,0.433,0.967,0.964s-0.434,0.963-0.967,0.963H-11.537z M75.734,14.93
	c-0.392,0-0.741-0.235-0.89-0.599c-0.199-0.49,0.034-1.053,0.521-1.255l2.094-0.863c0.118-0.048,0.241-0.073,0.367-0.073
	c0.392,0,0.74,0.233,0.889,0.595c0.2,0.489-0.032,1.053-0.52,1.256l-2.093,0.867C75.981,14.907,75.859,14.93,75.734,14.93z
	 M-3.736,14.929c-0.124,0-0.246-0.023-0.362-0.069l-2.097-0.868c-0.487-0.204-0.722-0.766-0.526-1.254
	c0.153-0.366,0.502-0.598,0.894-0.598c0.128,0,0.253,0.025,0.372,0.074l2.087,0.859c0.487,0.204,0.722,0.767,0.527,1.255
	C-2.999,14.697-3.348,14.929-3.736,14.929z M66.418,0.981c-0.259,0-0.501-0.099-0.684-0.28c-0.184-0.185-0.284-0.426-0.284-0.684
	s0.101-0.5,0.282-0.682l3.195-3.204C69.11-4.05,69.353-4.15,69.61-4.15c0.256,0,0.497,0.099,0.68,0.278
	c0.378,0.38,0.378,0.991,0.004,1.366l-3.196,3.205C66.92,0.878,66.672,0.981,66.418,0.981z M5.586,0.981
	c-0.259,0-0.501-0.101-0.684-0.284L1.706-2.506C1.331-2.882,1.332-3.494,1.708-3.869C1.891-4.051,2.132-4.15,2.389-4.15
	c0.259,0,0.501,0.101,0.683,0.283l3.196,3.204c0.181,0.18,0.282,0.422,0.282,0.68c0,0.259-0.101,0.501-0.284,0.684
	C6.086,0.879,5.838,0.981,5.586,0.981z M52.459-8.35c-0.116,0-0.234-0.022-0.352-0.066c-0.508-0.212-0.74-0.777-0.537-1.268
	l0.865-2.084c0.151-0.363,0.501-0.597,0.89-0.597c0.128,0,0.252,0.025,0.369,0.075c0.235,0.097,0.423,0.282,0.521,0.52
	c0.099,0.237,0.1,0.499,0.001,0.736l-0.863,2.087C53.208-8.59,52.849-8.35,52.459-8.35z M19.538-8.35
	c-0.389,0-0.738-0.233-0.89-0.594l-0.863-2.089c-0.203-0.493,0.032-1.058,0.522-1.259c0.117-0.048,0.24-0.072,0.366-0.072
	c0.397,0,0.748,0.236,0.893,0.602l0.863,2.078c0.098,0.238,0.098,0.5-0.001,0.739s-0.285,0.424-0.522,0.522
	C19.794-8.375,19.666-8.35,19.538-8.35z M36-11.617c-0.531,0-0.963-0.434-0.963-0.967v-4.525c0-0.531,0.432-0.963,0.963-0.963
	s0.963,0.432,0.963,0.963v4.525C36.963-12.05,36.531-11.617,36-11.617z"/>
<linearGradient id="SVGID_1_" gradientUnits="userSpaceOnUse" x1="493.3643" y1="-294.6577" x2="404.6534" y2="-205.9468" gradientTransform="matrix(1 0 0 -1 -412.96 -218.6602)">
	<stop  offset="0" style="stop-color:#0ED0FF"/>
	<stop  offset="1" style="stop-color:#42D67E"/>
</linearGradient>
<path fill="url(#SVGID_1_)" d="M8.896,25.53h-1v4.794H5.25v9.822h2.646v10.971h1V40.146h2.647v-9.822H8.896V25.53z M10.544,31.324
	v7.822H6.25v-7.822H10.544z M17.722,19.353h-1v8.323h-2.646v18.646h2.646V52h1v-5.678h2.646V27.676h-2.646V19.353z M19.368,28.676
	v16.646h-4.293V28.676H19.368z M43.691,1.196c-7.027,0-13.585,3.146-17.989,8.633c-0.347,0.431-0.277,1.06,0.153,1.405
	c0.431,0.348,1.061,0.277,1.404-0.153c4.024-5.011,10.013-7.885,16.431-7.885c11.611,0,21.059,9.447,21.059,21.059
	c0,3.495-0.873,6.956-2.525,10.009c-0.08,0.146-0.121,0.311-0.121,0.477v7.928h-7.928c-0.166,0-0.33,0.041-0.475,0.119
	c-3.057,1.653-6.516,2.527-10.01,2.527c-0.553,0-1,0.447-1,1s0.447,1,1,1c3.738,0,7.445-0.915,10.734-2.646h8.676
	c0.553,0,1-0.447,1-1V34.99c1.732-3.287,2.648-6.994,2.648-10.734C66.75,11.539,56.406,1.196,43.691,1.196z M26.544,16.705h-1v3.912
	h-2.647v9.824h2.647v12.734h1V30.441h2.647v-9.824h-2.647V16.705z M28.192,21.618v7.824h-4.295v-7.824H28.192z M35.368,22h-1v9.206
	h-2.646v18.646h2.646v2.146h1v-2.146h2.646V31.205h-2.646V22z M37.016,32.205v16.646h-4.294V32.205H37.016z"/>
</svg>
