<svg xmlns="http://www.w3.org/2000/svg" width="120" height="120"><path fill="#FFF" d="M53.488 40.159h-1v13.523h-4.207V82.73h4.207v9.317h1V82.73h4.207V53.683h-4.207V40.159zm14.024-4.207h-1v6.512h-4.207v15.024h4.207v20.535h1V57.488h4.207V42.464h-4.207v-6.512zM39.465 49.976h-1v7.915h-4.207v15.023h4.207v17.731h1V72.914h4.207V57.891h-4.207v-7.915zm42.07 9.317V44.366h-1v14.927h-4.207v29.048h4.207v3.707h1v-3.707h4.207V59.293h-4.207z"/><path class="hidden" fill="none" d="M12.5 65.819h-5a.5.5 0 0 0 0 1h5a.5.5 0 0 0 0-1zm100 0h-5a.5.5 0 0 0 0 1h5a.5.5 0 0 0 0-1zM60 13.319a.5.5 0 0 0-.5.5v5a.5.5 0 0 0 1 0v-5a.5.5 0 0 0-.5-.5zM16.302 47.678l-2.305-.955a.5.5 0 1 0-.382.923l2.305.955a.5.5 0 0 0 .382-.923zm63.024-28.015a.5.5 0 0 0-.653.271l-.955 2.305a.5.5 0 0 0 .924.382l.955-2.305a.501.501 0 0 0-.271-.653zm-37.998.271a.5.5 0 0 0-.924.382l.955 2.305a.501.501 0 0 0 .653.271.5.5 0 0 0 .271-.653l-.955-2.305zm64.674 26.789l-2.305.955a.5.5 0 0 0 .382.924l2.305-.955a.5.5 0 1 0-.382-.924zM23.23 28.843a.5.5 0 0 0-.707.707l3.536 3.535a.498.498 0 0 0 .708 0 .5.5 0 0 0 0-.707l-3.537-3.535zm73.54 0l-3.535 3.535a.5.5 0 0 0 .708.707l3.535-3.535a.5.5 0 0 0-.708-.707z"/></svg>