<svg version="1.1" id="trader-icon" xmlns="http://www.w3.org/2000/svg" xmlns:xlink="http://www.w3.org/1999/xlink" x="0px" y="0px"
	 width="120px" height="120px" viewBox="0 0 120 120" enable-background="new 0 0 120 120" xml:space="preserve">
<path fill="#FFFFFF" d="M53.488,40.159h-1v13.523h-4.207V82.73h4.207v9.317h1V82.73h4.207V53.683h-4.207V40.159z M67.512,35.952h-1
	v6.512h-4.207v15.024h4.207v20.535h1V57.488h4.207V42.464h-4.207V35.952z M39.465,49.976h-1v7.915h-4.207v15.023h4.207v17.731h1
	V72.914h4.207V57.891h-4.207V49.976z M81.535,59.293V44.366h-1v14.927h-4.207v29.048h4.207v3.707h1v-3.707h4.207V59.293H81.535z"/>
<path class="hidden" fill="none" d="M12.5,65.819h-5c-0.276,0-0.5,0.224-0.5,0.5s0.224,0.5,0.5,0.5h5c0.276,0,0.5-0.224,0.5-0.5
	S12.776,65.819,12.5,65.819z M112.5,65.819h-5c-0.276,0-0.5,0.224-0.5,0.5s0.224,0.5,0.5,0.5h5c0.276,0,0.5-0.224,0.5-0.5
	S112.776,65.819,112.5,65.819z M60,13.319c-0.276,0-0.5,0.224-0.5,0.5v5c0,0.276,0.224,0.5,0.5,0.5s0.5-0.224,0.5-0.5v-5
	C60.5,13.543,60.276,13.319,60,13.319z M16.302,47.678l-2.305-0.955c-0.254-0.104-0.547,0.016-0.653,0.271
	c-0.105,0.255,0.016,0.547,0.271,0.652l2.305,0.955c0.063,0.025,0.127,0.038,0.191,0.038c0.196,0,0.382-0.116,0.462-0.309
	C16.678,48.076,16.557,47.783,16.302,47.678z M79.326,19.663c-0.252-0.105-0.547,0.015-0.653,0.271l-0.955,2.305
	c-0.105,0.255,0.016,0.547,0.271,0.653c0.063,0.026,0.127,0.038,0.191,0.038c0.196,0,0.382-0.116,0.462-0.309l0.955-2.305
	C79.702,20.062,79.581,19.77,79.326,19.663z M41.328,19.934c-0.105-0.255-0.399-0.376-0.653-0.271
	c-0.255,0.105-0.376,0.397-0.271,0.653l0.955,2.305c0.08,0.192,0.266,0.309,0.462,0.309c0.064,0,0.129-0.012,0.191-0.038
	c0.255-0.105,0.376-0.397,0.271-0.653L41.328,19.934z M106.002,46.723l-2.305,0.955c-0.255,0.105-0.376,0.398-0.271,0.653
	c0.08,0.192,0.266,0.309,0.462,0.309c0.063,0,0.129-0.013,0.191-0.038l2.305-0.955c0.255-0.105,0.376-0.397,0.271-0.652
	S106.258,46.619,106.002,46.723z M23.23,28.843c-0.195-0.195-0.512-0.195-0.707,0s-0.195,0.512,0,0.707l3.536,3.535
	c0.098,0.098,0.226,0.146,0.354,0.146s0.256-0.049,0.354-0.146c0.195-0.195,0.195-0.512,0-0.707L23.23,28.843z M96.77,28.843
	l-3.535,3.535c-0.195,0.195-0.195,0.512,0,0.707c0.098,0.098,0.226,0.146,0.354,0.146s0.256-0.049,0.354-0.146l3.535-3.535
	c0.195-0.195,0.195-0.512,0-0.707S96.965,28.647,96.77,28.843z"/>
</svg>
