<svg xmlns="http://www.w3.org/2000/svg" width="104" height="80" viewBox="-16 -24 104 80"><path class="hidden" d="M79.003 31.392a.964.964 0 0 1 0-1.927h4.533c.531 0 .964.433.964.964s-.433.963-.964.963h-4.533zm-90.54 0a.964.964 0 0 1 0-1.927h4.529c.533 0 .967.433.967.964s-.434.963-.967.963h-4.529zM75.734 14.93a.959.959 0 0 1-.89-.599.967.967 0 0 1 .521-1.255l2.094-.863a.957.957 0 0 1 1.256.522.966.966 0 0 1-.52 1.256l-2.093.867a.968.968 0 0 1-.368.072zm-79.47-.001a.978.978 0 0 1-.362-.069l-2.097-.868a.972.972 0 0 1-.526-1.254.964.964 0 0 1 1.266-.524l2.087.859a.974.974 0 0 1 .527 1.255.973.973 0 0 1-.895.601zM66.418.981a.964.964 0 0 1-.686-1.646l3.195-3.204a.966.966 0 0 1 1.363-.003c.378.38.378.991.004 1.366L67.098.699a.965.965 0 0 1-.68.282zm-60.832 0a.96.96 0 0 1-.684-.284L1.706-2.506a.965.965 0 0 1 1.366-1.361L6.268-.663A.96.96 0 0 1 5.586.981zM52.459-8.35c-.116 0-.234-.022-.352-.066a.97.97 0 0 1-.537-1.268l.865-2.084a.963.963 0 1 1 1.781.734l-.863 2.087a.97.97 0 0 1-.894.597zm-32.921 0a.965.965 0 0 1-.89-.594l-.863-2.089a.964.964 0 0 1 .888-1.331c.397 0 .748.236.893.602l.863 2.078c.098.238.098.5-.001.739a.958.958 0 0 1-.89.595zM36-11.617a.966.966 0 0 1-.963-.967v-4.525a.964.964 0 0 1 1.926 0v4.525a.966.966 0 0 1-.963.967z"/><linearGradient id="a" gradientUnits="userSpaceOnUse" x1="493.364" y1="-294.658" x2="404.653" y2="-205.947" gradientTransform="matrix(1 0 0 -1 -412.96 -218.66)"><stop offset="0" stop-color="#0ed0ff"/><stop offset="1" stop-color="#42d67e"/></linearGradient><path fill="url(#a)" d="M8.896 25.53h-1v4.794H5.25v9.822h2.646v10.971h1V40.146h2.647v-9.822H8.896V25.53zm1.648 5.794v7.822H6.25v-7.822h4.294zm7.178-11.971h-1v8.323h-2.646v18.646h2.646V52h1v-5.678h2.646V27.676h-2.646v-8.323zm1.646 9.323v16.646h-4.293V28.676h4.293zm24.323-27.48a22.962 22.962 0 0 0-17.989 8.633.998.998 0 1 0 1.557 1.252A20.978 20.978 0 0 1 43.69 3.196c11.611 0 21.059 9.447 21.059 21.059 0 3.495-.873 6.956-2.525 10.009a.994.994 0 0 0-.121.477v7.928h-7.928c-.166 0-.33.041-.475.119a21.101 21.101 0 0 1-10.01 2.527 1 1 0 1 0 0 2c3.738 0 7.445-.915 10.734-2.646H63.1a1 1 0 0 0 1-1V34.99a23.096 23.096 0 0 0 2.648-10.734c.002-12.717-10.342-23.06-23.057-23.06zM26.544 16.705h-1v3.912h-2.647v9.824h2.647v12.734h1V30.441h2.647v-9.824h-2.647v-3.912zm1.648 4.913v7.824h-4.295v-7.824h4.295zm7.176.382h-1v9.206h-2.646v18.646h2.646v2.146h1v-2.146h2.646V31.205h-2.646V22zm1.648 10.205v16.646h-4.294V32.205h4.294z"/></svg>