<svg xmlns="http://www.w3.org/2000/svg" width="104" height="80" viewBox="-16 -24 104 80"><path class="hidden" d="M79.003 31.392a.964.964 0 0 1 0-1.927h4.533c.531 0 .964.433.964.964s-.433.963-.964.963h-4.533zm-90.54 0a.964.964 0 0 1 0-1.927h4.529c.533 0 .967.433.967.964s-.434.963-.967.963h-4.529zM75.734 14.93a.959.959 0 0 1-.89-.599.967.967 0 0 1 .521-1.255l2.094-.863a.957.957 0 0 1 1.256.522.966.966 0 0 1-.52 1.256l-2.093.867a.968.968 0 0 1-.368.072zm-79.47-.001a.978.978 0 0 1-.362-.069l-2.097-.868a.972.972 0 0 1-.526-1.254.964.964 0 0 1 1.266-.524l2.087.859a.974.974 0 0 1 .527 1.255.973.973 0 0 1-.895.601zM66.418.981a.964.964 0 0 1-.686-1.646l3.195-3.204a.966.966 0 0 1 1.363-.003c.378.38.378.991.004 1.366L67.098.699a.965.965 0 0 1-.68.282zm-60.832 0a.96.96 0 0 1-.684-.284L1.706-2.506a.965.965 0 0 1 1.366-1.361L6.268-.663A.96.96 0 0 1 5.586.981zM52.459-8.35c-.116 0-.234-.022-.352-.066a.97.97 0 0 1-.537-1.268l.865-2.084a.963.963 0 1 1 1.781.734l-.863 2.087a.97.97 0 0 1-.894.597zm-32.921 0a.965.965 0 0 1-.89-.594l-.863-2.089a.964.964 0 0 1 .888-1.331c.397 0 .748.236.893.602l.863 2.078c.098.238.098.5-.001.739a.958.958 0 0 1-.89.595zM36-11.617a.966.966 0 0 1-.963-.967v-4.525a.964.964 0 0 1 1.926 0v4.525a.966.966 0 0 1-.963.967z"/><linearGradient id="a" gradientUnits="userSpaceOnUse" x1="470.926" y1="-264.508" x2="427.795" y2="-221.377" gradientTransform="matrix(1 0 0 -1 -412.96 -218.66)"><stop offset="0" stop-color="#0ed0ff"/><stop offset="1" stop-color="#42d67e"/></linearGradient><path fill="url(#a)" d="M26.134 37.491c.729 0 1.396-.179 1.981-.531 1.233-.741 1.941-2.162 1.994-3.993.053-1.763-.51-3.711-1.584-5.492-1.681-2.791-4.273-4.594-6.602-4.594-.729 0-1.396.18-1.979.53-2.48 1.498-2.664 5.752-.411 9.486 1.683 2.791 4.274 4.594 6.601 4.594zm-5.738-13.328a2.902 2.902 0 0 1 1.526-.403c1.998 0 4.348 1.673 5.852 4.167.989 1.637 1.506 3.418 1.46 5.015-.044 1.523-.605 2.684-1.573 3.268a2.907 2.907 0 0 1-1.527.405 4.496 4.496 0 0 1-1.576-.314c.511-.02.981-.149 1.395-.4.935-.563 1.473-1.631 1.516-3.008.036-1.308-.379-2.753-1.175-4.071-1.245-2.07-3.176-3.407-4.917-3.407-.552 0-1.058.136-1.504.404-.43.257-.762.635-1.016 1.088.141-1.217.654-2.207 1.539-2.744zm-.069 2.405a2.016 2.016 0 0 1 1.05-.279c1.418 0 3.09 1.201 4.167 2.985.71 1.173 1.081 2.451 1.046 3.59-.029 1.071-.418 1.88-1.088 2.285-.307.186-.66.279-1.053.279-1.238 0-2.672-.917-3.734-2.339-.146-.21-.297-.419-.433-.644-.706-1.175-1.08-2.453-1.044-3.59.031-1.07.419-1.883 1.089-2.287zm3.485 7.263a1.4 1.4 0 0 0 .727-.194c.486-.293.745-.859.731-1.595-.016-.648-.241-1.371-.643-2.034-.865-1.438-2.337-2.17-3.25-1.614-.937.563-.975 2.158-.088 3.627.66 1.1 1.65 1.81 2.523 1.81zm-1.982-4.687a.531.531 0 0 1 .273-.067c.453 0 1.2.431 1.772 1.383.319.526.506 1.111.516 1.599.009.403-.103.703-.306.825-.403.247-1.338-.143-2.047-1.315-.644-1.07-.642-2.164-.208-2.425zm30.955 1.29c-.215-.104-.475-.121-.78-.049-.306.071-.724.198-1.259.384l-.254.093c-.55.197-.967.285-1.252.27-.28-.015-.427-.218-.427-.604 0-.443.163-.886.492-1.332.328-.442.786-.84 1.367-1.189.401-.241.771-.392 1.106-.458.336-.063.667-.048.993.052l.254-.632c-.296-.121-.641-.134-1.047-.05-.363.08-.757.248-1.183.488v-1.105l-.397.236v1.116a6.224 6.224 0 0 0-1.028.834 4.735 4.735 0 0 0-.858 1.202 2.76 2.76 0 0 0-.303 1.211c0 .423.116.695.339.808.231.117.512.137.844.066.33-.073.76-.21 1.297-.414.407-.15.731-.251.97-.308.244-.056.443-.052.6.015.156.068.238.229.238.483 0 .432-.163.863-.486 1.296-.324.432-.779.822-1.361 1.17-.492.292-.911.479-1.257.56a2.084 2.084 0 0 1-1.049-.029l-.253.631c.327.114.701.12 1.117.018.353-.086.752-.265 1.189-.507v1.036l.399-.238v-1.031a6.17 6.17 0 0 0 1.142-.911c.37-.381.658-.774.859-1.184.202-.408.309-.801.309-1.182.001-.39-.106-.639-.321-.746zm-29.264 2.121l.261-.838c-.621-.194-1.089-1.028-1.089-1.938h-.877c0 1.319.701 2.462 1.705 2.776zM12.225 10.504L37.582 25.34v24.252h.873v-24.25L60.209 12.78l-.439-.757-21.752 12.559L12.67 9.747l-.445.757zM34.607-6.307L9.276 8.276v4.631l-.776-.454v6.532l.776.451v4.873l-.776-.454v6.536l.776.45v6.353l2.731 1.59v2.11l3.107 1.77.434-.763-2.662-1.514V39.29l21.811 12.661v2.158L38.014 56l3.852-2.078v-2.246l17.688-10.12v1.317l-2.662 1.519.434.763 3.104-1.77v-2.334l3.071-1.754V10.376L34.607-6.307zM9.356 13.941l3.947 2.311v4.533l-3.947-2.289v-4.555zm3.531 12.479v-4.889l1.273.741v-6.509l-1.273-.746v-1.915l22.4 13.107V47.67l-22.4-13.005v-1.729l1.273.738v-6.506l-1.273-.748zm-.88-5.398v4.887l-.976-.572v-4.879l.976.564zm-2.651 4.323l3.947 2.31v4.535l-3.947-2.292v-4.553zm31.63 28.05l-2.964 1.604-2.448-1.399v-1.139l2.44 1.418 2.973-1.703v1.219zm20.762-15.116L38.02 51.851 11.031 36.184v-4.326l.976.569v2.745l24.156 14.022V25.708L12.007 11.575v2.931l-.976-.573V9.291L34.606-4.281l27.142 15.668v26.892z"/></svg>