<svg xmlns="http://www.w3.org/2000/svg" width="32" height="12"><path fill="#2394BC" d="M13.062 1l-1.604 9.98h2.563L15.624 1h-2.562zm7.732 4.065c-.896-.442-1.445-.741-1.445-1.193.012-.411.465-.833 1.478-.833a4.487 4.487 0 0 1 1.909.369l.232.104.349-2.088a6.465 6.465 0 0 0-2.301-.412c-2.53 0-4.313 1.316-4.325 3.198-.021 1.39 1.276 2.16 2.247 2.623.992.475 1.329.781 1.329 1.203-.012.647-.802.945-1.539.945-1.022 0-1.572-.152-2.406-.514l-.338-.154-.357 2.171c.602.267 1.709.503 2.859.515 2.689 0 4.439-1.297 4.462-3.303.008-1.098-.676-1.942-2.154-2.631zm9.094-4.034h-1.982c-.611 0-1.076.176-1.34.803l-3.809 9.146h2.691l.74-1.98h3.01l.385 1.988h2.373l-2.068-9.957zm-2.953 5.971c.052.005 1.032-3.232 1.032-3.232l.781 3.232h-1.813zM9.315 1l-2.51 6.78-.275-1.337C6.067 4.9 4.61 3.224 2.985 2.391l2.301 8.579h2.712l4.03-9.968H9.315V1zm0 0"/><path fill="#EFC75E" d="M5.687 2.287c-.197-.761-.821-1.274-1.668-1.285H.042L0 1.187c3.103.764 5.708 3.118 6.552 5.333l-.865-4.233zm0 0"/></svg>