<?xml version="1.0" encoding="utf-8"?>
<!-- Generator: Adobe Illustrator 16.0.0, SVG Export Plug-In . SVG Version: 6.00 Build 0)  -->
<!DOCTYPE svg PUBLIC "-//W3C//DTD SVG 1.1//EN" "http://www.w3.org/Graphics/SVG/1.1/DTD/svg11.dtd">
<svg version="1.1" id="Layer_1" xmlns="http://www.w3.org/2000/svg" xmlns:xlink="http://www.w3.org/1999/xlink" x="0px" y="0px"
	 width="32px" height="12px" viewBox="0 0 32 12" enable-background="new 0 0 32 12" xml:space="preserve">
<g>
	<path fill="#2394BC" d="M13.062,1l-1.604,9.98h2.563L15.624,1H13.062z M20.794,5.065c-0.896-0.442-1.445-0.741-1.445-1.193
		c0.012-0.411,0.465-0.833,1.478-0.833c0.833-0.021,1.444,0.176,1.909,0.369l0.232,0.104l0.349-2.088
		c-0.506-0.196-1.31-0.412-2.301-0.412c-2.53,0-4.313,1.316-4.325,3.198c-0.021,1.39,1.276,2.16,2.247,2.623
		c0.992,0.475,1.329,0.781,1.329,1.203c-0.012,0.647-0.802,0.945-1.539,0.945c-1.022,0-1.572-0.152-2.406-0.514l-0.338-0.154
		l-0.357,2.171c0.602,0.267,1.709,0.503,2.859,0.515c2.689,0,4.439-1.297,4.462-3.303C22.956,6.598,22.272,5.754,20.794,5.065
		L20.794,5.065z M29.888,1.031h-1.982c-0.611,0-1.076,0.176-1.34,0.803l-3.809,9.146h2.691L26.188,9h3.01l0.385,1.988h2.373
		L29.888,1.031z M26.935,7.002c0.052,0.005,1.032-3.232,1.032-3.232l0.781,3.232H26.935z M9.315,1L6.805,7.78L6.53,6.443
		C6.067,4.9,4.61,3.224,2.985,2.391l2.301,8.579h2.712l4.03-9.968H9.315V1z M9.315,1"/>
	<path fill="#EFC75E" d="M5.687,2.287C5.49,1.526,4.866,1.013,4.019,1.002H0.042L0,1.187C3.103,1.951,5.708,4.305,6.552,6.52
		L5.687,2.287z M5.687,2.287"/>
</g>
</svg>
